<?xml version="1.0" encoding="UTF-8" standalone="no"?>
<svg
   version="1.1"
   viewBox="0 0 693.31494 508.68503"
   fill="none"
   stroke="none"
   stroke-linecap="square"
   stroke-miterlimit="10"
   id="svg62"
   sodipodi:docname="board.svg"
   width="693.31494"
   height="508.68503"
   xmlns:inkscape="http://www.inkscape.org/namespaces/inkscape"
   xmlns:sodipodi="http://sodipodi.sourceforge.net/DTD/sodipodi-0.dtd"
   xmlns="http://www.w3.org/2000/svg"
   xmlns:svg="http://www.w3.org/2000/svg">
  <defs
     id="defs62" />
  <sodipodi:namedview
     id="namedview62"
     pagecolor="#ffffff"
     bordercolor="#000000"
     borderopacity="0.25"
     inkscape:showpageshadow="2"
     inkscape:pageopacity="0.0"
     inkscape:pagecheckerboard="0"
     inkscape:deskcolor="#d1d1d1"
     showgrid="false" />
  <clipPath
     id="p.0">
    <path
       d="M 0,0 H 960 V 720 H 0 Z"
       clip-rule="nonzero"
       id="path1" />
  </clipPath>
  <g
     clip-path="url(#p.0)"
     id="g62"
     transform="translate(-102.88583,-41.038059)">
    <path
       fill="#ffffff"
       d="m 103.38583,41.53806 h 692.315 v 507.68503 h -692.315 z"
       fill-rule="evenodd"
       id="path3" />
    <path
       stroke="#000000"
       stroke-width="1"
       stroke-linejoin="round"
       stroke-linecap="butt"
       d="m 103.38583,41.53806 h 692.315 v 507.68503 h -692.315 z"
       fill-rule="evenodd"
       id="path4" />
    <path
       fill="#000000"
       d="m 113.7452,302.30057 v -13.35938 h 5.01562 q 1.53125,0 2.45313,0.40625 0.92187,0.40625 1.4375,1.25 0.53125,0.84375 0.53125,1.76563 0,0.85937 -0.46875,1.625 -0.45313,0.75 -1.39063,1.20312 1.20313,0.35938 1.85938,1.21875 0.65625,0.85938 0.65625,2.01563 0,0.9375 -0.40625,1.75 -0.39063,0.79687 -0.98438,1.23437 -0.57812,0.4375 -1.45312,0.67188 -0.875,0.21875 -2.15625,0.21875 z m 1.78125,-7.75 h 2.875 q 1.1875,0 1.6875,-0.14063 0.67187,-0.20312 1.01562,-0.67187 0.34375,-0.46875 0.34375,-1.17188 0,-0.65625 -0.32812,-1.15625 -0.3125,-0.51562 -0.90625,-0.70312 -0.59375,-0.1875 -2.03125,-0.1875 h -2.65625 z m 0,6.17187 h 3.3125 q 0.85937,0 1.20312,-0.0625 0.60938,-0.10937 1.01563,-0.35937 0.42187,-0.26563 0.6875,-0.75 0.26562,-0.48438 0.26562,-1.125 0,-0.75 -0.39062,-1.29688 -0.375,-0.54687 -1.0625,-0.76562 -0.67188,-0.23438 -1.95313,-0.23438 h -3.07812 z m 9.92795,-3.26562 q 0,-2.6875 1.48437,-3.96875 1.25001,-1.07813 3.04689,-1.07813 2,0 3.26562,1.3125 1.26563,1.29688 1.26563,3.60938 0,1.85937 -0.5625,2.9375 -0.5625,1.0625 -1.64063,1.65625 -1.0625,0.59375 -2.32812,0.59375 -2.03126,0 -3.28126,-1.29688 -1.25,-1.3125 -1.25,-3.76562 z m 1.6875,0 q 0,1.85937 0.79687,2.79687 0.81251,0.92188 2.04689,0.92188 1.21875,0 2.03125,-0.92188 0.8125,-0.9375 0.8125,-2.84375 0,-1.79687 -0.8125,-2.71875 -0.8125,-0.92187 -2.03125,-0.92187 -1.23438,0 -2.04689,0.92187 -0.79687,0.90625 -0.79687,2.76563 z m 15.6101,3.65625 q -0.92188,0.76562 -1.76563,1.09375 -0.82812,0.3125 -1.79687,0.3125 -1.59375,0 -2.45313,-0.78125 -0.85937,-0.78125 -0.85937,-1.98438 0,-0.71875 0.32812,-1.29687 0.32813,-0.59375 0.84375,-0.9375 0.53125,-0.35938 1.1875,-0.54688 0.46875,-0.125 1.45313,-0.25 1.98437,-0.23437 2.92187,-0.5625 0.0156,-0.34375 0.0156,-0.42187 0,-1 -0.46875,-1.42188 -0.625,-0.54687 -1.875,-0.54687 -1.15625,0 -1.70313,0.40625 -0.54687,0.40625 -0.8125,1.42187 l -1.60937,-0.21875 q 0.21875,-1.01562 0.71875,-1.64062 0.5,-0.64063 1.45312,-0.98438 0.95313,-0.34375 2.1875,-0.34375 1.25,0 2.01563,0.29688 0.78125,0.28125 1.14062,0.73437 0.375,0.4375 0.51563,1.10938 0.0781,0.42187 0.0781,1.51562 v 2.1875 q 0,2.28125 0.10938,2.89063 0.10937,0.59375 0.40625,1.15625 h -1.70313 q -0.26562,-0.51563 -0.32812,-1.1875 z m -0.14063,-3.67188 q -0.89062,0.375 -2.67187,0.625 -1.01563,0.14063 -1.4375,0.32813 -0.42188,0.1875 -0.65625,0.53125 -0.21875,0.34375 -0.21875,0.78125 0,0.65625 0.5,1.09375 0.5,0.4375 1.45312,0.4375 0.9375,0 1.67188,-0.40625 0.75,-0.42188 1.09375,-1.14063 0.26562,-0.5625 0.26562,-1.64062 z m 4.18822,4.85938 v -9.67188 h 1.46875 v 1.46875 q 0.5625,-1.03125 1.03125,-1.35937 0.48437,-0.32813 1.0625,-0.32813 0.82812,0 1.6875,0.53125 l -0.5625,1.51563 q -0.60938,-0.35938 -1.20313,-0.35938 -0.54687,0 -0.96875,0.32813 -0.42187,0.32812 -0.60937,0.89062 -0.28125,0.875 -0.28125,1.92188 v 5.0625 z m 12.49393,0 v -1.21875 q -0.90625,1.4375 -2.70313,1.4375 -1.15625,0 -2.125,-0.64063 -0.96875,-0.64062 -1.5,-1.78125 -0.53125,-1.14062 -0.53125,-2.625 0,-1.45312 0.48438,-2.625 0.48437,-1.1875 1.4375,-1.8125 0.96875,-0.625 2.17187,-0.625 0.875,0 1.54688,0.375 0.6875,0.35938 1.10937,0.95313 v -4.79688 h 1.64063 v 13.35938 z m -5.17188,-4.82813 q 0,1.85938 0.78125,2.78125 0.78125,0.92188 1.84375,0.92188 1.07813,0 1.82813,-0.875 0.75,-0.89063 0.75,-2.6875 0,-1.98438 -0.76563,-2.90625 -0.76562,-0.9375 -1.89062,-0.9375 -1.07813,0 -1.8125,0.89062 -0.73438,0.89063 -0.73438,2.8125 z"
       fill-rule="nonzero"
       id="path5" />
    <path
       fill="#f3f3f3"
       d="m 265.84515,231.2231 h 515.0866 v 128.31496 h -515.0866 z"
       fill-rule="evenodd"
       id="path6" />
    <path
       stroke="#999999"
       stroke-width="2"
       stroke-linejoin="round"
       stroke-linecap="butt"
       stroke-dasharray="8, 6"
       d="m 265.84515,231.2231 h 515.0866 v 128.31496 h -515.0866 z"
       fill-rule="evenodd"
       id="path7" />
    <path
       fill="#000000"
       d="m 276.15765,255.5831 v -11.45313 h 7.73437 v 1.34375 h -6.21875 v 3.54688 h 5.375 v 1.35937 h -5.375 v 5.20313 z m 9.52344,-9.84375 v -1.60938 h 1.40625 v 1.60938 z m 0,9.84375 v -8.29688 h 1.40625 v 8.29688 z m 9.22656,-2.67188 1.45312,0.17188 q -0.34375,1.28125 -1.28125,1.98437 -0.92187,0.70313 -2.35937,0.70313 -1.82813,0 -2.89063,-1.125 -1.0625,-1.125 -1.0625,-3.14063 0,-2.09375 1.07813,-3.25 1.07812,-1.15625 2.79687,-1.15625 1.65625,0 2.70313,1.14063 1.0625,1.125 1.0625,3.17187 0,0.125 0,0.375 h -6.1875 q 0.0781,1.375 0.76562,2.10938 0.70313,0.71875 1.73438,0.71875 0.78125,0 1.32812,-0.40625 0.54688,-0.40625 0.85938,-1.29688 z m -4.60938,-2.28125 h 4.625 q -0.0937,-1.04687 -0.53125,-1.5625 -0.67187,-0.8125 -1.73437,-0.8125 -0.96875,0 -1.64063,0.65625 -0.65625,0.64063 -0.71875,1.71875 z m 7.80469,4.95313 v -11.45313 h 1.40625 v 11.45313 z m 8.96094,0 v -1.04688 q -0.78125,1.23438 -2.3125,1.23438 -1,0 -1.82813,-0.54688 -0.82812,-0.54687 -1.29687,-1.53125 -0.45313,-0.98437 -0.45313,-2.25 0,-1.25 0.40625,-2.25 0.42188,-1.01562 1.25,-1.54687 0.82813,-0.54688 1.85938,-0.54688 0.75,0 1.32812,0.3125 0.59375,0.3125 0.95313,0.82813 v -4.10938 h 1.40625 v 11.45313 z m -4.4375,-4.14063 q 0,1.59375 0.67187,2.39063 0.67188,0.78125 1.57813,0.78125 0.92187,0 1.5625,-0.75 0.65625,-0.76563 0.65625,-2.3125 0,-1.70313 -0.65625,-2.5 -0.65625,-0.79688 -1.625,-0.79688 -0.9375,0 -1.5625,0.76563 -0.625,0.76562 -0.625,2.42187 z"
       fill-rule="nonzero"
       id="path8" />
    <path
       fill="#f3f3f3"
       d="m 265.84515,370.4672 h 515.0866 v 164.31497 h -515.0866 z"
       fill-rule="evenodd"
       id="path9" />
    <path
       stroke="#999999"
       stroke-width="2"
       stroke-linejoin="round"
       stroke-linecap="butt"
       stroke-dasharray="8, 6"
       d="m 265.84515,370.4672 h 515.0866 v 164.31497 h -515.0866 z"
       fill-rule="evenodd"
       id="path10" />
    <path
       fill="#000000"
       d="M 279.0014,394.82718 V 384.7178 h -3.78125 v -1.34375 h 9.07812 v 1.34375 h -3.78125 v 10.10938 z m 10.3125,-1.03125 q -0.78125,0.67187 -1.5,0.95312 -0.71875,0.26563 -1.54688,0.26563 -1.375,0 -2.10937,-0.67188 -0.73438,-0.67187 -0.73438,-1.70312 0,-0.60938 0.28125,-1.10938 0.28125,-0.51562 0.71875,-0.8125 0.45313,-0.3125 1.01563,-0.46875 0.42187,-0.10937 1.25,-0.20312 1.70312,-0.20313 2.51562,-0.48438 0,-0.29687 0,-0.375 0,-0.85937 -0.39062,-1.20312 -0.54688,-0.48438 -1.60938,-0.48438 -0.98437,0 -1.46875,0.35938 -0.46875,0.34375 -0.6875,1.21875 l -1.375,-0.1875 q 0.1875,-0.875 0.60938,-1.42188 0.4375,-0.54687 1.25,-0.82812 0.8125,-0.29688 1.875,-0.29688 1.0625,0 1.71875,0.25 0.67187,0.25 0.98437,0.625 0.3125,0.375 0.4375,0.95313 0.0781,0.35937 0.0781,1.29687 v 1.875 q 0,1.96875 0.0781,2.48438 0.0937,0.51562 0.35938,1 h -1.46875 q -0.21875,-0.4375 -0.28125,-1.03125 z m -0.10938,-3.14063 q -0.76562,0.3125 -2.29687,0.53125 -0.875,0.125 -1.23438,0.28125 -0.35937,0.15625 -0.5625,0.46875 -0.1875,0.29688 -0.1875,0.65625 0,0.5625 0.42188,0.9375 0.4375,0.375 1.25,0.375 0.8125,0 1.4375,-0.34375 0.64062,-0.35937 0.9375,-0.98437 0.23437,-0.46875 0.23437,-1.40625 z m 4.89844,4.17188 h -1.3125 v -11.45313 h 1.40625 v 4.07813 q 0.89063,-1.10938 2.28125,-1.10938 0.76563,0 1.4375,0.3125 0.6875,0.29688 1.125,0.85938 0.45313,0.5625 0.70313,1.35937 0.25,0.78125 0.25,1.67188 0,2.14062 -1.0625,3.3125 -1.04688,1.15625 -2.53125,1.15625 -1.46875,0 -2.29688,-1.23438 z m -0.0156,-4.21875 q 0,1.5 0.40625,2.15625 0.65625,1.09375 1.79687,1.09375 0.92188,0 1.59375,-0.79688 0.67188,-0.8125 0.67188,-2.39062 0,-1.625 -0.65625,-2.39063 -0.64063,-0.78125 -1.54688,-0.78125 -0.92187,0 -1.59375,0.79688 -0.67187,0.79687 -0.67187,2.3125 z m 7.58593,4.21875 v -11.45313 h 1.40625 v 11.45313 z m 9.25782,-2.67188 1.45312,0.17188 q -0.34375,1.28125 -1.28125,1.98437 -0.92187,0.70313 -2.35937,0.70313 -1.82813,0 -2.89063,-1.125 -1.0625,-1.125 -1.0625,-3.14063 0,-2.09375 1.07813,-3.25 1.07812,-1.15625 2.79687,-1.15625 1.65625,0 2.70313,1.14063 1.0625,1.125 1.0625,3.17187 0,0.125 0,0.375 h -6.1875 q 0.0781,1.375 0.76562,2.10938 0.70313,0.71875 1.73438,0.71875 0.78125,0 1.32812,-0.40625 0.54688,-0.40625 0.85938,-1.29688 z m -4.60938,-2.28125 h 4.625 q -0.0937,-1.04687 -0.53125,-1.5625 -0.67187,-0.8125 -1.73437,-0.8125 -0.96875,0 -1.64063,0.65625 -0.65625,0.64063 -0.71875,1.71875 z m 13.24219,3.92188 q -0.78125,0.67187 -1.5,0.95312 -0.71875,0.26563 -1.54688,0.26563 -1.375,0 -2.10937,-0.67188 -0.73438,-0.67187 -0.73438,-1.70312 0,-0.60938 0.28125,-1.10938 0.28125,-0.51562 0.71875,-0.8125 0.45313,-0.3125 1.01563,-0.46875 0.42187,-0.10937 1.25,-0.20312 1.70312,-0.20313 2.51562,-0.48438 0,-0.29687 0,-0.375 0,-0.85937 -0.39062,-1.20312 -0.54688,-0.48438 -1.60938,-0.48438 -0.98437,0 -1.46875,0.35938 -0.46875,0.34375 -0.6875,1.21875 l -1.375,-0.1875 q 0.1875,-0.875 0.60938,-1.42188 0.4375,-0.54687 1.25,-0.82812 0.8125,-0.29688 1.875,-0.29688 1.0625,0 1.71875,0.25 0.67187,0.25 0.98437,0.625 0.3125,0.375 0.4375,0.95313 0.0781,0.35937 0.0781,1.29687 v 1.875 q 0,1.96875 0.0781,2.48438 0.0937,0.51562 0.35938,1 h -1.46875 q -0.21875,-0.4375 -0.28125,-1.03125 z m -0.10938,-3.14063 q -0.76562,0.3125 -2.29687,0.53125 -0.875,0.125 -1.23438,0.28125 -0.35937,0.15625 -0.5625,0.46875 -0.1875,0.29688 -0.1875,0.65625 0,0.5625 0.42188,0.9375 0.4375,0.375 1.25,0.375 0.8125,0 1.4375,-0.34375 0.64062,-0.35937 0.9375,-0.98437 0.23437,-0.46875 0.23437,-1.40625 z m 9.03907,4.17188 v -1.21875 q -0.96875,1.40625 -2.64063,1.40625 -0.73437,0 -1.375,-0.28125 -0.625,-0.28125 -0.9375,-0.70313 -0.3125,-0.4375 -0.4375,-1.04687 -0.0781,-0.42188 -0.0781,-1.3125 v -5.14063 h 1.40625 v 4.59375 q 0,1.10938 0.0781,1.48438 0.14063,0.5625 0.5625,0.875 0.4375,0.3125 1.0625,0.3125 0.64063,0 1.1875,-0.3125 0.5625,-0.32813 0.78125,-0.89063 0.23438,-0.5625 0.23438,-1.625 v -4.4375 h 1.40625 v 8.29688 z"
       fill-rule="nonzero"
       id="path11" />
    <path
       fill="#000000"
       fill-opacity="0"
       d="m 700.6142,411.69815 h 75.08661 V 525.55646 H 700.6142 Z"
       fill-rule="evenodd"
       id="path12" />
    <path
       stroke="#999999"
       stroke-width="2"
       stroke-linejoin="round"
       stroke-linecap="butt"
       stroke-dasharray="8, 6"
       d="m 700.6142,411.69815 h 75.08661 V 525.55646 H 700.6142 Z"
       fill-rule="evenodd"
       id="path13" />
    <path
       fill="#000000"
       d="m 719.02045,432.04254 1.51562,0.375 q -0.46875,1.875 -1.71875,2.85937 -1.23437,0.98438 -3.01562,0.98438 -1.85938,0 -3.01563,-0.75 -1.15625,-0.76563 -1.76562,-2.1875 -0.60938,-1.4375 -0.60938,-3.07813 0,-1.79687 0.6875,-3.125 0.6875,-1.32812 1.9375,-2.01562 1.26563,-0.70313 2.78125,-0.70313 1.71875,0 2.89063,0.875 1.17187,0.875 1.64062,2.46875 l -1.5,0.34375 q -0.39062,-1.25 -1.15625,-1.8125 -0.75,-0.57812 -1.90625,-0.57812 -1.3125,0 -2.20312,0.64062 -0.89063,0.625 -1.25,1.70313 -0.35938,1.0625 -0.35938,2.1875 0,1.46875 0.42188,2.5625 0.4375,1.07812 1.32812,1.625 0.90625,0.53125 1.95313,0.53125 1.26562,0 2.14062,-0.73438 0.89063,-0.73437 1.20313,-2.17187 z m 2.67969,-0.14063 q 0,-2.29687 1.28125,-3.40625 1.07812,-0.92187 2.60937,-0.92187 1.71875,0 2.79688,1.125 1.09375,1.10937 1.09375,3.09375 0,1.59375 -0.48438,2.51562 -0.48437,0.92188 -1.40625,1.4375 -0.90625,0.5 -2,0.5 -1.73437,0 -2.8125,-1.10937 -1.07812,-1.125 -1.07812,-3.23438 z m 1.45312,0 q 0,1.59375 0.6875,2.39063 0.70313,0.79687 1.75,0.79687 1.04688,0 1.73438,-0.79687 0.70312,-0.79688 0.70312,-2.4375 0,-1.53125 -0.70312,-2.32813 -0.6875,-0.79687 -1.73438,-0.79687 -1.04687,0 -1.75,0.79687 -0.6875,0.78125 -0.6875,2.375 z m 7.97656,-5.6875 v -1.60937 h 1.40625 v 1.60937 z m 0,9.84375 v -8.29687 h 1.40625 v 8.29687 z m 3.55469,0 v -8.29687 h 1.26563 v 1.17187 q 0.90625,-1.35937 2.64062,-1.35937 0.75,0 1.375,0.26562 0.625,0.26563 0.9375,0.70313 0.3125,0.4375 0.4375,1.04687 0.0781,0.39063 0.0781,1.35938 v 5.10937 h -1.40625 v -5.04687 q 0,-0.85938 -0.17188,-1.28125 -0.15625,-0.4375 -0.57812,-0.6875 -0.40625,-0.25 -0.96875,-0.25 -0.90625,0 -1.5625,0.57812 -0.64063,0.5625 -0.64063,2.15625 v 4.53125 z m 8.33594,-2.48437 1.39062,-0.21875 q 0.10938,0.84375 0.64063,1.29687 0.54687,0.4375 1.5,0.4375 0.96875,0 1.4375,-0.39062 0.46875,-0.40625 0.46875,-0.9375 0,-0.46875 -0.40625,-0.75 -0.29688,-0.1875 -1.4375,-0.46875 -1.54688,-0.39063 -2.15625,-0.67188 -0.59375,-0.29687 -0.90625,-0.79687 -0.29688,-0.5 -0.29688,-1.10938 0,-0.5625 0.25,-1.03125 0.25,-0.46875 0.6875,-0.78125 0.32813,-0.25 0.89063,-0.40625 0.57812,-0.17187 1.21875,-0.17187 0.98437,0 1.71875,0.28125 0.73437,0.28125 1.07812,0.76562 0.35938,0.46875 0.5,1.28125 l -1.375,0.1875 q -0.0937,-0.64062 -0.54687,-1 -0.45313,-0.35937 -1.26563,-0.35937 -0.96875,0 -1.39062,0.32812 -0.40625,0.3125 -0.40625,0.73438 0,0.28125 0.17187,0.5 0.17188,0.21875 0.53125,0.375 0.21875,0.0781 1.25,0.35937 1.48438,0.39063 2.07813,0.65625 0.59375,0.25 0.92187,0.73438 0.34375,0.48437 0.34375,1.20312 0,0.70313 -0.42187,1.32813 -0.40625,0.60937 -1.1875,0.95312 -0.76563,0.34375 -1.73438,0.34375 -1.625,0 -2.46875,-0.67187 -0.84375,-0.67188 -1.07812,-2 z"
       fill-rule="nonzero"
       id="path14" />
    <path
       fill="#000000"
       fill-opacity="0"
       d="M 279.6929,411.6929 H 680.16534 V 525.55121 H 279.6929 Z"
       fill-rule="evenodd"
       id="path15" />
    <path
       stroke="#999999"
       stroke-width="2"
       stroke-linejoin="round"
       stroke-linecap="butt"
       stroke-dasharray="8, 6"
       d="M 279.6929,411.6929 H 680.16534 V 525.55121 H 279.6929 Z"
       fill-rule="evenodd"
       id="path16" />
    <path
       fill="#000000"
       d="m 289.97415,436.05292 v -11.45313 h 1.51562 v 4.70313 h 5.95313 v -4.70313 h 1.51562 v 11.45313 h -1.51562 v -5.40625 h -5.95313 v 5.40625 z m 16.74219,-1.03125 q -0.78125,0.67187 -1.5,0.95312 -0.71875,0.26563 -1.54688,0.26563 -1.375,0 -2.10937,-0.67188 -0.73438,-0.67187 -0.73438,-1.70312 0,-0.60938 0.28125,-1.10938 0.28125,-0.51562 0.71875,-0.8125 0.45313,-0.3125 1.01563,-0.46875 0.42187,-0.10937 1.25,-0.20312 1.70312,-0.20313 2.51562,-0.48438 0,-0.29687 0,-0.375 0,-0.85937 -0.39062,-1.20312 -0.54688,-0.48438 -1.60938,-0.48438 -0.98437,0 -1.46875,0.35938 -0.46875,0.34375 -0.6875,1.21875 l -1.375,-0.1875 q 0.1875,-0.875 0.60938,-1.42188 0.4375,-0.54687 1.25,-0.82812 0.8125,-0.29688 1.875,-0.29688 1.0625,0 1.71875,0.25 0.67187,0.25 0.98437,0.625 0.3125,0.375 0.4375,0.95313 0.0781,0.35937 0.0781,1.29687 v 1.875 q 0,1.96875 0.0781,2.48438 0.0937,0.51562 0.35938,1 h -1.46875 q -0.21875,-0.4375 -0.28125,-1.03125 z m -0.10938,-3.14063 q -0.76562,0.3125 -2.29687,0.53125 -0.875,0.125 -1.23438,0.28125 -0.35937,0.15625 -0.5625,0.46875 -0.1875,0.29688 -0.1875,0.65625 0,0.5625 0.42188,0.9375 0.4375,0.375 1.25,0.375 0.8125,0 1.4375,-0.34375 0.64062,-0.35937 0.9375,-0.98437 0.23437,-0.46875 0.23437,-1.40625 z m 3.60157,4.17188 v -8.29688 h 1.26562 v 1.17188 q 0.90625,-1.35938 2.64063,-1.35938 0.75,0 1.375,0.26563 0.625,0.26562 0.9375,0.70312 0.3125,0.4375 0.4375,1.04688 0.0781,0.39062 0.0781,1.35937 v 5.10938 h -1.40625 v -5.04688 q 0,-0.85937 -0.17187,-1.28125 -0.15625,-0.4375 -0.57813,-0.6875 -0.40625,-0.25 -0.96875,-0.25 -0.90625,0 -1.5625,0.57813 -0.64062,0.5625 -0.64062,2.15625 v 4.53125 z m 14.27343,0 v -1.04688 q -0.78125,1.23438 -2.3125,1.23438 -1,0 -1.82812,-0.54688 -0.82813,-0.54687 -1.29688,-1.53125 -0.45312,-0.98437 -0.45312,-2.25 0,-1.25 0.40625,-2.25 0.42187,-1.01562 1.25,-1.54687 0.82812,-0.54688 1.85937,-0.54688 0.75,0 1.32813,0.3125 0.59375,0.3125 0.95312,0.82813 v -4.10938 h 1.40625 v 11.45313 z m -4.4375,-4.14063 q 0,1.59375 0.67188,2.39063 0.67187,0.78125 1.57812,0.78125 0.92188,0 1.5625,-0.75 0.65625,-0.76563 0.65625,-2.3125 0,-1.70313 -0.65625,-2.5 -0.65625,-0.79688 -1.625,-0.79688 -0.9375,0 -1.5625,0.76563 -0.625,0.76562 -0.625,2.42187 z"
       fill-rule="nonzero"
       id="path17" />
    <path
       fill="#ff0000"
       d="m 118.15485,79.85302 v 0 c 0,-11.985016 9.71578,-21.70079 21.70079,-21.70079 h 84.91339 v 0 c 5.7554,0 11.27508,2.286327 15.34477,6.356018 4.06969,4.069687 6.35602,9.589363 6.35602,15.344772 v 0 0 c 0,11.985016 -9.71578,21.70078 -21.70079,21.70078 h -84.91339 c -11.98501,0 -21.70079,-9.715764 -21.70079,-21.70078 z"
       fill-rule="evenodd"
       id="path18" />
    <path
       fill="#ffffff"
       d="M 166.14966,86.77302 V 73.413645 h 9.65625 v 1.578125 h -7.875 v 4.09375 h 7.375 v 1.5625 h -7.375 v 4.546875 h 8.1875 v 1.578125 z m 14.8967,0 -3.6875,-9.671875 h 1.73437 l 2.07813,5.796875 q 0.32812,0.9375 0.625,1.9375 0.20312,-0.765625 0.60937,-1.828125 l 2.14063,-5.90625 h 1.6875 l -3.65625,9.671875 z m 13.26562,-3.109375 1.6875,0.203125 q -0.40625,1.484375 -1.48437,2.3125 -1.07813,0.8125 -2.76563,0.8125 -2.125,0 -3.375,-1.296875 -1.23437,-1.3125 -1.23437,-3.671875 0,-2.453125 1.25,-3.796875 1.26562,-1.34375 3.26562,-1.34375 1.9375,0 3.15625,1.328125 1.23438,1.3125 1.23438,3.703125 0,0.15625 0,0.4375 h -7.21875 q 0.0937,1.59375 0.90625,2.453125 0.8125,0.84375 2.01562,0.84375 0.90625,0 1.54688,-0.46875 0.64062,-0.484375 1.01562,-1.515625 z m -5.39062,-2.65625 h 5.40625 q -0.10938,-1.21875 -0.625,-1.828125 -0.78125,-0.953125 -2.03125,-0.953125 -1.125,0 -1.90625,0.765625 -0.76563,0.75 -0.84375,2.015625 z m 9.09446,5.765625 V 73.413645 h 1.64063 V 86.77302 Z m 4.11358,3.71875 -0.1875,-1.53125 q 0.54687,0.140625 0.9375,0.140625 0.54687,0 0.875,-0.1875 0.32812,-0.171875 0.54687,-0.5 0.15625,-0.25 0.5,-1.21875 0.0469,-0.140625 0.14063,-0.40625 l -3.67188,-9.6875 h 1.76563 l 2.01562,5.59375 q 0.39063,1.078125 0.70313,2.25 0.28125,-1.125 0.67187,-2.203125 l 2.07813,-5.640625 h 1.64062 l -3.6875,9.828125 q -0.59375,1.609375 -0.92187,2.203125 -0.4375,0.8125 -1,1.1875 -0.5625,0.375 -1.34375,0.375 -0.48438,0 -1.0625,-0.203125 z m 9.40625,-3.71875 v -9.671875 h 1.46875 v 1.375 q 1.0625,-1.59375 3.07812,-1.59375 0.875,0 1.60938,0.3125 0.73437,0.3125 1.09375,0.828125 0.375,0.5 0.51562,1.203125 0.0937,0.453125 0.0937,1.59375 v 5.953125 h -1.64062 v -5.890625 q 0,-1 -0.20313,-1.484375 -0.1875,-0.5 -0.67187,-0.796875 -0.48438,-0.296875 -1.14063,-0.296875 -1.04687,0 -1.8125,0.671875 -0.75,0.65625 -0.75,2.515625 v 5.28125 z"
       fill-rule="nonzero"
       id="path19" />
    <path
       fill="#ffffff"
       d="m 124.30965,79.85302 v 0 c 0,-9.514954 7.71341,-17.228348 17.22834,-17.228348 v 0 c 4.56925,0 8.95134,1.815124 12.18229,5.046066 3.23094,3.230942 5.04606,7.613037 5.04606,12.182282 v 0 c 0,9.514954 -7.71339,17.228348 -17.22835,17.228348 v 0 c -9.51493,0 -17.22834,-7.713394 -17.22834,-17.228348 z"
       fill-rule="evenodd"
       id="path20" />
    <path
       fill="#f3f3f3"
       d="m 265.84515,58.15223 h 515.0866 V 222.4672 h -515.0866 z"
       fill-rule="evenodd"
       id="path21" />
    <path
       stroke="#999999"
       stroke-width="2"
       stroke-linejoin="round"
       stroke-linecap="butt"
       stroke-dasharray="8, 6"
       d="m 265.84515,58.15223 h 515.0866 V 222.4672 h -515.0866 z"
       fill-rule="evenodd"
       id="path22" />
    <path
       fill="#000000"
       d="m 279.0014,209.8272 v -10.10938 h -3.78125 v -1.34375 h 9.07812 v 1.34375 h -3.78125 v 10.10938 z m 10.3125,-1.03125 q -0.78125,0.67187 -1.5,0.95312 -0.71875,0.26563 -1.54688,0.26563 -1.375,0 -2.10937,-0.67188 -0.73438,-0.67187 -0.73438,-1.70312 0,-0.60938 0.28125,-1.10938 0.28125,-0.51562 0.71875,-0.8125 0.45313,-0.3125 1.01563,-0.46875 0.42187,-0.10937 1.25,-0.20312 1.70312,-0.20313 2.51562,-0.48438 0,-0.29687 0,-0.375 0,-0.85937 -0.39062,-1.20312 -0.54688,-0.48438 -1.60938,-0.48438 -0.98437,0 -1.46875,0.35938 -0.46875,0.34375 -0.6875,1.21875 l -1.375,-0.1875 q 0.1875,-0.875 0.60938,-1.42188 0.4375,-0.54687 1.25,-0.82812 0.8125,-0.29688 1.875,-0.29688 1.0625,0 1.71875,0.25 0.67187,0.25 0.98437,0.625 0.3125,0.375 0.4375,0.95313 0.0781,0.35937 0.0781,1.29687 v 1.875 q 0,1.96875 0.0781,2.48438 0.0937,0.51562 0.35938,1 h -1.46875 q -0.21875,-0.4375 -0.28125,-1.03125 z m -0.10938,-3.14063 q -0.76562,0.3125 -2.29687,0.53125 -0.875,0.125 -1.23438,0.28125 -0.35937,0.15625 -0.5625,0.46875 -0.1875,0.29688 -0.1875,0.65625 0,0.5625 0.42188,0.9375 0.4375,0.375 1.25,0.375 0.8125,0 1.4375,-0.34375 0.64062,-0.35937 0.9375,-0.98437 0.23437,-0.46875 0.23437,-1.40625 z m 4.89844,4.17188 h -1.3125 v -11.45313 h 1.40625 v 4.07813 q 0.89063,-1.10938 2.28125,-1.10938 0.76563,0 1.4375,0.3125 0.6875,0.29688 1.125,0.85938 0.45313,0.5625 0.70313,1.35937 0.25,0.78125 0.25,1.67188 0,2.14062 -1.0625,3.3125 -1.04688,1.15625 -2.53125,1.15625 -1.46875,0 -2.29688,-1.23438 z m -0.0156,-4.21875 q 0,1.5 0.40625,2.15625 0.65625,1.09375 1.79687,1.09375 0.92188,0 1.59375,-0.79688 0.67188,-0.8125 0.67188,-2.39062 0,-1.625 -0.65625,-2.39063 -0.64063,-0.78125 -1.54688,-0.78125 -0.92187,0 -1.59375,0.79688 -0.67187,0.79687 -0.67187,2.3125 z m 7.58593,4.21875 v -11.45313 h 1.40625 v 11.45313 z m 9.25782,-2.67188 1.45312,0.17188 q -0.34375,1.28125 -1.28125,1.98437 -0.92187,0.70313 -2.35937,0.70313 -1.82813,0 -2.89063,-1.125 -1.0625,-1.125 -1.0625,-3.14063 0,-2.09375 1.07813,-3.25 1.07812,-1.15625 2.79687,-1.15625 1.65625,0 2.70313,1.14063 1.0625,1.125 1.0625,3.17187 0,0.125 0,0.375 h -6.1875 q 0.0781,1.375 0.76562,2.10938 0.70313,0.71875 1.73438,0.71875 0.78125,0 1.32812,-0.40625 0.54688,-0.40625 0.85938,-1.29688 z m -4.60938,-2.28125 h 4.625 q -0.0937,-1.04687 -0.53125,-1.5625 -0.67187,-0.8125 -1.73437,-0.8125 -0.96875,0 -1.64063,0.65625 -0.65625,0.64063 -0.71875,1.71875 z m 13.24219,3.92188 q -0.78125,0.67187 -1.5,0.95312 -0.71875,0.26563 -1.54688,0.26563 -1.375,0 -2.10937,-0.67188 -0.73438,-0.67187 -0.73438,-1.70312 0,-0.60938 0.28125,-1.10938 0.28125,-0.51562 0.71875,-0.8125 0.45313,-0.3125 1.01563,-0.46875 0.42187,-0.10937 1.25,-0.20312 1.70312,-0.20313 2.51562,-0.48438 0,-0.29687 0,-0.375 0,-0.85937 -0.39062,-1.20312 -0.54688,-0.48438 -1.60938,-0.48438 -0.98437,0 -1.46875,0.35938 -0.46875,0.34375 -0.6875,1.21875 l -1.375,-0.1875 q 0.1875,-0.875 0.60938,-1.42188 0.4375,-0.54687 1.25,-0.82812 0.8125,-0.29688 1.875,-0.29688 1.0625,0 1.71875,0.25 0.67187,0.25 0.98437,0.625 0.3125,0.375 0.4375,0.95313 0.0781,0.35937 0.0781,1.29687 v 1.875 q 0,1.96875 0.0781,2.48438 0.0937,0.51562 0.35938,1 h -1.46875 q -0.21875,-0.4375 -0.28125,-1.03125 z m -0.10938,-3.14063 q -0.76562,0.3125 -2.29687,0.53125 -0.875,0.125 -1.23438,0.28125 -0.35937,0.15625 -0.5625,0.46875 -0.1875,0.29688 -0.1875,0.65625 0,0.5625 0.42188,0.9375 0.4375,0.375 1.25,0.375 0.8125,0 1.4375,-0.34375 0.64062,-0.35937 0.9375,-0.98437 0.23437,-0.46875 0.23437,-1.40625 z m 9.03907,4.17188 v -1.21875 q -0.96875,1.40625 -2.64063,1.40625 -0.73437,0 -1.375,-0.28125 -0.625,-0.28125 -0.9375,-0.70313 -0.3125,-0.4375 -0.4375,-1.04687 -0.0781,-0.42188 -0.0781,-1.3125 v -5.14063 h 1.40625 v 4.59375 q 0,1.10938 0.0781,1.48438 0.14063,0.5625 0.5625,0.875 0.4375,0.3125 1.0625,0.3125 0.64063,0 1.1875,-0.3125 0.5625,-0.32813 0.78125,-0.89063 0.23438,-0.5625 0.23438,-1.625 v -4.4375 h 1.40625 v 8.29688 z"
       fill-rule="nonzero"
       id="path23" />
    <path
       fill="#38761d"
       d="m 118.15485,513.07874 v 0 c 0,-11.98502 9.71578,-21.70077 21.70079,-21.70077 h 84.91339 v 0 c 5.7554,0 11.27508,2.28631 15.34477,6.35601 4.06969,4.06967 6.35602,9.58936 6.35602,15.34476 v 0 0 c 0,11.98505 -9.71578,21.70081 -21.70079,21.70081 h -84.91339 c -11.98501,0 -21.70079,-9.71576 -21.70079,-21.70081 z"
       fill-rule="evenodd"
       id="path24" />
    <path
       fill="#ffffff"
       d="m 162.61595,516.20184 1.59375,-0.21875 q 0.0781,1.53125 0.57812,2.10937 0.51563,0.5625 1.42188,0.5625 0.65625,0 1.14062,-0.29687 0.48438,-0.3125 0.65625,-0.82813 0.1875,-0.53125 0.1875,-1.6875 v -9.20309 h 1.76563 v 9.10934 q 0,1.67188 -0.40625,2.59375 -0.40625,0.92188 -1.28125,1.40625 -0.875,0.48438 -2.0625,0.48438 -1.75,0 -2.6875,-1.01563 -0.9375,-1.01562 -0.90625,-3.01562 z m 16.65625,0.6875 1.6875,0.20312 q -0.40625,1.48438 -1.48438,2.3125 -1.07812,0.8125 -2.76562,0.8125 -2.125,0 -3.375,-1.29687 -1.23438,-1.3125 -1.23438,-3.67188 0,-2.45312 1.25,-3.79684 1.26563,-1.34375 3.26563,-1.34375 1.9375,0 3.15625,1.32813 1.23437,1.31246 1.23437,3.70309 0,0.15625 0,0.4375 h -7.21875 q 0.0937,1.59375 0.90625,2.45312 0.8125,0.84375 2.01563,0.84375 0.90625,0 1.54687,-0.46875 0.64063,-0.48437 1.01563,-1.51562 z m -5.39063,-2.65625 h 5.40625 q -0.10937,-1.21875 -0.625,-1.82813 -0.78125,-0.95309 -2.03125,-0.95309 -1.125,0 -1.90625,0.76559 -0.76562,0.75 -0.84375,2.01563 z m 9.14135,5.76562 v -9.67184 h 1.46875 v 1.375 q 1.0625,-1.59375 3.07812,-1.59375 0.875,0 1.60938,0.3125 0.73437,0.3125 1.09375,0.82813 0.375,0.5 0.51562,1.20309 0.0937,0.45312 0.0937,1.59375 v 5.95312 h -1.64062 v -5.89062 q 0,-1 -0.20313,-1.48438 -0.1875,-0.5 -0.67187,-0.79684 -0.48438,-0.29687 -1.14063,-0.29687 -1.04687,0 -1.8125,0.67184 -0.75,0.65625 -0.75,2.51562 v 5.28125 z m 10.37571,0 v -9.67184 h 1.46875 v 1.375 q 1.0625,-1.59375 3.07813,-1.59375 0.875,0 1.60937,0.3125 0.73438,0.3125 1.09375,0.82813 0.375,0.5 0.51563,1.20309 0.0937,0.45312 0.0937,1.59375 v 5.95312 h -1.64063 v -5.89062 q 0,-1 -0.20312,-1.48438 -0.1875,-0.5 -0.67188,-0.79684 -0.48437,-0.29687 -1.14062,-0.29687 -1.04688,0 -1.8125,0.67184 -0.75,0.65625 -0.75,2.51562 v 5.28125 z M 203.77435,508.53 v -1.89063 h 1.64063 V 508.53 Z m 0,11.46871 v -9.67184 h 1.64063 v 9.67184 z m 4.53545,0 v -8.40621 h -1.45313 v -1.26563 h 1.45313 v -1.03125 q 0,-0.96875 0.17187,-1.45312 0.23438,-0.64063 0.82813,-1.03125 0.59375,-0.39063 1.67187,-0.39063 0.6875,0 1.53125,0.15625 l -0.25,1.4375 q -0.5,-0.0937 -0.95312,-0.0937 -0.75,0 -1.0625,0.32813 -0.3125,0.3125 -0.3125,1.1875 v 0.89062 h 1.89062 v 1.26563 h -1.89062 v 8.40621 z m 11.41768,-3.10937 1.6875,0.20312 q -0.40625,1.48438 -1.48438,2.3125 -1.07812,0.8125 -2.76562,0.8125 -2.125,0 -3.375,-1.29687 -1.23438,-1.3125 -1.23438,-3.67188 0,-2.45312 1.25,-3.79684 1.26563,-1.34375 3.26563,-1.34375 1.9375,0 3.15625,1.32813 1.23437,1.31246 1.23437,3.70309 0,0.15625 0,0.4375 h -7.21875 q 0.0937,1.59375 0.90625,2.45312 0.8125,0.84375 2.01563,0.84375 0.90625,0 1.54687,-0.46875 0.64063,-0.48437 1.01563,-1.51562 z m -5.39063,-2.65625 h 5.40625 q -0.10937,-1.21875 -0.625,-1.82813 -0.78125,-0.95309 -2.03125,-0.95309 -1.125,0 -1.90625,0.76559 -0.76562,0.75 -0.84375,2.01563 z m 9.12572,5.76562 v -9.67184 h 1.46875 v 1.46875 q 0.5625,-1.03125 1.03125,-1.35937 0.48437,-0.32813 1.0625,-0.32813 0.82812,0 1.6875,0.53125 l -0.5625,1.51559 q -0.60938,-0.35934 -1.20313,-0.35934 -0.54687,0 -0.96875,0.32809 -0.42187,0.32813 -0.60937,0.89063 -0.28125,0.875 -0.28125,1.92187 v 5.0625 z"
       fill-rule="nonzero"
       id="path25" />
    <path
       fill="#ffffff"
       d="m 124.30965,513.07874 v 0 c 0,-9.51495 7.71341,-17.22833 17.22834,-17.22833 v 0 c 4.56925,0 8.95134,1.81512 12.18229,5.04605 3.23094,3.23095 5.04606,7.61304 5.04606,12.18228 v 0 c 0,9.51495 -7.71339,17.22833 -17.22835,17.22833 v 0 c -9.51493,0 -17.22834,-7.71338 -17.22834,-17.22833 z"
       fill-rule="evenodd"
       id="path26" />
    <path
       fill="#a4c2f4"
       d="m 343.10135,426.71783 v 0 c 0,-3.8782 3.14389,-7.02209 7.02209,-7.02209 h 61.04242 c 1.86237,0 3.64847,0.73983 4.9654,2.05673 1.31689,1.31689 2.0567,3.10299 2.0567,4.96536 v 86.58575 c 0,3.87818 -3.14389,7.0221 -7.0221,7.0221 h -61.04242 c -3.8782,0 -7.02209,-3.14392 -7.02209,-7.0221 z"
       fill-rule="evenodd"
       id="path27" />
    <path
       stroke="#0000ff"
       stroke-width="1"
       stroke-linejoin="round"
       stroke-linecap="butt"
       d="m 343.10135,426.71783 v 0 c 0,-3.8782 3.14389,-7.02209 7.02209,-7.02209 h 61.04242 c 1.86237,0 3.64847,0.73983 4.9654,2.05673 1.31689,1.31689 2.0567,3.10299 2.0567,4.96536 v 86.58575 c 0,3.87818 -3.14389,7.0221 -7.0221,7.0221 h -61.04242 c -3.8782,0 -7.02209,-3.14392 -7.02209,-7.0221 z"
       fill-rule="evenodd"
       id="path28" />
    <path
       fill="#000000"
       d="m 363.73618,443.55243 h -2.09375 l -0.84375,-2.17187 h -3.8125 l -0.78125,2.17187 h -2.04688 l 3.71875,-9.54687 h 2.03125 z m -3.54688,-3.78125 -1.3125,-3.53125 -1.29687,3.53125 z m 10.57828,-1.09375 -1.79687,0.32813 q -0.0937,-0.53125 -0.42188,-0.79688 -0.32812,-0.28125 -0.82812,-0.28125 -0.6875,0 -1.09375,0.46875 -0.40625,0.46875 -0.40625,1.57813 0,1.23437 0.40625,1.75 0.42187,0.5 1.10937,0.5 0.53125,0 0.85938,-0.29688 0.32812,-0.29687 0.46875,-1.03125 l 1.79687,0.3125 q -0.28125,1.23438 -1.07812,1.875 -0.79688,0.625 -2.125,0.625 -1.51563,0 -2.42188,-0.95312 -0.90625,-0.95313 -0.90625,-2.65625 0,-1.70313 0.90625,-2.65625 0.90625,-0.95313 2.45313,-0.95313 1.26562,0 2,0.54688 0.75,0.53125 1.07812,1.64062 z m 5.38123,2.67188 1.82812,0.3125 q -0.34375,1 -1.10937,1.53125 -0.76563,0.51562 -1.89063,0.51562 -1.8125,0 -2.67187,-1.17187 -0.6875,-0.95313 -0.6875,-2.39063 0,-1.71875 0.89062,-2.6875 0.90625,-0.96875 2.28125,-0.96875 1.54688,0 2.4375,1.01563 0.89063,1.01562 0.84375,3.125 h -4.57812 q 0.0156,0.8125 0.4375,1.26562 0.42187,0.45313 1.0625,0.45313 0.42187,0 0.71875,-0.23438 0.29687,-0.23437 0.4375,-0.76562 z m 0.10937,-1.84375 q -0.0156,-0.79688 -0.40625,-1.20313 -0.39062,-0.42187 -0.95312,-0.42187 -0.59375,0 -0.98438,0.4375 -0.39062,0.4375 -0.39062,1.1875 z m 6.58423,0.5 q 0,-0.92188 0.45313,-1.76563 0.45312,-0.85937 1.26562,-1.29687 0.82813,-0.45313 1.84375,-0.45313 1.5625,0 2.5625,1.01563 1.01563,1.01562 1.01563,2.57812 0,1.5625 -1.01563,2.59375 -1.01562,1.03125 -2.54687,1.03125 -0.95313,0 -1.8125,-0.42187 -0.85938,-0.4375 -1.3125,-1.26563 -0.45313,-0.82812 -0.45313,-2.01562 z m 1.875,0.0937 q 0,1.03125 0.48438,1.57812 0.5,0.54688 1.20312,0.54688 0.71875,0 1.20313,-0.54688 0.48437,-0.54687 0.48437,-1.59375 0,-1.01562 -0.48437,-1.5625 -0.48438,-0.54687 -1.20313,-0.54687 -0.70312,0 -1.20312,0.54687 -0.48438,0.54688 -0.48438,1.57813 z m 5.89136,-3.45313 h 1.01562 v -0.53125 q 0,-0.85937 0.1875,-1.28125 0.1875,-0.4375 0.67188,-0.70312 0.5,-0.28125 1.26562,-0.28125 0.78125,0 1.53125,0.23437 l -0.25,1.28125 q -0.4375,-0.10937 -0.84375,-0.10937 -0.39062,0 -0.5625,0.1875 -0.17187,0.1875 -0.17187,0.70312 v 0.5 h 1.35937 v 1.4375 h -1.35937 v 5.46875 h -1.82813 v -5.46875 h -1.01562 z"
       fill-rule="nonzero"
       id="path29" />
    <path
       fill="#000000"
       d="m 355.1268,459.55243 v -9.54687 h 1.9375 v 3.76562 h 3.76562 v -3.76562 h 1.9375 v 9.54687 h -1.9375 v -4.17187 h -3.76562 v 4.17187 z m 13.60953,-2.20312 1.82812,0.3125 q -0.34375,1 -1.10937,1.53125 -0.76563,0.51562 -1.89063,0.51562 -1.8125,0 -2.67187,-1.17187 -0.6875,-0.95313 -0.6875,-2.39063 0,-1.71875 0.89062,-2.6875 0.90625,-0.96875 2.28125,-0.96875 1.54688,0 2.4375,1.01563 0.89063,1.01562 0.84375,3.125 h -4.57812 q 0.0156,0.8125 0.4375,1.26562 0.42187,0.45313 1.0625,0.45313 0.42187,0 0.71875,-0.23438 0.29687,-0.23437 0.4375,-0.76562 z m 0.10937,-1.84375 q -0.0156,-0.79688 -0.40625,-1.20313 -0.39062,-0.42187 -0.95312,-0.42187 -0.59375,0 -0.98438,0.4375 -0.39062,0.4375 -0.39062,1.1875 z m 4.6781,-0.75 -1.67187,-0.3125 q 0.28125,-1 0.96875,-1.46875 0.6875,-0.48438 2.03125,-0.48438 1.21875,0 1.8125,0.29688 0.60937,0.28125 0.84375,0.73437 0.25,0.4375 0.25,1.625 l -0.0156,2.14063 q 0,0.90625 0.0781,1.34375 0.0937,0.42187 0.34375,0.92187 h -1.8125 q -0.0781,-0.1875 -0.17188,-0.54687 -0.0469,-0.15625 -0.0781,-0.20313 -0.46875,0.45313 -1,0.6875 -0.53125,0.21875 -1.14063,0.21875 -1.0625,0 -1.6875,-0.57812 -0.60937,-0.57813 -0.60937,-1.46875 0,-0.57813 0.28125,-1.03125 0.28125,-0.46875 0.78125,-0.70313 0.51562,-0.25 1.46875,-0.4375 1.28125,-0.23437 1.76562,-0.45312 v -0.17188 q 0,-0.53125 -0.26562,-0.75 -0.25,-0.23437 -0.96875,-0.23437 -0.48438,0 -0.76563,0.20312 -0.26562,0.1875 -0.4375,0.67188 z m 2.4375,1.48437 q -0.34375,0.10938 -1.10937,0.28125 -0.76563,0.15625 -1,0.3125 -0.35938,0.25 -0.35938,0.64063 0,0.39062 0.28125,0.67187 0.29688,0.28125 0.73438,0.28125 0.5,0 0.95312,-0.32812 0.32813,-0.25 0.4375,-0.60938 0.0625,-0.23437 0.0625,-0.89062 z m 5.34998,3.3125 h -1.82813 v -6.90625 h 1.70313 v 0.98438 q 0.4375,-0.70313 0.78125,-0.92188 0.34375,-0.21875 0.79687,-0.21875 0.625,0 1.20313,0.34375 l -0.5625,1.59375 q -0.46875,-0.29687 -0.85938,-0.29687 -0.39062,0 -0.65625,0.21875 -0.26562,0.20312 -0.42187,0.76562 -0.15625,0.54688 -0.15625,2.29688 z m 6.60867,-6.90625 v 1.45313 h -1.25 v 2.78125 q 0,0.84375 0.0312,0.98437 0.0469,0.14063 0.17188,0.23438 0.125,0.0937 0.3125,0.0937 0.25,0 0.73437,-0.17188 l 0.15625,1.42188 q -0.64062,0.26562 -1.45312,0.26562 -0.48438,0 -0.89063,-0.15625 -0.39062,-0.17187 -0.57812,-0.4375 -0.1875,-0.26562 -0.26563,-0.71875 -0.0469,-0.3125 -0.0469,-1.28125 v -3.01562 H 383.998 v -1.45313 h 0.84375 v -1.375 l 1.82812,-1.07812 v 2.45312 z m 0.62586,4.9375 1.82812,-0.28125 q 0.125,0.53125 0.48438,0.8125 0.35937,0.26563 1,0.26563 0.70312,0 1.0625,-0.25 0.25,-0.1875 0.25,-0.48438 0,-0.21875 -0.14063,-0.35937 -0.125,-0.125 -0.60937,-0.23438 -2.20313,-0.48437 -2.79688,-0.89062 -0.82812,-0.5625 -0.82812,-1.5625 0,-0.89063 0.70312,-1.5 0.71875,-0.60938 2.20313,-0.60938 1.42187,0 2.10937,0.46875 0.70313,0.45313 0.95313,1.35938 l -1.71875,0.3125 q -0.10938,-0.40625 -0.42188,-0.60938 -0.3125,-0.21875 -0.89062,-0.21875 -0.71875,0 -1.03125,0.20313 -0.20313,0.14062 -0.20313,0.35937 0,0.20313 0.1875,0.34375 0.23438,0.17188 1.6875,0.51563 1.46875,0.32812 2.0625,0.8125 0.5625,0.48437 0.5625,1.35937 0,0.95313 -0.79687,1.64063 -0.78125,0.67187 -2.34375,0.67187 -1.40625,0 -2.23438,-0.5625 -0.82812,-0.57812 -1.07812,-1.5625 z"
       fill-rule="nonzero"
       id="path30" />
    <path
       fill="#000000"
       fill-opacity="0"
       d="m 700.6142,67.385826 h 75.08661 V 181.2441 H 700.6142 Z"
       fill-rule="evenodd"
       id="path31" />
    <path
       stroke="#999999"
       stroke-width="2"
       stroke-linejoin="round"
       stroke-linecap="butt"
       stroke-dasharray="8, 6"
       d="m 700.6142,67.385826 h 75.08661 V 181.2441 H 700.6142 Z"
       fill-rule="evenodd"
       id="path32" />
    <path
       fill="#000000"
       d="m 719.02045,87.7302 1.51562,0.375 q -0.46875,1.875 -1.71875,2.859375 -1.23437,0.984375 -3.01562,0.984375 -1.85938,0 -3.01563,-0.75 -1.15625,-0.765625 -1.76562,-2.1875 -0.60938,-1.4375 -0.60938,-3.078125 0,-1.796875 0.6875,-3.125 0.6875,-1.328125 1.9375,-2.015625 1.26563,-0.703125 2.78125,-0.703125 1.71875,0 2.89063,0.875 1.17187,0.875 1.64062,2.46875 l -1.5,0.34375 q -0.39062,-1.25 -1.15625,-1.8125 -0.75,-0.578125 -1.90625,-0.578125 -1.3125,0 -2.20312,0.640625 -0.89063,0.625 -1.25,1.703125 -0.35938,1.0625 -0.35938,2.1875 0,1.46875 0.42188,2.5625 0.4375,1.078125 1.32812,1.625 0.90625,0.53125 1.95313,0.53125 1.26562,0 2.14062,-0.734375 0.89063,-0.734375 1.20313,-2.171875 z m 2.67969,-0.140625 q 0,-2.296875 1.28125,-3.40625 1.07812,-0.921875 2.60937,-0.921875 1.71875,0 2.79688,1.125 1.09375,1.109375 1.09375,3.09375 0,1.59375 -0.48438,2.515625 -0.48437,0.921875 -1.40625,1.4375 -0.90625,0.5 -2,0.5 -1.73437,0 -2.8125,-1.109375 -1.07812,-1.125 -1.07812,-3.234375 z m 1.45312,0 q 0,1.59375 0.6875,2.390625 0.70313,0.796875 1.75,0.796875 1.04688,0 1.73438,-0.796875 0.70312,-0.796875 0.70312,-2.4375 0,-1.53125 -0.70312,-2.328125 -0.6875,-0.796875 -1.73438,-0.796875 -1.04687,0 -1.75,0.796875 -0.6875,0.78125 -0.6875,2.375 z m 7.97656,-5.6875 V 80.2927 h 1.40625 v 1.609375 z m 0,9.84375 V 83.44895 h 1.40625 v 8.296875 z m 3.55469,0 V 83.44895 h 1.26563 v 1.171875 q 0.90625,-1.359375 2.64062,-1.359375 0.75,0 1.375,0.265625 0.625,0.265625 0.9375,0.703125 0.3125,0.4375 0.4375,1.046875 0.0781,0.390625 0.0781,1.359375 v 5.109375 h -1.40625 V 86.69895 q 0,-0.859375 -0.17188,-1.28125 -0.15625,-0.4375 -0.57812,-0.6875 -0.40625,-0.25 -0.96875,-0.25 -0.90625,0 -1.5625,0.578125 -0.64063,0.5625 -0.64063,2.15625 v 4.53125 z m 8.33594,-2.484375 1.39062,-0.21875 q 0.10938,0.84375 0.64063,1.296875 0.54687,0.4375 1.5,0.4375 0.96875,0 1.4375,-0.390625 0.46875,-0.40625 0.46875,-0.9375 0,-0.46875 -0.40625,-0.75 -0.29688,-0.1875 -1.4375,-0.46875 -1.54688,-0.390625 -2.15625,-0.671875 -0.59375,-0.296875 -0.90625,-0.796875 -0.29688,-0.5 -0.29688,-1.109375 0,-0.5625 0.25,-1.03125 0.25,-0.46875 0.6875,-0.78125 0.32813,-0.25 0.89063,-0.40625 0.57812,-0.171875 1.21875,-0.171875 0.98437,0 1.71875,0.28125 0.73437,0.28125 1.07812,0.765625 0.35938,0.46875 0.5,1.28125 l -1.375,0.1875 q -0.0937,-0.640625 -0.54687,-1 -0.45313,-0.359375 -1.26563,-0.359375 -0.96875,0 -1.39062,0.328125 -0.40625,0.3125 -0.40625,0.734375 0,0.28125 0.17187,0.5 0.17188,0.21875 0.53125,0.375 0.21875,0.07813 1.25,0.359375 1.48438,0.390625 2.07813,0.65625 0.59375,0.25 0.92187,0.734375 0.34375,0.484375 0.34375,1.203125 0,0.703125 -0.42187,1.328125 -0.40625,0.609375 -1.1875,0.953125 -0.76563,0.34375 -1.73438,0.34375 -1.625,0 -2.46875,-0.671875 -0.84375,-0.671875 -1.07812,-2 z"
       fill-rule="nonzero"
       id="path33" />
    <path
       fill="#000000"
       fill-opacity="0"
       d="M 279.6929,67.385826 H 680.16534 V 181.2441 H 279.6929 Z"
       fill-rule="evenodd"
       id="path34" />
    <path
       stroke="#999999"
       stroke-width="2"
       stroke-linejoin="round"
       stroke-linecap="butt"
       stroke-dasharray="8, 6"
       d="M 279.6929,67.385826 H 680.16534 V 181.2441 H 279.6929 Z"
       fill-rule="evenodd"
       id="path35" />
    <path
       fill="#000000"
       d="M 289.97415,91.74583 V 80.292705 h 1.51562 v 4.703125 h 5.95313 v -4.703125 h 1.51562 V 91.74583 h -1.51562 v -5.40625 h -5.95313 v 5.40625 z m 16.74219,-1.03125 q -0.78125,0.671875 -1.5,0.953125 -0.71875,0.265625 -1.54688,0.265625 -1.375,0 -2.10937,-0.671875 -0.73438,-0.671875 -0.73438,-1.703125 0,-0.609375 0.28125,-1.109375 0.28125,-0.515625 0.71875,-0.8125 0.45313,-0.3125 1.01563,-0.46875 0.42187,-0.109375 1.25,-0.203125 1.70312,-0.203125 2.51562,-0.484375 0,-0.296875 0,-0.375 0,-0.859375 -0.39062,-1.203125 -0.54688,-0.484375 -1.60938,-0.484375 -0.98437,0 -1.46875,0.359375 -0.46875,0.34375 -0.6875,1.21875 l -1.375,-0.1875 q 0.1875,-0.875 0.60938,-1.421875 0.4375,-0.546875 1.25,-0.828125 0.8125,-0.296875 1.875,-0.296875 1.0625,0 1.71875,0.25 0.67187,0.25 0.98437,0.625 0.3125,0.375 0.4375,0.953125 0.0781,0.359375 0.0781,1.296875 v 1.875 q 0,1.96875 0.0781,2.484375 0.0937,0.515625 0.35938,1 h -1.46875 q -0.21875,-0.4375 -0.28125,-1.03125 z m -0.10938,-3.140625 q -0.76562,0.3125 -2.29687,0.53125 -0.875,0.125 -1.23438,0.28125 -0.35937,0.15625 -0.5625,0.46875 -0.1875,0.296875 -0.1875,0.65625 0,0.5625 0.42188,0.9375 0.4375,0.375 1.25,0.375 0.8125,0 1.4375,-0.34375 0.64062,-0.359375 0.9375,-0.984375 0.23437,-0.46875 0.23437,-1.40625 z m 3.60157,4.171875 v -8.296875 h 1.26562 v 1.171875 q 0.90625,-1.359375 2.64063,-1.359375 0.75,0 1.375,0.265625 0.625,0.265625 0.9375,0.703125 0.3125,0.4375 0.4375,1.046875 0.0781,0.390625 0.0781,1.359375 v 5.109375 h -1.40625 v -5.046875 q 0,-0.859375 -0.17187,-1.28125 -0.15625,-0.4375 -0.57813,-0.6875 -0.40625,-0.25 -0.96875,-0.25 -0.90625,0 -1.5625,0.578125 -0.64062,0.5625 -0.64062,2.15625 v 4.53125 z m 14.27343,0 v -1.046875 q -0.78125,1.234375 -2.3125,1.234375 -1,0 -1.82812,-0.546875 -0.82813,-0.546875 -1.29688,-1.53125 -0.45312,-0.984375 -0.45312,-2.25 0,-1.25 0.40625,-2.25 0.42187,-1.015625 1.25,-1.546875 0.82812,-0.546875 1.85937,-0.546875 0.75,0 1.32813,0.3125 0.59375,0.3125 0.95312,0.828125 v -4.109375 h 1.40625 V 91.74583 Z m -4.4375,-4.140625 q 0,1.59375 0.67188,2.390625 0.67187,0.78125 1.57812,0.78125 0.92188,0 1.5625,-0.75 0.65625,-0.765625 0.65625,-2.3125 0,-1.703125 -0.65625,-2.5 -0.65625,-0.796875 -1.625,-0.796875 -0.9375,0 -1.5625,0.765625 -0.625,0.765625 -0.625,2.421875 z"
       fill-rule="nonzero"
       id="path36" />
    <path
       fill="#a4c2f4"
       d="m 428.33234,426.71783 v 0 c 0,-3.8782 3.14389,-7.02209 7.02209,-7.02209 h 61.04242 c 1.86237,0 3.64847,0.73983 4.96537,2.05673 1.31689,1.31689 2.05673,3.10299 2.05673,4.96536 v 86.58575 c 0,3.87818 -3.14392,7.0221 -7.0221,7.0221 h -61.04242 c -3.8782,0 -7.02209,-3.14392 -7.02209,-7.0221 z"
       fill-rule="evenodd"
       id="path37" />
    <path
       stroke="#0000ff"
       stroke-width="1"
       stroke-linejoin="round"
       stroke-linecap="butt"
       d="m 428.33234,426.71783 v 0 c 0,-3.8782 3.14389,-7.02209 7.02209,-7.02209 h 61.04242 c 1.86237,0 3.64847,0.73983 4.96537,2.05673 1.31689,1.31689 2.05673,3.10299 2.05673,4.96536 v 86.58575 c 0,3.87818 -3.14392,7.0221 -7.0221,7.0221 h -61.04242 c -3.8782,0 -7.02209,-3.14392 -7.02209,-7.0221 z"
       fill-rule="evenodd"
       id="path38" />
    <path
       fill="#000000"
       d="m 442.51404,443.55243 v -7.92187 h -2.84375 v -1.625 h 7.59375 v 1.625 h -2.82812 v 7.92187 z m 6.27676,0 -2.1875,-6.90625 h 1.76563 l 1.29687,4.53125 1.20313,-4.53125 h 1.75 l 1.15625,4.53125 1.32812,-4.53125 h 1.79688 l -2.21875,6.90625 h -1.75 l -1.20313,-4.4375 -1.17187,4.4375 z m 8.64832,-3.54687 q 0,-0.92188 0.45312,-1.76563 0.45313,-0.85937 1.26563,-1.29687 0.82812,-0.45313 1.84375,-0.45313 1.5625,0 2.5625,1.01563 1.01562,1.01562 1.01562,2.57812 0,1.5625 -1.01562,2.59375 -1.01563,1.03125 -2.54688,1.03125 -0.95312,0 -1.8125,-0.42187 -0.85937,-0.4375 -1.3125,-1.26563 -0.45312,-0.82812 -0.45312,-2.01562 z m 1.875,0.0937 q 0,1.03125 0.48437,1.57812 0.5,0.54688 1.20313,0.54688 0.71875,0 1.20312,-0.54688 0.48438,-0.54687 0.48438,-1.59375 0,-1.01562 -0.48438,-1.5625 -0.48437,-0.54687 -1.20312,-0.54687 -0.70313,0 -1.20313,0.54687 -0.48437,0.54688 -0.48437,1.57813 z m 9.96933,-0.0937 q 0,-0.92188 0.45312,-1.76563 0.45313,-0.85937 1.26563,-1.29687 0.82812,-0.45313 1.84375,-0.45313 1.5625,0 2.5625,1.01563 1.01562,1.01562 1.01562,2.57812 0,1.5625 -1.01562,2.59375 -1.01563,1.03125 -2.54688,1.03125 -0.95312,0 -1.8125,-0.42187 -0.85937,-0.4375 -1.3125,-1.26563 -0.45312,-0.82812 -0.45312,-2.01562 z m 1.875,0.0937 q 0,1.03125 0.48437,1.57812 0.5,0.54688 1.20313,0.54688 0.71875,0 1.20312,-0.54688 0.48438,-0.54687 0.48438,-1.59375 0,-1.01562 -0.48438,-1.5625 -0.48437,-0.54687 -1.20312,-0.54687 -0.70313,0 -1.20313,0.54687 -0.48437,0.54688 -0.48437,1.57813 z m 5.89136,-3.45313 h 1.01562 v -0.53125 q 0,-0.85937 0.1875,-1.28125 0.1875,-0.4375 0.67188,-0.70312 0.5,-0.28125 1.26562,-0.28125 0.78125,0 1.53125,0.23437 l -0.25,1.28125 q -0.4375,-0.10937 -0.84375,-0.10937 -0.39062,0 -0.5625,0.1875 -0.17187,0.1875 -0.17187,0.70312 v 0.5 h 1.35937 v 1.4375 h -1.35937 v 5.46875 h -1.82813 v -5.46875 h -1.01562 z"
       fill-rule="nonzero"
       id="path39" />
    <path
       fill="#000000"
       d="m 446.3734,454.67743 -1.79688,0.32813 q -0.0937,-0.53125 -0.42187,-0.79688 -0.32813,-0.28125 -0.82813,-0.28125 -0.6875,0 -1.09375,0.46875 -0.40625,0.46875 -0.40625,1.57813 0,1.23437 0.40625,1.75 0.42188,0.5 1.10938,0.5 0.53125,0 0.85937,-0.29688 0.32813,-0.29687 0.46875,-1.03125 l 1.79688,0.3125 q -0.28125,1.23438 -1.07813,1.875 -0.79687,0.625 -2.125,0.625 -1.51562,0 -2.42187,-0.95312 -0.90625,-0.95313 -0.90625,-2.65625 0,-1.70313 0.90625,-2.65625 0.90625,-0.95313 2.45312,-0.95313 1.26563,0 2,0.54688 0.75,0.53125 1.07813,1.64062 z m 1.38123,4.875 v -9.54687 h 1.82812 v 9.54687 z m 8.24984,0 v -1.03125 q -0.375,0.54688 -1,0.875 -0.60937,0.3125 -1.28125,0.3125 -0.70312,0 -1.26562,-0.29687 -0.54688,-0.3125 -0.79688,-0.85938 -0.23437,-0.5625 -0.23437,-1.53125 v -4.375 h 1.82812 v 3.17188 q 0,1.45312 0.0937,1.78125 0.10938,0.32812 0.375,0.53125 0.26563,0.1875 0.67188,0.1875 0.46875,0 0.84375,-0.25 0.375,-0.26563 0.5,-0.64063 0.14062,-0.39062 0.14062,-1.875 v -2.90625 h 1.82813 v 6.90625 z m 3.51636,0 v -9.54687 h 1.82812 v 3.4375 q 0.84375,-0.95313 2.01563,-0.95313 1.25,0 2.07812,0.92188 0.82813,0.90625 0.82813,2.60937 0,1.78125 -0.84375,2.73438 -0.84375,0.95312 -2.04688,0.95312 -0.59375,0 -1.17187,-0.29687 -0.5625,-0.29688 -0.98438,-0.875 v 1.01562 z m 1.8125,-3.60937 q 0,1.07812 0.34375,1.59375 0.46875,0.73437 1.26562,0.73437 0.60938,0 1.03125,-0.51562 0.42188,-0.53125 0.42188,-1.64063 0,-1.1875 -0.4375,-1.70312 -0.42188,-0.53125 -1.09375,-0.53125 -0.65625,0 -1.09375,0.51562 -0.4375,0.51563 -0.4375,1.54688 z m 5.76636,1.64062 1.82812,-0.28125 q 0.125,0.53125 0.48438,0.8125 0.35937,0.26563 1,0.26563 0.70312,0 1.0625,-0.25 0.25,-0.1875 0.25,-0.48438 0,-0.21875 -0.14063,-0.35937 -0.125,-0.125 -0.60937,-0.23438 -2.20313,-0.48437 -2.79688,-0.89062 -0.82812,-0.5625 -0.82812,-1.5625 0,-0.89063 0.70312,-1.5 0.71875,-0.60938 2.20313,-0.60938 1.42187,0 2.10937,0.46875 0.70313,0.45313 0.95313,1.35938 l -1.71875,0.3125 q -0.10938,-0.40625 -0.42188,-0.60938 -0.3125,-0.21875 -0.89062,-0.21875 -0.71875,0 -1.03125,0.20313 -0.20313,0.14062 -0.20313,0.35937 0,0.20313 0.1875,0.34375 0.23438,0.17188 1.6875,0.51563 1.46875,0.32812 2.0625,0.8125 0.5625,0.48437 0.5625,1.35937 0,0.95313 -0.79687,1.64063 -0.78125,0.67187 -2.34375,0.67187 -1.40625,0 -2.23438,-0.5625 -0.82812,-0.57812 -1.07812,-1.5625 z"
       fill-rule="nonzero"
       id="path40" />
    <path
       fill="#a4c2f4"
       d="m 343.10135,81.0223 v 0 c 0,-3.878197 3.14389,-7.022102 7.02209,-7.022102 h 61.04242 c 1.86237,0 3.64847,0.73983 4.9654,2.056732 1.31689,1.316894 2.0567,3.102997 2.0567,4.96537 v 86.58572 c 0,3.8782 -3.14389,7.02211 -7.0221,7.02211 h -61.04242 c -3.8782,0 -7.02209,-3.14391 -7.02209,-7.02211 z"
       fill-rule="evenodd"
       id="path41" />
    <path
       stroke="#0000ff"
       stroke-width="1"
       stroke-linejoin="round"
       stroke-linecap="butt"
       d="m 343.10135,81.0223 v 0 c 0,-3.878197 3.14389,-7.022102 7.02209,-7.022102 h 61.04242 c 1.86237,0 3.64847,0.73983 4.9654,2.056732 1.31689,1.316894 2.0567,3.102997 2.0567,4.96537 v 86.58572 c 0,3.8782 -3.14389,7.02211 -7.0221,7.02211 h -61.04242 c -3.8782,0 -7.02209,-3.14391 -7.02209,-7.02211 z"
       fill-rule="evenodd"
       id="path42" />
    <path
       fill="#a4c2f4"
       d="m 428.33234,81.0223 v 0 c 0,-3.878197 3.14389,-7.022102 7.02209,-7.022102 h 61.04242 c 1.86237,0 3.64847,0.73983 4.96537,2.056732 1.31689,1.316894 2.05673,3.102997 2.05673,4.96537 v 86.58572 c 0,3.8782 -3.14392,7.02211 -7.0221,7.02211 h -61.04242 c -3.8782,0 -7.02209,-3.14391 -7.02209,-7.02211 z"
       fill-rule="evenodd"
       id="path43" />
    <path
       stroke="#0000ff"
       stroke-width="1"
       stroke-linejoin="round"
       stroke-linecap="butt"
       d="m 428.33234,81.0223 v 0 c 0,-3.878197 3.14389,-7.022102 7.02209,-7.022102 h 61.04242 c 1.86237,0 3.64847,0.73983 4.96537,2.056732 1.31689,1.316894 2.05673,3.102997 2.05673,4.96537 v 86.58572 c 0,3.8782 -3.14392,7.02211 -7.0221,7.02211 h -61.04242 c -3.8782,0 -7.02209,-3.14391 -7.02209,-7.02211 z"
       fill-rule="evenodd"
       id="path44" />
    <path
       fill="#a4c2f4"
       d="m 353.2457,249.86876 v 0 c 0,-3.8782 3.14392,-7.02209 7.02213,-7.02209 h 61.04239 c 1.86239,0 3.64849,0.73982 4.96539,2.05671 1.31689,1.3169 2.05673,3.103 2.05673,4.96538 v 86.58571 c 0,3.8782 -3.14392,7.02213 -7.02212,7.02213 h -61.04239 c -3.87821,0 -7.02213,-3.14393 -7.02213,-7.02213 z"
       fill-rule="evenodd"
       id="path45" />
    <path
       stroke="#0000ff"
       stroke-width="1"
       stroke-linejoin="round"
       stroke-linecap="butt"
       d="m 353.2457,249.86876 v 0 c 0,-3.8782 3.14392,-7.02209 7.02213,-7.02209 h 61.04239 c 1.86239,0 3.64849,0.73982 4.96539,2.05671 1.31689,1.3169 2.05673,3.103 2.05673,4.96538 v 86.58571 c 0,3.8782 -3.14392,7.02213 -7.02212,7.02213 h -61.04239 c -3.87821,0 -7.02213,-3.14393 -7.02213,-7.02213 z"
       fill-rule="evenodd"
       id="path46" />
    <path
       fill="#a4c2f4"
       d="m 356.01495,252.63799 v 0 c 0,-3.87819 3.14389,-7.02209 7.02209,-7.02209 h 61.04242 c 1.86237,0 3.64847,0.73982 4.96537,2.05671 1.31689,1.31691 2.05673,3.10301 2.05673,4.96538 v 86.58574 c 0,3.87817 -3.14392,7.0221 -7.0221,7.0221 h -61.04242 c -3.8782,0 -7.02209,-3.14393 -7.02209,-7.0221 z"
       fill-rule="evenodd"
       id="path47" />
    <path
       stroke="#0000ff"
       stroke-width="1"
       stroke-linejoin="round"
       stroke-linecap="butt"
       d="m 356.01495,252.63799 v 0 c 0,-3.87819 3.14389,-7.02209 7.02209,-7.02209 h 61.04242 c 1.86237,0 3.64847,0.73982 4.96537,2.05671 1.31689,1.31691 2.05673,3.10301 2.05673,4.96538 v 86.58574 c 0,3.87817 -3.14392,7.0221 -7.0221,7.0221 h -61.04242 c -3.8782,0 -7.02209,-3.14393 -7.02209,-7.0221 z"
       fill-rule="evenodd"
       id="path48" />
    <path
       fill="#a4c2f4"
       d="m 716,159.47244 v 0 c 0,-4.63571 9.92023,-8.39371 22.15747,-8.39371 v 0 c 12.23724,0 22.15747,3.758 22.15747,8.39371 v 0 c 0,4.63571 -9.92023,8.39369 -22.15747,8.39369 v 0 C 725.92023,167.86613 716,164.10815 716,159.47244 Z"
       fill-rule="evenodd"
       id="path49" />
    <path
       stroke="#0000ff"
       stroke-width="1"
       stroke-linejoin="round"
       stroke-linecap="butt"
       d="m 716,159.47244 v 0 c 0,-4.63571 9.92023,-8.39371 22.15747,-8.39371 v 0 c 12.23724,0 22.15747,3.758 22.15747,8.39371 v 0 c 0,4.63571 -9.92023,8.39369 -22.15747,8.39369 v 0 C 725.92023,167.86613 716,164.10815 716,159.47244 Z"
       fill-rule="evenodd"
       id="path50" />
    <path
       fill="#a4c2f4"
       d="m 716,155.78014 v 0 c 0,-4.63571 9.92023,-8.39371 22.15747,-8.39371 v 0 c 12.23724,0 22.15747,3.758 22.15747,8.39371 v 0 c 0,4.63571 -9.92023,8.39369 -22.15747,8.39369 v 0 C 725.92023,164.17383 716,160.41585 716,155.78014 Z"
       fill-rule="evenodd"
       id="path51" />
    <path
       stroke="#0000ff"
       stroke-width="1"
       stroke-linejoin="round"
       stroke-linecap="butt"
       d="m 716,155.78014 v 0 c 0,-4.63571 9.92023,-8.39371 22.15747,-8.39371 v 0 c 12.23724,0 22.15747,3.758 22.15747,8.39371 v 0 c 0,4.63571 -9.92023,8.39369 -22.15747,8.39369 v 0 C 725.92023,164.17383 716,160.41585 716,155.78014 Z"
       fill-rule="evenodd"
       id="path52" />
    <path
       fill="#a4c2f4"
       d="m 716,152.08783 v 0 c 0,-4.63571 9.92023,-8.39371 22.15747,-8.39371 v 0 c 12.23724,0 22.15747,3.758 22.15747,8.39371 v 0 c 0,4.63571 -9.92023,8.39369 -22.15747,8.39369 v 0 C 725.92023,160.48152 716,156.72354 716,152.08783 Z"
       fill-rule="evenodd"
       id="path53" />
    <path
       stroke="#0000ff"
       stroke-width="1"
       stroke-linejoin="round"
       stroke-linecap="butt"
       d="m 716,152.08783 v 0 c 0,-4.63571 9.92023,-8.39371 22.15747,-8.39371 v 0 c 12.23724,0 22.15747,3.758 22.15747,8.39371 v 0 c 0,4.63571 -9.92023,8.39369 -22.15747,8.39369 v 0 C 725.92023,160.48152 716,156.72354 716,152.08783 Z"
       fill-rule="evenodd"
       id="path54" />
    <path
       fill="#a4c2f4"
       d="m 716,506.2344 v 0 c 0,-4.63571 9.92023,-8.39371 22.15747,-8.39371 v 0 c 12.23724,0 22.15747,3.758 22.15747,8.39371 v 0 c 0,4.63571 -9.92023,8.39371 -22.15747,8.39371 v 0 C 725.92023,514.62811 716,510.87011 716,506.2344 Z"
       fill-rule="evenodd"
       id="path55" />
    <path
       stroke="#0000ff"
       stroke-width="1"
       stroke-linejoin="round"
       stroke-linecap="butt"
       d="m 716,506.2344 v 0 c 0,-4.63571 9.92023,-8.39371 22.15747,-8.39371 v 0 c 12.23724,0 22.15747,3.758 22.15747,8.39371 v 0 c 0,4.63571 -9.92023,8.39371 -22.15747,8.39371 v 0 C 725.92023,514.62811 716,510.87011 716,506.2344 Z"
       fill-rule="evenodd"
       id="path56" />
    <path
       fill="#a4c2f4"
       d="m 716,502.54208 v 0 c 0,-4.63571 9.92023,-8.39368 22.15747,-8.39368 v 0 c 12.23724,0 22.15747,3.75797 22.15747,8.39368 v 0 c 0,4.63571 -9.92023,8.39371 -22.15747,8.39371 v 0 c -12.23724,0 -22.15747,-3.758 -22.15747,-8.39371 z"
       fill-rule="evenodd"
       id="path57" />
    <path
       stroke="#0000ff"
       stroke-width="1"
       stroke-linejoin="round"
       stroke-linecap="butt"
       d="m 716,502.54208 v 0 c 0,-4.63571 9.92023,-8.39368 22.15747,-8.39368 v 0 c 12.23724,0 22.15747,3.75797 22.15747,8.39368 v 0 c 0,4.63571 -9.92023,8.39371 -22.15747,8.39371 v 0 c -12.23724,0 -22.15747,-3.758 -22.15747,-8.39371 z"
       fill-rule="evenodd"
       id="path58" />
    <path
       fill="#a4c2f4"
       d="m 716,498.8498 v 0 c 0,-4.63571 9.92023,-8.39371 22.15747,-8.39371 v 0 c 12.23724,0 22.15747,3.758 22.15747,8.39371 v 0 c 0,4.63571 -9.92023,8.39371 -22.15747,8.39371 v 0 C 725.92023,507.24351 716,503.48551 716,498.8498 Z"
       fill-rule="evenodd"
       id="path59" />
    <path
       stroke="#0000ff"
       stroke-width="1"
       stroke-linejoin="round"
       stroke-linecap="butt"
       d="m 716,498.8498 v 0 c 0,-4.63571 9.92023,-8.39371 22.15747,-8.39371 v 0 c 12.23724,0 22.15747,3.758 22.15747,8.39371 v 0 c 0,4.63571 -9.92023,8.39371 -22.15747,8.39371 v 0 C 725.92023,507.24351 716,503.48551 716,498.8498 Z"
       fill-rule="evenodd"
       id="path60" />
    <path
       fill="#a4c2f4"
       d="m 359.70724,256.3303 v 0 c 0,-3.87819 3.14389,-7.02209 7.02209,-7.02209 h 61.04242 c 1.86237,0 3.64847,0.73982 4.96537,2.05673 1.31692,1.31689 2.05673,3.10299 2.05673,4.96536 v 86.58572 c 0,3.87821 -3.14389,7.0221 -7.0221,7.0221 h -61.04242 c -3.8782,0 -7.02209,-3.14389 -7.02209,-7.0221 z"
       fill-rule="evenodd"
       id="path61" />
    <path
       stroke="#0000ff"
       stroke-width="1"
       stroke-linejoin="round"
       stroke-linecap="butt"
       d="m 359.70724,256.3303 v 0 c 0,-3.87819 3.14389,-7.02209 7.02209,-7.02209 h 61.04242 c 1.86237,0 3.64847,0.73982 4.96537,2.05673 1.31692,1.31689 2.05673,3.10299 2.05673,4.96536 v 86.58572 c 0,3.87821 -3.14389,7.0221 -7.0221,7.0221 h -61.04242 c -3.8782,0 -7.02209,-3.14389 -7.02209,-7.0221 z"
       fill-rule="evenodd"
       id="path62" />
  </g>
</svg>
