<svg version="1.1" viewBox="0.0 0.0 502.5853018372703 503.4488188976378" fill="none" stroke="none" stroke-linecap="square" stroke-miterlimit="10" xmlns:xlink="http://www.w3.org/1999/xlink" xmlns="http://www.w3.org/2000/svg"><clipPath id="p.0"><path d="m0 0l502.5853 0l0 503.44882l-502.5853 0l0 -503.44882z" clip-rule="nonzero"/></clipPath><g clip-path="url(#p.0)"><path fill="#000000" fill-opacity="0.0" d="m0 0l502.5853 0l0 503.44882l-502.5853 0z" fill-rule="evenodd"/><path fill="#000000" fill-opacity="0.0" d="m68.207245 69.06931l61.32283 0l0 61.322838l-61.32283 0z" fill-rule="evenodd"/><path stroke="#000000" stroke-width="1.0" stroke-linejoin="round" stroke-linecap="butt" d="m68.207245 69.06931l61.32283 0l0 61.322838l-61.32283 0z" fill-rule="evenodd"/><path fill="#000000" fill-opacity="0.0" d="m129.51794 7.758621l61.32283 0l0 61.322838l-61.32283 0z" fill-rule="evenodd"/><path stroke="#000000" stroke-width="1.0" stroke-linejoin="round" stroke-linecap="butt" d="m129.51794 7.758621l61.32283 0l0 61.322838l-61.32283 0z" fill-rule="evenodd"/><path fill="#b7b7b7" d="m190.82864 7.758621l61.32283 0l0 61.322838l-61.32283 0z" fill-rule="evenodd"/><path stroke="#000000" stroke-width="1.0" stroke-linejoin="round" stroke-linecap="butt" d="m190.82864 7.758621l61.32283 0l0 61.322838l-61.32283 0z" fill-rule="evenodd"/><path fill="#000000" fill-opacity="0.0" d="m190.82864 69.06931l61.32283 0l0 61.322838l-61.32283 0z" fill-rule="evenodd"/><path stroke="#000000" stroke-width="1.0" stroke-linejoin="round" stroke-linecap="butt" d="m190.82864 69.06931l61.32283 0l0 61.322838l-61.32283 0z" fill-rule="evenodd"/><path fill="#b7b7b7" d="m129.51794 69.06931l61.32283 0l0 61.322838l-61.32283 0z" fill-rule="evenodd"/><path stroke="#000000" stroke-width="1.0" stroke-linejoin="round" stroke-linecap="butt" d="m129.51794 69.06931l61.32283 0l0 61.322838l-61.32283 0z" fill-rule="evenodd"/><path fill="#000000" fill-opacity="0.0" d="m6.896552 130.38l61.32283 0l0 61.322845l-61.32283 0z" fill-rule="evenodd"/><path stroke="#000000" stroke-width="1.0" stroke-linejoin="round" stroke-linecap="butt" d="m6.896552 130.38l61.32283 0l0 61.322845l-61.32283 0z" fill-rule="evenodd"/><path fill="#b7b7b7" d="m6.894912 69.06767l61.32283 0l0 61.322845l-61.32283 0z" fill-rule="evenodd"/><path stroke="#000000" stroke-width="1.0" stroke-linejoin="round" stroke-linecap="butt" d="m6.894912 69.06767l61.32283 0l0 61.322845l-61.32283 0z" fill-rule="evenodd"/><path fill="#000000" fill-opacity="0.0" d="m68.207245 191.6907l61.32283 0l0 61.322845l-61.32283 0z" fill-rule="evenodd"/><path stroke="#000000" stroke-width="1.0" stroke-linejoin="round" stroke-linecap="butt" d="m68.207245 191.6907l61.32283 0l0 61.322845l-61.32283 0z" fill-rule="evenodd"/><path fill="#b7b7b7" d="m6.896552 191.6907l61.32283 0l0 61.322845l-61.32283 0z" fill-rule="evenodd"/><path stroke="#000000" stroke-width="1.0" stroke-linejoin="round" stroke-linecap="butt" d="m6.896552 191.6907l61.32283 0l0 61.322845l-61.32283 0z" fill-rule="evenodd"/><path fill="#000000" fill-opacity="0.0" d="m129.51794 130.38l61.32283 0l0 61.322845l-61.32283 0z" fill-rule="evenodd"/><path stroke="#000000" stroke-width="1.0" stroke-linejoin="round" stroke-linecap="butt" d="m129.51794 130.38l61.32283 0l0 61.322845l-61.32283 0z" fill-rule="evenodd"/><path fill="#b7b7b7" d="m190.82864 130.38l61.32283 0l0 61.322845l-61.32283 0z" fill-rule="evenodd"/><path stroke="#000000" stroke-width="1.0" stroke-linejoin="round" stroke-linecap="butt" d="m190.82864 130.38l61.32283 0l0 61.322845l-61.32283 0z" fill-rule="evenodd"/><path fill="#000000" fill-opacity="0.0" d="m190.82864 191.6907l61.32283 0l0 61.322845l-61.32283 0z" fill-rule="evenodd"/><path stroke="#000000" stroke-width="1.0" stroke-linejoin="round" stroke-linecap="butt" d="m190.82864 191.6907l61.32283 0l0 61.322845l-61.32283 0z" fill-rule="evenodd"/><path fill="#b7b7b7" d="m129.51794 191.6907l61.32283 0l0 61.322845l-61.32283 0z" fill-rule="evenodd"/><path stroke="#000000" stroke-width="1.0" stroke-linejoin="round" stroke-linecap="butt" d="m129.51794 191.6907l61.32283 0l0 61.322845l-61.32283 0z" fill-rule="evenodd"/><path fill="#000000" fill-opacity="0.0" d="m252.13933 7.758621l61.32283 0l0 61.322838l-61.32283 0z" fill-rule="evenodd"/><path stroke="#000000" stroke-width="1.0" stroke-linejoin="round" stroke-linecap="butt" d="m252.13933 7.758621l61.32283 0l0 61.322838l-61.32283 0z" fill-rule="evenodd"/><path fill="#b7b7b7" d="m313.45004 7.758621l61.322815 0l0 61.322838l-61.322815 0z" fill-rule="evenodd"/><path stroke="#000000" stroke-width="1.0" stroke-linejoin="round" stroke-linecap="butt" d="m313.45004 7.758621l61.322815 0l0 61.322838l-61.322815 0z" fill-rule="evenodd"/><path fill="#000000" fill-opacity="0.0" d="m313.45004 69.06931l61.322815 0l0 61.322838l-61.322815 0z" fill-rule="evenodd"/><path stroke="#000000" stroke-width="1.0" stroke-linejoin="round" stroke-linecap="butt" d="m313.45004 69.06931l61.322815 0l0 61.322838l-61.322815 0z" fill-rule="evenodd"/><path fill="#b7b7b7" d="m252.13933 69.06931l61.32283 0l0 61.322838l-61.32283 0z" fill-rule="evenodd"/><path stroke="#000000" stroke-width="1.0" stroke-linejoin="round" stroke-linecap="butt" d="m252.13933 69.06931l61.32283 0l0 61.322838l-61.32283 0z" fill-rule="evenodd"/><path fill="#000000" fill-opacity="0.0" d="m374.7607 7.758621l61.322845 0l0 61.322838l-61.322845 0z" fill-rule="evenodd"/><path stroke="#000000" stroke-width="1.0" stroke-linejoin="round" stroke-linecap="butt" d="m374.7607 7.758621l61.322845 0l0 61.322838l-61.322845 0z" fill-rule="evenodd"/><path fill="#b7b7b7" d="m436.0714 7.758621l61.322845 0l0 61.322838l-61.322845 0z" fill-rule="evenodd"/><path stroke="#000000" stroke-width="1.0" stroke-linejoin="round" stroke-linecap="butt" d="m436.0714 7.758621l61.322845 0l0 61.322838l-61.322845 0z" fill-rule="evenodd"/><path fill="#000000" fill-opacity="0.0" d="m436.0714 69.06931l61.322845 0l0 61.322838l-61.322845 0z" fill-rule="evenodd"/><path stroke="#000000" stroke-width="1.0" stroke-linejoin="round" stroke-linecap="butt" d="m436.0714 69.06931l61.322845 0l0 61.322838l-61.322845 0z" fill-rule="evenodd"/><path fill="#b7b7b7" d="m374.7607 69.06931l61.322845 0l0 61.322838l-61.322845 0z" fill-rule="evenodd"/><path stroke="#000000" stroke-width="1.0" stroke-linejoin="round" stroke-linecap="butt" d="m374.7607 69.06931l61.322845 0l0 61.322838l-61.322845 0z" fill-rule="evenodd"/><path fill="#000000" fill-opacity="0.0" d="m252.13933 130.38l61.32283 0l0 61.322845l-61.32283 0z" fill-rule="evenodd"/><path stroke="#000000" stroke-width="1.0" stroke-linejoin="round" stroke-linecap="butt" d="m252.13933 130.38l61.32283 0l0 61.322845l-61.32283 0z" fill-rule="evenodd"/><path fill="#b7b7b7" d="m313.45004 130.38l61.322815 0l0 61.322845l-61.322815 0z" fill-rule="evenodd"/><path stroke="#000000" stroke-width="1.0" stroke-linejoin="round" stroke-linecap="butt" d="m313.45004 130.38l61.322815 0l0 61.322845l-61.322815 0z" fill-rule="evenodd"/><path fill="#000000" fill-opacity="0.0" d="m313.45004 191.6907l61.322815 0l0 61.322845l-61.322815 0z" fill-rule="evenodd"/><path stroke="#000000" stroke-width="1.0" stroke-linejoin="round" stroke-linecap="butt" d="m313.45004 191.6907l61.322815 0l0 61.322845l-61.322815 0z" fill-rule="evenodd"/><path fill="#b7b7b7" d="m252.13933 191.6907l61.32283 0l0 61.322845l-61.32283 0z" fill-rule="evenodd"/><path stroke="#000000" stroke-width="1.0" stroke-linejoin="round" stroke-linecap="butt" d="m252.13933 191.6907l61.32283 0l0 61.322845l-61.32283 0z" fill-rule="evenodd"/><path fill="#000000" fill-opacity="0.0" d="m374.7607 130.38l61.322845 0l0 61.322845l-61.322845 0z" fill-rule="evenodd"/><path stroke="#000000" stroke-width="1.0" stroke-linejoin="round" stroke-linecap="butt" d="m374.7607 130.38l61.322845 0l0 61.322845l-61.322845 0z" fill-rule="evenodd"/><path fill="#b7b7b7" d="m436.0714 130.38l61.322845 0l0 61.322845l-61.322845 0z" fill-rule="evenodd"/><path stroke="#000000" stroke-width="1.0" stroke-linejoin="round" stroke-linecap="butt" d="m436.0714 130.38l61.322845 0l0 61.322845l-61.322845 0z" fill-rule="evenodd"/><path fill="#000000" fill-opacity="0.0" d="m436.0714 191.6907l61.322845 0l0 61.322845l-61.322845 0z" fill-rule="evenodd"/><path stroke="#000000" stroke-width="1.0" stroke-linejoin="round" stroke-linecap="butt" d="m436.0714 191.6907l61.322845 0l0 61.322845l-61.322845 0z" fill-rule="evenodd"/><path fill="#b7b7b7" d="m374.7607 191.6907l61.322845 0l0 61.322845l-61.322845 0z" fill-rule="evenodd"/><path stroke="#000000" stroke-width="1.0" stroke-linejoin="round" stroke-linecap="butt" d="m374.7607 191.6907l61.322845 0l0 61.322845l-61.322845 0z" fill-rule="evenodd"/><path fill="#000000" fill-opacity="0.0" d="m6.896552 253.0014l61.32283 0l0 61.322845l-61.32283 0z" fill-rule="evenodd"/><path stroke="#000000" stroke-width="1.0" stroke-linejoin="round" stroke-linecap="butt" d="m6.896552 253.0014l61.32283 0l0 61.322845l-61.32283 0z" fill-rule="evenodd"/><path fill="#b7b7b7" d="m68.207245 253.0014l61.32283 0l0 61.322845l-61.32283 0z" fill-rule="evenodd"/><path stroke="#000000" stroke-width="1.0" stroke-linejoin="round" stroke-linecap="butt" d="m68.207245 253.0014l61.32283 0l0 61.322845l-61.32283 0z" fill-rule="evenodd"/><path fill="#000000" fill-opacity="0.0" d="m68.207245 314.3121l61.32283 0l0 61.322845l-61.32283 0z" fill-rule="evenodd"/><path stroke="#000000" stroke-width="1.0" stroke-linejoin="round" stroke-linecap="butt" d="m68.207245 314.3121l61.32283 0l0 61.322845l-61.32283 0z" fill-rule="evenodd"/><path fill="#b7b7b7" d="m6.896552 314.3121l61.32283 0l0 61.322845l-61.32283 0z" fill-rule="evenodd"/><path stroke="#000000" stroke-width="1.0" stroke-linejoin="round" stroke-linecap="butt" d="m6.896552 314.3121l61.32283 0l0 61.322845l-61.32283 0z" fill-rule="evenodd"/><path fill="#000000" fill-opacity="0.0" d="m129.51794 253.0014l61.32283 0l0 61.322845l-61.32283 0z" fill-rule="evenodd"/><path stroke="#000000" stroke-width="1.0" stroke-linejoin="round" stroke-linecap="butt" d="m129.51794 253.0014l61.32283 0l0 61.322845l-61.32283 0z" fill-rule="evenodd"/><path fill="#b7b7b7" d="m190.82864 253.0014l61.32283 0l0 61.322845l-61.32283 0z" fill-rule="evenodd"/><path stroke="#000000" stroke-width="1.0" stroke-linejoin="round" stroke-linecap="butt" d="m190.82864 253.0014l61.32283 0l0 61.322845l-61.32283 0z" fill-rule="evenodd"/><path fill="#000000" fill-opacity="0.0" d="m190.82864 314.3121l61.32283 0l0 61.322845l-61.32283 0z" fill-rule="evenodd"/><path stroke="#000000" stroke-width="1.0" stroke-linejoin="round" stroke-linecap="butt" d="m190.82864 314.3121l61.32283 0l0 61.322845l-61.32283 0z" fill-rule="evenodd"/><path fill="#b7b7b7" d="m129.51794 314.3121l61.32283 0l0 61.322845l-61.32283 0z" fill-rule="evenodd"/><path stroke="#000000" stroke-width="1.0" stroke-linejoin="round" stroke-linecap="butt" d="m129.51794 314.3121l61.32283 0l0 61.322845l-61.32283 0z" fill-rule="evenodd"/><path fill="#000000" fill-opacity="0.0" d="m6.896552 375.6228l61.32283 0l0 61.322815l-61.32283 0z" fill-rule="evenodd"/><path stroke="#000000" stroke-width="1.0" stroke-linejoin="round" stroke-linecap="butt" d="m6.896552 375.6228l61.32283 0l0 61.322815l-61.32283 0z" fill-rule="evenodd"/><path fill="#b7b7b7" d="m68.207245 375.6228l61.32283 0l0 61.322815l-61.32283 0z" fill-rule="evenodd"/><path stroke="#000000" stroke-width="1.0" stroke-linejoin="round" stroke-linecap="butt" d="m68.207245 375.6228l61.32283 0l0 61.322815l-61.32283 0z" fill-rule="evenodd"/><path fill="#000000" fill-opacity="0.0" d="m68.207245 436.9335l61.32283 0l0 61.322815l-61.32283 0z" fill-rule="evenodd"/><path stroke="#000000" stroke-width="1.0" stroke-linejoin="round" stroke-linecap="butt" d="m68.207245 436.9335l61.32283 0l0 61.322815l-61.32283 0z" fill-rule="evenodd"/><path fill="#b7b7b7" d="m6.896552 436.9335l61.32283 0l0 61.322815l-61.32283 0z" fill-rule="evenodd"/><path stroke="#000000" stroke-width="1.0" stroke-linejoin="round" stroke-linecap="butt" d="m6.896552 436.9335l61.32283 0l0 61.322815l-61.32283 0z" fill-rule="evenodd"/><path fill="#000000" fill-opacity="0.0" d="m129.51794 375.6228l61.32283 0l0 61.322815l-61.32283 0z" fill-rule="evenodd"/><path stroke="#000000" stroke-width="1.0" stroke-linejoin="round" stroke-linecap="butt" d="m129.51794 375.6228l61.32283 0l0 61.322815l-61.32283 0z" fill-rule="evenodd"/><path fill="#b7b7b7" d="m190.82864 375.6228l61.32283 0l0 61.322815l-61.32283 0z" fill-rule="evenodd"/><path stroke="#000000" stroke-width="1.0" stroke-linejoin="round" stroke-linecap="butt" d="m190.82864 375.6228l61.32283 0l0 61.322815l-61.32283 0z" fill-rule="evenodd"/><path fill="#000000" fill-opacity="0.0" d="m190.82864 436.9335l61.32283 0l0 61.322815l-61.32283 0z" fill-rule="evenodd"/><path stroke="#000000" stroke-width="1.0" stroke-linejoin="round" stroke-linecap="butt" d="m190.82864 436.9335l61.32283 0l0 61.322815l-61.32283 0z" fill-rule="evenodd"/><path fill="#b7b7b7" d="m129.51794 436.9335l61.32283 0l0 61.322815l-61.32283 0z" fill-rule="evenodd"/><path stroke="#000000" stroke-width="1.0" stroke-linejoin="round" stroke-linecap="butt" d="m129.51794 436.9335l61.32283 0l0 61.322815l-61.32283 0z" fill-rule="evenodd"/><path fill="#000000" fill-opacity="0.0" d="m252.13933 253.0014l61.32283 0l0 61.322845l-61.32283 0z" fill-rule="evenodd"/><path stroke="#000000" stroke-width="1.0" stroke-linejoin="round" stroke-linecap="butt" d="m252.13933 253.0014l61.32283 0l0 61.322845l-61.32283 0z" fill-rule="evenodd"/><path fill="#b7b7b7" d="m313.45004 253.0014l61.322815 0l0 61.322845l-61.322815 0z" fill-rule="evenodd"/><path stroke="#000000" stroke-width="1.0" stroke-linejoin="round" stroke-linecap="butt" d="m313.45004 253.0014l61.322815 0l0 61.322845l-61.322815 0z" fill-rule="evenodd"/><path fill="#000000" fill-opacity="0.0" d="m313.45004 314.3121l61.322815 0l0 61.322845l-61.322815 0z" fill-rule="evenodd"/><path stroke="#000000" stroke-width="1.0" stroke-linejoin="round" stroke-linecap="butt" d="m313.45004 314.3121l61.322815 0l0 61.322845l-61.322815 0z" fill-rule="evenodd"/><path fill="#b7b7b7" d="m252.13933 314.3121l61.32283 0l0 61.322845l-61.32283 0z" fill-rule="evenodd"/><path stroke="#000000" stroke-width="1.0" stroke-linejoin="round" stroke-linecap="butt" d="m252.13933 314.3121l61.32283 0l0 61.322845l-61.32283 0z" fill-rule="evenodd"/><path fill="#000000" fill-opacity="0.0" d="m374.7607 253.0014l61.322845 0l0 61.322845l-61.322845 0z" fill-rule="evenodd"/><path stroke="#000000" stroke-width="1.0" stroke-linejoin="round" stroke-linecap="butt" d="m374.7607 253.0014l61.322845 0l0 61.322845l-61.322845 0z" fill-rule="evenodd"/><path fill="#b7b7b7" d="m436.0714 253.0014l61.322845 0l0 61.322845l-61.322845 0z" fill-rule="evenodd"/><path stroke="#000000" stroke-width="1.0" stroke-linejoin="round" stroke-linecap="butt" d="m436.0714 253.0014l61.322845 0l0 61.322845l-61.322845 0z" fill-rule="evenodd"/><path fill="#000000" fill-opacity="0.0" d="m436.0714 314.3121l61.322845 0l0 61.322845l-61.322845 0z" fill-rule="evenodd"/><path stroke="#000000" stroke-width="1.0" stroke-linejoin="round" stroke-linecap="butt" d="m436.0714 314.3121l61.322845 0l0 61.322845l-61.322845 0z" fill-rule="evenodd"/><path fill="#b7b7b7" d="m374.7607 314.3121l61.322845 0l0 61.322845l-61.322845 0z" fill-rule="evenodd"/><path stroke="#000000" stroke-width="1.0" stroke-linejoin="round" stroke-linecap="butt" d="m374.7607 314.3121l61.322845 0l0 61.322845l-61.322845 0z" fill-rule="evenodd"/><path fill="#000000" fill-opacity="0.0" d="m252.13933 375.6228l61.32283 0l0 61.322815l-61.32283 0z" fill-rule="evenodd"/><path stroke="#000000" stroke-width="1.0" stroke-linejoin="round" stroke-linecap="butt" d="m252.13933 375.6228l61.32283 0l0 61.322815l-61.32283 0z" fill-rule="evenodd"/><path fill="#b7b7b7" d="m313.45004 375.6228l61.322815 0l0 61.322815l-61.322815 0z" fill-rule="evenodd"/><path stroke="#000000" stroke-width="1.0" stroke-linejoin="round" stroke-linecap="butt" d="m313.45004 375.6228l61.322815 0l0 61.322815l-61.322815 0z" fill-rule="evenodd"/><path fill="#000000" fill-opacity="0.0" d="m313.45004 436.9335l61.322815 0l0 61.322815l-61.322815 0z" fill-rule="evenodd"/><path stroke="#000000" stroke-width="1.0" stroke-linejoin="round" stroke-linecap="butt" d="m313.45004 436.9335l61.322815 0l0 61.322815l-61.322815 0z" fill-rule="evenodd"/><path fill="#b7b7b7" d="m252.13933 436.9335l61.32283 0l0 61.322815l-61.32283 0z" fill-rule="evenodd"/><path stroke="#000000" stroke-width="1.0" stroke-linejoin="round" stroke-linecap="butt" d="m252.13933 436.9335l61.32283 0l0 61.322815l-61.32283 0z" fill-rule="evenodd"/><path fill="#000000" fill-opacity="0.0" d="m374.7607 375.6228l61.322845 0l0 61.322815l-61.322845 0z" fill-rule="evenodd"/><path stroke="#000000" stroke-width="1.0" stroke-linejoin="round" stroke-linecap="butt" d="m374.7607 375.6228l61.322845 0l0 61.322815l-61.322845 0z" fill-rule="evenodd"/><path fill="#b7b7b7" d="m436.0714 375.6228l61.322845 0l0 61.322815l-61.322845 0z" fill-rule="evenodd"/><path stroke="#000000" stroke-width="1.0" stroke-linejoin="round" stroke-linecap="butt" d="m436.0714 375.6228l61.322845 0l0 61.322815l-61.322845 0z" fill-rule="evenodd"/><path fill="#000000" fill-opacity="0.0" d="m436.0714 436.9335l61.322845 0l0 61.322815l-61.322845 0z" fill-rule="evenodd"/><path stroke="#000000" stroke-width="1.0" stroke-linejoin="round" stroke-linecap="butt" d="m436.0714 436.9335l61.322845 0l0 61.322815l-61.322845 0z" fill-rule="evenodd"/><path fill="#b7b7b7" d="m374.7607 436.9335l61.322845 0l0 61.322815l-61.322845 0z" fill-rule="evenodd"/><path stroke="#000000" stroke-width="1.0" stroke-linejoin="round" stroke-linecap="butt" d="m374.7607 436.9335l61.322845 0l0 61.322815l-61.322845 0z" fill-rule="evenodd"/><path fill="#000000" fill-opacity="0.0" d="m6.896552 7.758621l61.32283 0l0 61.322838l-61.32283 0z" fill-rule="evenodd"/><path stroke="#000000" stroke-width="1.0" stroke-linejoin="round" stroke-linecap="butt" d="m6.896552 7.758621l61.32283 0l0 61.322838l-61.32283 0z" fill-rule="evenodd"/><path fill="#b7b7b7" d="m68.207245 7.758621l61.32283 0l0 61.322838l-61.32283 0z" fill-rule="evenodd"/><path stroke="#000000" stroke-width="1.0" stroke-linejoin="round" stroke-linecap="butt" d="m68.207245 7.758621l61.32283 0l0 61.322838l-61.32283 0z" fill-rule="evenodd"/><path fill="#b7b7b7" d="m68.208885 130.38165l61.322838 0l0 61.32283l-61.322838 0z" fill-rule="evenodd"/><path stroke="#ff0000" stroke-width="8.0" stroke-linejoin="round" stroke-linecap="butt" d="m68.208885 130.38165l61.322838 0l0 61.32283l-61.322838 0z" fill-rule="evenodd"/><path fill="#000000" fill-opacity="0.0" d="m18.92601 78.80157l37.259842 0l0 39.65354l-37.259842 0z" fill-rule="evenodd"/><path fill="#ff0000" d="m40.335228 110.84157l-3.296875 0l0 -12.40625q-1.8125 1.6875 -4.25 2.484375l0 -2.984375q1.28125 -0.421875 2.796875 -1.59375q1.515625 -1.1875 2.078125 -2.75l2.671875 0l0 17.25z" fill-rule="nonzero"/><path fill="#ffffff" d="m63.66271 119.227036l13.672375 14.957809l4.614174 -4.2204742l-0.79048157 17.67212l-17.66621 -0.79022217l4.61417 -4.2204742l-13.672371 -14.957809z" fill-rule="evenodd"/><path stroke="#ff0000" stroke-width="4.0" stroke-linejoin="round" stroke-linecap="butt" d="m63.66271 119.227036l13.672375 14.957809l4.614174 -4.2204742l-0.79048157 17.67212l-17.66621 -0.79022217l4.61417 -4.2204742l-13.672371 -14.957809z" fill-rule="evenodd"/><path fill="#ffffff" d="m43.567913 52.64802l0 20.283466l6.2519684 0l-12.503937 12.503937l-12.503939 -12.503937l6.2519684 0l0 -20.283466z" fill-rule="evenodd"/><path stroke="#ff0000" stroke-width="4.0" stroke-linejoin="round" stroke-linecap="butt" d="m43.567913 52.64802l0 20.283466l6.2519684 0l-12.503937 12.503937l-12.503939 -12.503937l6.2519684 0l0 -20.283466z" fill-rule="evenodd"/><path fill="#000000" fill-opacity="0.0" d="m44.289677 140.3517l109.16536 0l0 39.65355l-109.16536 0z" fill-rule="evenodd"/><path fill="#ff0000" d="m94.33134 169.32921l0 3.0625l-11.546875 0q0.1875 -1.734375 1.125 -3.28125q0.9375 -1.5625 3.703125 -4.125q2.234375 -2.078125 2.734375 -2.8125q0.6875 -1.015625 0.6875 -2.015625q0 -1.109375 -0.59375 -1.6875q-0.59375 -0.59375 -1.640625 -0.59375q-1.03125 0 -1.640625 0.625q-0.609375 0.609375 -0.703125 2.046875l-3.28125 -0.328125q0.296875 -2.71875 1.84375 -3.890625q1.546875 -1.1875 3.859375 -1.1875q2.546875 0 4.0 1.375q1.453125 1.359375 1.453125 3.40625q0 1.15625 -0.421875 2.203125q-0.40625 1.046875 -1.3125 2.203125q-0.59375 0.765625 -2.15625 2.203125q-1.5625 1.421875 -1.984375 1.890625q-0.40625 0.46875 -0.65625 0.90625l6.53125 0zm2.9257812 3.0625l0 -3.296875l3.296875 0l0 3.296875l-3.296875 0zm6.0117188 -4.421875l3.28125 -0.34375q0.140625 1.125 0.828125 1.78125q0.703125 0.640625 1.6093674 0.640625q1.03125 0 1.734375 -0.828125q0.71875 -0.84375 0.71875 -2.53125q0 -1.59375 -0.71875 -2.375q-0.703125 -0.796875 -1.828125 -0.796875q-1.4218674 0 -2.5468674 1.25l-2.671875 -0.375l1.6875 -8.953125l8.703117 0l0 3.09375l-6.2031174 0l-0.515625 2.90625q1.0937424 -0.546875 2.2499924 -0.546875q2.1875 0 3.703125 1.59375q1.53125 1.59375 1.53125 4.140625q0 2.125 -1.234375 3.78125q-1.671875 2.28125 -4.65625 2.28125q-2.3749924 0 -3.8749924 -1.28125q-1.5 -1.28125 -1.796875 -3.4375z" fill-rule="nonzero"/></g></svg>