<svg version="1.1" viewBox="0.0 0.0 302.501312335958 199.3753280839895" fill="none" stroke="none" stroke-linecap="square" stroke-miterlimit="10" xmlns:xlink="http://www.w3.org/1999/xlink" xmlns="http://www.w3.org/2000/svg"><clipPath id="p.0"><path d="m0 0l302.5013 0l0 199.37534l-302.5013 0l0 -199.37534z" clip-rule="nonzero"/></clipPath><g clip-path="url(#p.0)"><path fill="#000000" fill-opacity="0.0" d="m0 0l302.5013 0l0 199.37534l-302.5013 0z" fill-rule="evenodd"/><path fill="#434343" d="m7.3015094 6.9475064l93.22835 0l0 93.22834l-93.22835 0z" fill-rule="evenodd"/><path stroke="#d9d9d9" stroke-width="1.0" stroke-linejoin="round" stroke-linecap="butt" d="m7.3015094 6.9475064l93.22835 0l0 93.22834l-93.22835 0z" fill-rule="evenodd"/><path fill="#434343" d="m7.3015094 100.17585l93.22835 0l0 93.228355l-93.22835 0z" fill-rule="evenodd"/><path stroke="#d9d9d9" stroke-width="1.0" stroke-linejoin="round" stroke-linecap="butt" d="m7.3015094 100.17585l93.22835 0l0 93.228355l-93.22835 0z" fill-rule="evenodd"/><path fill="#000000" fill-opacity="0.0" d="m7.3015094 6.9475064l93.22835 0l0 186.4567l-93.22835 0z" fill-rule="evenodd"/><path stroke="#000000" stroke-width="8.0" stroke-linejoin="round" stroke-linecap="butt" d="m7.3015094 6.9475064l93.22835 0l0 186.4567l-93.22835 0z" fill-rule="evenodd"/><path fill="#cccccc" d="m44.40387 53.56168l0 0c0 -5.253227 4.258583 -9.51181 9.511814 -9.51181l0 0c2.522686 0 4.9420547 1.0021324 6.7258644 2.785946c1.7838097 1.7838097 2.785946 4.2031746 2.785946 6.7258644l0 0c0 5.253227 -4.258583 9.51181 -9.51181 9.51181l0 0c-5.253231 0 -9.511814 -4.258583 -9.511814 -9.51181z" fill-rule="evenodd"/><path stroke="#000000" stroke-width="1.0" stroke-linejoin="round" stroke-linecap="butt" d="m44.40387 53.56168l0 0c0 -5.253227 4.258583 -9.51181 9.511814 -9.51181l0 0c2.522686 0 4.9420547 1.0021324 6.7258644 2.785946c1.7838097 1.7838097 2.785946 4.2031746 2.785946 6.7258644l0 0c0 5.253227 -4.258583 9.51181 -9.51181 9.51181l0 0c-5.253231 0 -9.511814 -4.258583 -9.511814 -9.51181z" fill-rule="evenodd"/><path fill="#cccccc" d="m25.380249 126.29002l0 0c0 -5.253227 4.258583 -9.51181 9.51181 -9.51181l0 0c2.5226898 0 4.9420547 1.0021362 6.725868 2.7859497c1.7838097 1.7838058 2.785942 4.203171 2.785942 6.7258606l0 0c0 5.253235 -4.2585793 9.51181 -9.51181 9.51181l0 0c-5.253227 0 -9.51181 -4.2585754 -9.51181 -9.51181z" fill-rule="evenodd"/><path stroke="#000000" stroke-width="1.0" stroke-linejoin="round" stroke-linecap="butt" d="m25.380249 126.29002l0 0c0 -5.253227 4.258583 -9.51181 9.51181 -9.51181l0 0c2.5226898 0 4.9420547 1.0021362 6.725868 2.7859497c1.7838097 1.7838058 2.785942 4.203171 2.785942 6.7258606l0 0c0 5.253235 -4.2585793 9.51181 -9.51181 9.51181l0 0c-5.253227 0 -9.51181 -4.2585754 -9.51181 -9.51181z" fill-rule="evenodd"/><path fill="#cccccc" d="m63.427494 167.29002l0 0c0 -5.2532196 4.2585793 -9.51181 9.511814 -9.51181l0 0c2.5226822 0 4.9420547 1.0021362 6.7258606 2.7859497c1.7838135 1.7838135 2.7859497 4.203171 2.7859497 6.7258606l0 0c0 5.253235 -4.258583 9.51181 -9.51181 9.51181l0 0c-5.253235 0 -9.511814 -4.2585754 -9.511814 -9.51181z" fill-rule="evenodd"/><path stroke="#000000" stroke-width="1.0" stroke-linejoin="round" stroke-linecap="butt" d="m63.427494 167.29002l0 0c0 -5.2532196 4.2585793 -9.51181 9.511814 -9.51181l0 0c2.5226822 0 4.9420547 1.0021362 6.7258606 2.7859497c1.7838135 1.7838135 2.7859497 4.203171 2.7859497 6.7258606l0 0c0 5.253235 -4.258583 9.51181 -9.51181 9.51181l0 0c-5.253235 0 -9.511814 -4.2585754 -9.511814 -9.51181z" fill-rule="evenodd"/><path fill="#434343" d="m296.14282 100.17585l0 93.228355l-93.22833 0l0 -93.228355z" fill-rule="evenodd"/><path stroke="#d9d9d9" stroke-width="1.0" stroke-linejoin="round" stroke-linecap="butt" d="m296.14282 100.17585l0 93.228355l-93.22833 0l0 -93.228355z" fill-rule="evenodd"/><path fill="#434343" d="m202.91449 100.17585l0 93.228355l-93.228355 0l0 -93.228355z" fill-rule="evenodd"/><path stroke="#d9d9d9" stroke-width="1.0" stroke-linejoin="round" stroke-linecap="butt" d="m202.91449 100.17585l0 93.228355l-93.228355 0l0 -93.228355z" fill-rule="evenodd"/><path fill="#000000" fill-opacity="0.0" d="m296.14282 100.17585l0 93.228355l-186.4567 0l0 -93.228355z" fill-rule="evenodd"/><path stroke="#000000" stroke-width="8.0" stroke-linejoin="round" stroke-linecap="butt" d="m296.14282 100.17585l0 93.228355l-186.4567 0l0 -93.228355z" fill-rule="evenodd"/><path fill="#cccccc" d="m249.52866 137.27821l0 0c5.253235 0 9.51181 4.2585907 9.51181 9.51181l0 0c0 2.5226898 -1.0021362 4.9420624 -2.7859497 6.725876c-1.7837982 1.7837982 -4.203171 2.7859344 -6.7258606 2.7859344l0 0c-5.2532196 0 -9.51181 -4.2585754 -9.51181 -9.51181l0 0c0 -5.2532196 4.2585907 -9.51181 9.51181 -9.51181z" fill-rule="evenodd"/><path stroke="#000000" stroke-width="1.0" stroke-linejoin="round" stroke-linecap="butt" d="m249.52866 137.27821l0 0c5.253235 0 9.51181 4.2585907 9.51181 9.51181l0 0c0 2.5226898 -1.0021362 4.9420624 -2.7859497 6.725876c-1.7837982 1.7837982 -4.203171 2.7859344 -6.7258606 2.7859344l0 0c-5.2532196 0 -9.51181 -4.2585754 -9.51181 -9.51181l0 0c0 -5.2532196 4.2585907 -9.51181 9.51181 -9.51181z" fill-rule="evenodd"/><path fill="#cccccc" d="m176.80031 118.25459l0 0c5.253235 0 9.51181 4.258583 9.51181 9.51181l0 0c0 2.5226898 -1.0021362 4.9420624 -2.7859344 6.7258606c-1.7838135 1.7838135 -4.203186 2.7859497 -6.725876 2.7859497l0 0c-5.2532196 0 -9.51181 -4.2585754 -9.51181 -9.51181l0 0c0 -5.253227 4.2585907 -9.51181 9.51181 -9.51181z" fill-rule="evenodd"/><path stroke="#000000" stroke-width="1.0" stroke-linejoin="round" stroke-linecap="butt" d="m176.80031 118.25459l0 0c5.253235 0 9.51181 4.258583 9.51181 9.51181l0 0c0 2.5226898 -1.0021362 4.9420624 -2.7859344 6.7258606c-1.7838135 1.7838135 -4.203186 2.7859497 -6.725876 2.7859497l0 0c-5.2532196 0 -9.51181 -4.2585754 -9.51181 -9.51181l0 0c0 -5.253227 4.2585907 -9.51181 9.51181 -9.51181z" fill-rule="evenodd"/><path fill="#cccccc" d="m135.80031 156.30183l0 0c5.253235 0 9.51181 4.2585907 9.51181 9.51181l0 0c0 2.5226898 -1.0021362 4.9420624 -2.7859344 6.725876c-1.7838135 1.7837982 -4.203186 2.7859344 -6.725876 2.7859344l0 0c-5.2532196 0 -9.51181 -4.2585754 -9.51181 -9.51181l0 0c0 -5.2532196 4.2585907 -9.51181 9.51181 -9.51181z" fill-rule="evenodd"/><path stroke="#000000" stroke-width="1.0" stroke-linejoin="round" stroke-linecap="butt" d="m135.80031 156.30183l0 0c5.253235 0 9.51181 4.2585907 9.51181 9.51181l0 0c0 2.5226898 -1.0021362 4.9420624 -2.7859344 6.725876c-1.7838135 1.7837982 -4.203186 2.7859344 -6.725876 2.7859344l0 0c-5.2532196 0 -9.51181 -4.2585754 -9.51181 -9.51181l0 0c0 -5.2532196 4.2585907 -9.51181 9.51181 -9.51181z" fill-rule="evenodd"/><path fill="#cccccc" d="m270.02997 118.25459l0 0c5.253235 0 9.51181 4.258583 9.51181 9.51181l0 0c0 2.5226898 -1.0021362 4.9420624 -2.7859497 6.7258606c-1.7838135 1.7838135 -4.2031555 2.7859497 -6.7258606 2.7859497l0 0c-5.253235 0 -9.51181 -4.2585754 -9.51181 -9.51181l0 0c0 -5.253227 4.2585754 -9.51181 9.51181 -9.51181z" fill-rule="evenodd"/><path stroke="#000000" stroke-width="1.0" stroke-linejoin="round" stroke-linecap="butt" d="m270.02997 118.25459l0 0c5.253235 0 9.51181 4.258583 9.51181 9.51181l0 0c0 2.5226898 -1.0021362 4.9420624 -2.7859497 6.7258606c-1.7838135 1.7838135 -4.2031555 2.7859497 -6.7258606 2.7859497l0 0c-5.253235 0 -9.51181 -4.2585754 -9.51181 -9.51181l0 0c0 -5.253227 4.2585754 -9.51181 9.51181 -9.51181z" fill-rule="evenodd"/><path fill="#cccccc" d="m229.02997 156.30183l0 0c5.253235 0 9.51181 4.2585907 9.51181 9.51181l0 0c0 2.5226898 -1.0021362 4.9420624 -2.7859497 6.725876c-1.7837982 1.7837982 -4.203171 2.7859344 -6.7258606 2.7859344l0 0c-5.2532196 0 -9.51181 -4.2585754 -9.51181 -9.51181l0 0c0 -5.2532196 4.2585907 -9.51181 9.51181 -9.51181z" fill-rule="evenodd"/><path stroke="#000000" stroke-width="1.0" stroke-linejoin="round" stroke-linecap="butt" d="m229.02997 156.30183l0 0c5.253235 0 9.51181 4.2585907 9.51181 9.51181l0 0c0 2.5226898 -1.0021362 4.9420624 -2.7859497 6.725876c-1.7837982 1.7837982 -4.203171 2.7859344 -6.7258606 2.7859344l0 0c-5.2532196 0 -9.51181 -4.2585754 -9.51181 -9.51181l0 0c0 -5.2532196 4.2585907 -9.51181 9.51181 -9.51181z" fill-rule="evenodd"/></g></svg>