<?xml version="1.0" encoding="UTF-8" standalone="no"?>
<!-- Created with Inkscape (http://www.inkscape.org/) -->

<svg
   version="1.1"
   id="svg1"
   width="1674.9125"
   height="1657.8477"
   viewBox="0 0 1674.9125 1657.8476"
   sodipodi:docname="boardzilla-logo.svg"
   inkscape:export-filename="boardzilla.png"
   inkscape:export-xdpi="96"
   inkscape:export-ydpi="96"
   inkscape:version="1.3 (0e150ed, 2023-07-21)"
   xmlns:inkscape="http://www.inkscape.org/namespaces/inkscape"
   xmlns:sodipodi="http://sodipodi.sourceforge.net/DTD/sodipodi-0.dtd"
   xmlns:xlink="http://www.w3.org/1999/xlink"
   xmlns="http://www.w3.org/2000/svg"
   xmlns:svg="http://www.w3.org/2000/svg">
  <defs
     id="defs1">
    <linearGradient
       id="linearGradient15"
       inkscape:collect="always">
      <stop
         style="stop-color:#c00000;stop-opacity:1;"
         offset="0"
         id="stop15" />
      <stop
         style="stop-color:#f7a500;stop-opacity:1;"
         offset="1"
         id="stop16" />
    </linearGradient>
    <linearGradient
       inkscape:collect="always"
       xlink:href="#linearGradient15"
       id="linearGradient16"
       x1="1040.615"
       y1="-110.337"
       x2="1021.2798"
       y2="1469.3918"
       gradientUnits="userSpaceOnUse" />
  </defs>
  <sodipodi:namedview
     id="namedview1"
     pagecolor="#ffffff"
     bordercolor="#000000"
     borderopacity="0.25"
     inkscape:showpageshadow="2"
     inkscape:pageopacity="0.0"
     inkscape:pagecheckerboard="true"
     inkscape:deskcolor="#d1d1d1"
     inkscape:zoom="0.23632373"
     inkscape:cx="1440.8202"
     inkscape:cy="1250.4034"
     inkscape:window-width="1712"
     inkscape:window-height="1040"
     inkscape:window-x="0"
     inkscape:window-y="39"
     inkscape:window-maximized="1"
     inkscape:current-layer="g1" />
  <g
     inkscape:groupmode="layer"
     inkscape:label="Image"
     id="g1"
     transform="translate(-16.538933,222.34318)">
    <rect
       style="fill:url(#linearGradient16);fill-opacity:1;stroke:#000000;stroke-width:83.3643;stroke-linejoin:miter;stroke-dasharray:none;stroke-opacity:1;paint-order:stroke fill markers"
       id="rect7"
       width="1590.0137"
       height="1572.2773"
       x="58.221085"
       y="-180.66103"
       ry="268.77328" />
    <rect
       style="fill:none;fill-opacity:1;stroke:#ffffff;stroke-width:133.573;stroke-linejoin:miter;stroke-dasharray:none;stroke-opacity:1;paint-order:stroke fill markers"
       id="rect1"
       width="1517.0208"
       height="1500.0988"
       x="94.717522"
       y="-144.5717"
       ry="256.43469" />
    <g
       class=""
       id="g10"
       transform="matrix(0.79693781,0,0,0.79693781,969.40696,1068.8536)"
       style="stroke:#000000;stroke-width:75.2882;stroke-dasharray:none;stroke-opacity:1;paint-order:stroke fill markers" />
    <path
       style="fill:#000000;fill-opacity:1;stroke:#ffffff;stroke-width:88.6955;stroke-linejoin:miter;stroke-dasharray:none;stroke-opacity:1;paint-order:stroke fill markers"
       d="m 382.65983,1386.5583 c -0.0733,0.5335 137.05112,-275.6158 141.30053,-284.4244 1.89189,-3.6702 4.99033,-9.6988 6.75242,-13.2744 2.41964,-4.91 7.74536,-14.3427 8.52597,-19.3019 0.78217,-4.969 6.4083,-22.0459 7.59759,-23.0608 6.63991,-7.1978 7.34954,-17.6015 8.312,-26.8979 6.02742,-9.4431 8.98134,-21.52852 16.63583,-29.86722 2.75857,-2.481 8.69377,-15.1192 11.22327,-18.4356 5.88999,-10.2524 13.69521,-19.0591 21.85209,-27.68598 5.31022,-5.5288 13.10955,-15.1079 17.33184,-21.2869 12.26121,-17.9438 18.15751,-23.2934 19.37232,-28.324 2.69249,-11.1496 7.54957,-21.399 13.33232,-31.0306 -0.54949,-8.4082 -0.81404,-16.8677 -2.729,-25.1066 -0.80804,-3.0901 -1.06777,-6.5054 -4.11619,-9.86725 l -24.41753,-1.37442 c -10.19379,5.58997 -16.4909,18.94727 -19.38216,32.02217 l -2.7868,-3.6603 c -3.18381,-4.1818 -4.66937,-18.159 -3.07365,-36.13719 2.93277,-6.26536 6.41745,-12.20528 10.04913,-18.08023 3.31751,-5.73015 12.86748,-17.78159 14.18497,-19.6184 1.38908,-1.93662 3.54782,-4.49953 3.54782,-7.38525 v -2.81171 c -9.28441,-0.38731 -16.85825,6.78764 -22.9044,13.08497 -2.59463,2.78721 -5.07589,5.83674 -9.02599,5.83674 v -5.35885 c 0,-3.64307 -0.56104,-5.57414 -1.75227,-6.03126 -1.98985,-0.76358 -8.95089,4.05782 -17.74461,12.29036 -10.94517,10.24667 -11.68287,10.22178 -16.8057,12.19513 -6.93774,2.67245 -14.67782,4.43314 -25.78429,5.7979 -9.83961,1.2091 -19.1451,3.24324 -22.6033,4.94105 -3.19397,1.56805 -14.39836,0.66433 -23.51837,-1.89684 -3.9026,-1.09601 -11.40255,-2.13082 -16.55649,-3.05512 -19.82366,-3.55524 -24.55622,-5.1233 -35.38492,-9.42151 -2.38356,-0.9461 -4.29536,-1.53689 -7.05704,-2.85376 -5.28815,-2.52156 -5.81331,-3.11766 -11.8026,-5.65713 -19.21559,-8.14744 -21.39503,-17.6636 -40.60683,-23.30132 -8.44557,-2.31648 -10.88335,-9.0857 -31.24111,-11.94426 -3.57436,-0.5019 -11.06693,-3.25901 -17.32639,-7.2122 l -7.67468,-4.847 -2.55603,1.36795 c -3.17125,1.6972 -30.99757,8.5301 -47.08776,-8.85686 -7.74806,-8.3725 -13.31773,-11.71094 -17.6876,-12.93252 -4.13894,-1.15702 -9.04549,3.27594 -12.79748,5.30234 l -13.02494,3.12966 c -9.44352,5.071 -15.91444,12.35 -22.49494,23.57684 -8.5406,-13.01859 -5.26397,-28.26016 -3.4924,-34.28783 3.53017,-12.01122 8.44604,-18.11366 14.20031,-25.38779 3.03453,-3.83602 6.83392,-7.0973 10.39377,-10.46004 l 10.19517,-0.63605 c 4.90787,-0.35053 9.94228,-0.42619 13.81181,-3.63762 -4.94907,-22.53303 -14.92201,-18.48687 -21.05664,-13.23586 -5.09274,4.38393 -11.14606,7.3034 -17.09935,10.29357 -6.66223,-1.04124 -13.34321,-1.95232 -20.02697,-2.84238 -15.48201,7.70475 -22.37825,16.46206 -27.06989,25.08326 -2.1144,-4.65041 -1.51797,-14.62435 0.0603,-20.69562 2.07998,-8.00129 6.86532,-15.93257 15.37946,-27.19996 8.74513,-11.57307 17.71643,-21.05984 25.95151,-25.57388 1.06164,-0.58194 7.9617,5.24958 26.01735,-5.7165 9.10696,-5.5311 0.86373,-14.08682 -9.55681,-22.87216 -12.85947,-2.83075 -25.75972,-3.25185 -39.01003,-2.52065 6.15201,-5.79159 13.28721,-10.65769 20.77557,-14.57138 14.64619,-6.45036 29.20079,-11.13873 44.55875,-12.76445 6.84895,-0.725 12.5113,-1.37688 18.82403,-0.31035 6.26429,6.43936 12.39019,13.4759 18.80841,19.33124 5.83998,5.32783 18.0064,4.98195 24.57882,12.28347 l 2.09682,8.86624 c 13.72216,4.45387 14.70764,12.51804 21.0217,22.21261 2.83673,4.35549 9.35753,21.33474 26.71099,27.72773 7.75775,4.60131 16.38284,5.96895 24.92558,8.49975 5.96511,2.01521 17.04258,8.35483 25.96374,11.3856 5.24874,1.78315 9.11085,3.03823 13.65866,4.80796 11.70919,4.55647 15.15728,5.46599 23.06084,6.72267 3.68185,0.58543 38.25311,-2.38638 40.95537,-4.36232 1.05837,-0.7739 2.15202,-5.05867 2.88002,-11.2836 1.58233,-13.52983 2.35106,-18.07474 6.32555,-35.47717 -4.12418,-5.6668 -4.9493,-18.02952 -13.21098,-18.90651 -3.14076,0 -6.20219,-5.8556 -6.20219,-11.86296 0,-5.36822 -2.33726,-7.59652 -6.9916,-6.66564 l -3.43792,0.68757 c -1.41286,-5.89659 -2.83934,-9.08884 -1.39654,-13.59477 1.01196,-3.16042 0,-9.95545 0,-9.95545 -4.10981,-1.36876 -7.15368,1.1891 -10.06136,4.23162 -2.1318,2.3274 -4.09614,3.79087 -4.36521,3.25217 -1.93403,-3.87225 -0.35058,-14.55702 3.35591,-22.6448 2.07481,-4.52737 1.42058,-7.27017 -1.94399,-8.15003 -4.77643,-1.24906 -1.0284,-16.69964 6.53751,-26.94976 2.36076,-2.96195 3.31716,-6.49993 4.16648,-10.08996 -2.93965,-1.33706 -5.99743,-1.83936 -9.21976,-1.44977 -4.95765,0.73964 -4.8995,-0.50262 0.41739,-8.91705 5.84009,-9.24243 12.07032,-14.06773 17.43719,-17.3576 5.0564,-3.09956 10.67326,-3.79486 11.58279,-10.10676 -2.32701,-0.62492 -6.55449,-0.44236 -7.26349,-3.32911 0,-2.62206 11.78384,-13.30813 20.50399,-18.59385 9.00263,-5.45694 13.79161,-9.78758 13.79161,-12.47162 0,-3.6865 -1.39341,-5.7885 -3.83717,-5.7885 h -2.40151 c 0.4643,-5.14915 0.57876,-10.1194 2.51973,-14.7047 0.89887,-2.1235 3.71895,-7.68921 3.71895,-14.0041 l -18.04049,1.63478 c 2.84463,-6.83546 1.28403,-4.03468 4.93214,-14.40119 3.86001,-10.96867 1.38142,-16.39825 -2.45057,-23.80853 l -5.76092,1.10126 c 1.34574,-15.40307 4.20348,-17.0755 -11.78147,-18.00871 l -0.0124,-14.85682 c -11.20721,-3.48052 -15.72637,15.4903 -20.85609,22.51972 -2.01923,2.18279 -5.5108,2.229 -8.11778,3.60822 l -34.90389,-1.57052 -9.85381,4.44346 c -0.38799,-1.49084 -0.88237,-2.56061 -2.48488,-2.9093 -6.5699,-2.05818 -10.31872,-8.91466 -13.08049,-14.78259 -12.08355,-5.8625 -12.45662,-6.04852 -16.16005,-11.33593 3.05375,-15.61668 -0.56228,-24.0124 -3.67578,-39.51616 l 6.11983,5.70249 c 6.71091,6.25327 13.7706,9.84948 14.29635,4.60472 0.14318,-2.16092 0.61306,-4.24409 1.30346,-6.28358 3.49048,1.97565 5.42303,2.42983 8.00755,0.37573 3.50029,-3.27014 -1.15457,-6.12079 -2.31202,-8.91513 l 2.50735,-2.50735 2.72801,1.91078 c 5.3357,3.73728 14.63955,-3.97746 14.19224,-9.7143 -0.37897,-4.86033 -22.03461,-37.95325 -24.83582,-21.03565 -0.47317,2.85769 -4.14731,16.15152 -16.68144,16.5808 l -12.11583,0.41496 c -2.00514,2.29458 -5.42153,7.03547 -5.88543,10.17792 0,5.18669 -2.90794,2.88889 -24.484,-19.34689 -5.22464,-4.79964 -8.18271,-7.28344 -9.66816,-13.89464 -2.4163,-14.37736 2.58764,-28.03967 4.52642,-42.03496 4.2287,-4.81535 9.97016,-9.05443 14.25185,-14.05297 4.12307,-4.81335 15.37389,-16.75159 15.37389,-22.01654 -0.12628,-5.15091 -4.59073,-6.93829 -8.86954,-7.76087 0,0 -1.94752,-9.50737 0.26486,-13.38157 7.25049,-12.69672 15.04245,-12.29901 25.10543,-13.90093 6.86333,-0.91341 30.62389,-30.12066 30.85281,-27.74147 1.20799,12.5554 7.55545,3.2838 15.62939,-6.0164 3.73743,3.03696 3.45282,11.27046 18.25766,-5.75667 16.50087,-1.19248 23.21349,-2.07382 33.41794,-4.08547 13.10656,-2.58375 24.69932,-6.566366 34.48219,-11.522812 7.9077,7.660322 18.26936,8.243982 28.25031,8.566292 v 8.27825 c 17.4521,6.90744 34.61071,9.45134 53.21731,9.46085 0.16098,2.83258 -3.69927,9.67522 -1.42256,13.93991 3.11328,5.83176 20.90839,11.57658 38.40318,12.7304 9.63573,0.6355 10.42723,-0.51479 16.24435,-0.81137 -0.98856,10.34932 14.49733,11.76705 14.49733,11.76705 8.14017,1.29637 17.55346,0.90926 22.32047,4.94805 l 2.79188,2.36539 c -1.93555,0.85452 -6.22309,5.04311 -3.25217,6.63833 18.259,9.80408 29.70726,6.6909 42.6441,2.35529 12.58338,-4.21714 17.0426,-8.82916 22.4207,-16.0002 1.78317,-2.37765 6.54446,-11.04007 8.32701,-13.0981 3.81406,9.11411 12.52797,19.30814 9.75465,37.2099 -1.06216,6.85627 -2.19949,11.19963 -3.88034,13.31066 -1.82829,2.29621 1.55011,8.38932 5.75895,10.38655 4.76161,2.25954 11.87965,2.25509 16.22301,-0.0101 7.92539,-4.13338 9.81819,-0.92846 8.39859,14.2207 l -0.82906,8.84743 c 3.88514,0.2428 7.17848,-2.03815 10.29772,-4.11468 3.23439,-2.21709 6.08219,-3.8296 6.32843,-3.58336 0.24626,0.24626 0.79297,3.26935 1.21494,6.71801 1.14774,9.38047 3.58758,8.92556 8.74346,-1.63024 12.18636,-24.94954 4.85638,-12.97332 11.44384,-26.57234 2.78253,-5.74421 8.16117,-13.57615 17.24071,-15.16512 l 0.5913,19.75287 c 0.37569,12.55005 1.08694,20.24729 1.95053,21.10875 3.21895,3.21107 8.82223,-1.38688 19.53107,-16.02687 10.48109,-14.32865 11.43163,-15.75703 12.39497,-18.62606 1.20568,-3.59081 3.47134,-3.60632 4.08916,1.77391 1.49855,13.04976 1.51293,15.8243 0.47697,22.93958 -0.77544,5.32596 -3.73011,11.99981 -5.60488,16.9734 0,0 -4.14655,14.97969 -6.21982,22.46953 -2.20788,7.97612 13.59954,-7.36627 17.75085,-10.35087 2.70406,-1.9441 4.73465,-2.85245 7.46674,-3.56691 l -0.56429,6.07194 c -1.30454,14.03716 5.76059,16.5951 8.44387,11.4062 3.75566,-7.26263 3.33359,-7.17252 11.98484,-19.55086 6.40762,-9.1681 15.06786,-17.11536 23.2022,-20.67031 1.10792,-0.48419 0.48591,2.8131 -1.5795,11.82607 -4.58168,19.99333 -2.25668,37.59333 -0.41733,38.80093 7.96163,5.22709 12.15603,-4.60413 23.74123,-18.44877 4.396,-5.25342 10.82202,-10.88511 21.94032,-14.25671 10.43952,-3.16575 18.59225,-4.89378 31.38612,-6.33977 -7.9507,12.622 -15.8843,17.7892 -23.76924,27.12514 -3.9598,4.68849 -4.4226,10.7649 0.4373,14.79828 9.7905,-0.85889 37.82314,-16.05429 49.16324,-28.60641 5.9957,-6.63652 11.6896,-15.25343 12.3345,-16.451 10.5147,-19.52564 15.4006,-23.0754 24.7321,-33.84823 1.4481,5.92107 2.8126,11.82322 2.4876,16.40813 0.063,13.97078 -6.883,21.57789 -8.3157,27.26363 -1.7968,7.13025 -3.2835,14.06101 -4.5396,21.23906 -0.3324,1.67538 -2.1167,18.8285 -3.6549,21.75924 -0.5774,1.09995 -1.9699,4.12859 -3.0944,6.73033 -4.6239,10.69741 -22.989,27.52519 -22.989,30.84309 0,2.58236 3.1288,1.99121 5.5315,-1.04513 3.1315,-3.95723 6.2946,-3.75938 6.2946,-5.5174 0.5938,-1.54528 2.378,-1.21972 3.7761,-1.21972 -1.935,17.03495 -3.3345,29.14849 -5.9408,32.93883 -3.0913,4.49547 -5.2864,10.46853 -4.3838,11.92886 2.2269,1.69482 5.4047,1.25398 8.0732,1.25398 -0.7287,6.50047 -0.8255,13.20746 -2.8577,19.48353 -1.1879,2.755 -0.8805,5.2236 0.1328,7.864 l 10.6611,-1.59873 c 0,9.58834 -5.8355,15.88785 -5.8956,23.03374 -0.03,3.61645 4.0427,2.29108 11.9105,-3.87554 20.9821,-16.44551 23.2942,-22.43746 23.5502,-22.43746 1.5761,-5.23841 6.1071,-10.3425 8.5771,-15.59219 1.0608,-2.3536 3.3906,-3.4053 5.533,-4.55185 2.2266,3.72893 3.5103,7.73578 3.6359,12.10271 0,7.51425 2.7453,14.87202 1.4668,20.33184 -1.6183,6.91167 -7.1069,17.79531 -12.0088,22.2022 -2.1066,0.77302 -1.9394,5.02715 0.2151,5.46946 13.7327,-0.91341 19.8902,-13.37611 26.7564,-22.22306 3.7885,-3.01242 7.1714,-20.51051 15.494,-31.51138 2.6307,-3.47731 24.1936,-18.59031 32.4437,-22.73922 5.058,-2.76191 10.5001,-4.45669 16.0432,-5.87171 1.9329,12.66605 -3.2022,1.39043 -20.0412,36.19056 -2.1766,3.99246 -5.0039,14.58207 -4.349,16.28877 2.8507,7.42869 24.4144,-12.82108 31.2516,-20.14233 7.6624,-10.64783 16.121,-11.68088 25.8208,-16.55518 4.9119,-2.5617 7.1021,-1.32046 8.0234,-2.81105 16.5563,-6.14655 33.4324,-13.13265 47.99,-23.58472 6.9328,-3.86455 18.6451,-13.757 27.5899,-21.90545 2.8246,11.88221 -2.1155,24.97597 -4.6106,37.02035 -0.8045,4.61662 -3.0422,8.75534 -4.8078,13.04749 -5.9905,14.65433 -25.3687,16.32774 -31.1803,23.70537 -0.695,0.88252 -14.1231,10.37927 -20.8793,17.68588 -8.7818,9.33294 -16.3414,20.3559 -21.1462,32.31891 -5.0053,8.37285 -26.6621,15.92538 -36.8132,20.809 -2.9457,3.36382 -19.9668,14.99688 -14.6984,19.5337 0.9739,0.60189 12.9001,-4.81499 14.3025,-6.4962 2.5899,-2.03142 5.5362,-3.58553 8.3783,-5.23888 3.3293,5.64637 1.3622,13.29742 0.7421,19.49972 34.329,3.97199 48.1384,-35.0518 49.9445,-38.48015 3.8195,-9.30307 7.2952,-9.68853 15.7189,-13.76977 13.6025,-1.48381 27.4288,-0.97636 41.1124,-0.97636 0.2462,5.84174 -6.1398,8.32018 -10.994,9.46086 -19.0337,10.19678 -32.4047,31.38598 -40.9327,49.66949 -4.5777,9.81441 -7.0192,18.46614 -7.458,22.9925 l -0.3374,3.47948 c -8.4249,1.61028 -16.446,4.51695 -24.2434,8.04706 -6.8992,3.74869 -15.4454,5.63967 -20.619,11.87378 2.8289,2.62757 6.6483,4.55714 8.7929,7.83312 -3.6255,3.11039 -9.0143,4.12814 -13.6,5.55268 v 5.84576 l 4.7305,1.58423 c 7.4938,2.08863 15.3423,2.3478 23.0608,2.90318 0.4479,5.6967 -5.3219,8.00323 -9.4609,10.57752 0,0 -3.1547,2.29105 0,4.30572 18.512,11.82205 38.677,1.33529 38.677,1.33529 13.1888,-5.73045 22.3117,-10.16218 29.2904,-14.95458 3.4191,-2.34801 6.1679,-1.958 6.9373,0.98431 1.6391,6.88736 -2.223,13.68782 -4.6806,19.7752 -6.596,16.33836 -15.578,24.17285 -28.7318,31.44395 -4.02,2.2497 -13.1097,11.24771 -13.1097,12.97744 0,2.17364 4.0065,5.35621 6.7427,5.35621 8.1202,0 24.0051,-14.608 24.0051,-7.27734 0,2.96799 -2.8533,8.57353 -9.6568,18.97161 -8.1544,12.46272 -7.6224,15.8211 1.4056,8.87374 5.5331,-4.25791 18.8314,-11.10715 21.5653,-11.10715 11.6879,-3.55143 31.4377,-5.9826 42.7076,-1.36285 -2.1214,2.98348 -5.3342,4.73839 -8.5515,6.34619 -25.3282,4.03634 -42.3581,25.6074 -52.3163,48.234 -2.7217,6.18399 -6.2883,13.21034 -7.7002,20.05266 l -0.7647,4.78209 c 16.2271,1.18616 28.7048,-8.59871 40.1159,-19.0516 3.3601,-3.18074 6.4201,-5.78315 6.8,-5.78315 1.1933,1.80879 -0.5369,30.63549 -24.7353,59.43422 l -23.1706,-1.39421 c -2.1937,5.71707 -1.6127,12.89961 15.1292,12.93195 9.1317,0.0177 25.2011,5.56421 36.773,7.06291 18.3029,2.37044 18.0731,1.93943 49.9028,-5.47796 11.8575,-2.76321 37.1025,-12.08804 43.9214,-11.3783 -7.2424,14.25152 -31.7664,38.88604 -35.6343,41.30187 -10.6702,6.66446 0.1864,10.58045 7.1814,16.15801 -19.3566,7.6139 -43.8422,22.54602 -43.8422,26.8222 l 5.6173,0.1198 c 17.8944,-0.97065 35.2371,2.9523 51.2802,10.737 -8.0672,5.30591 -14.0762,7.27036 -19.2328,9.7182 -7.2906,3.46089 -16.5443,6.8343 -21.1082,13.8057 0,3.4833 1.5662,-1.528 20.6679,12.2809 12.9035,9.328 18.0811,16.0165 12.3985,16.0165 -1.5914,0 -3.2279,-0.091 -25.2053,-2.5416 -7.6684,4.104 -12.5916,13.7942 -12.5916,20.2807 2.5761,-0.066 5.5133,0.4437 7.687,-1.1826 4.0642,-1.8738 9.3428,-1.1826 13.7593,-1.1826 l -0.794,2.6608 c -0.6166,3.2704 -6.8245,9.0502 -1.9392,10.873 4.9227,1.5623 17.3857,-9.0727 22.5925,-19.2788 l 5.2955,-4.8985 c 7.9125,0 8.9755,21.7867 11.762,23.8014 9.6171,1.6398 37.3259,-2.1618 42.1586,6.4642 0,0.7181 -2.2617,2.2422 -5.0261,3.3869 -8.4277,3.4899 -24.9558,11.7728 -27.1758,13.619 -2.9144,2.42348 -2.6313,6.33108 0.5602,7.73498 3.7434,1.6466 3.8607,4.4004 0.4197,9.8514 -1.6386,2.5957 -3.3243,6.0941 -3.746,7.7742 l -0.7666,3.0547 c 7.7919,0.061 16.0324,-3.5724 22.0755,-8.3726 2.2524,-2.1818 4.136,-0.9785 6.3685,4.0682 2.5121,5.6293 6.9228,9.9363 11.142,14.2811 6.52,-6.929 10.9246,-15.4307 15.1622,-23.8722 l 9.2811,-14.48698 c 4.5221,1.94638 4.4864,11.66408 5.4339,15.96508 1.9187,6.8722 1.8588,14.7785 6.5769,20.4634 l 45.4741,8.07933 c -2.9975,3.50982 -1.5996,2.4641 -3.9816,5.08252 -3.3748,3.7096 -9.0271,11.37377 -9.0271,13.41287 0,3.2543 102.1459,65.4095 121.6103,29.495 -14.0198,82.5917 -21.4408,149.4559 -39.5613,231.3222 l -164.2873,107.866 z"
       id="path1"
       sodipodi:nodetypes="csssscssssscscccscssscscsssssssssssssscssscccsscscscccssssccsscsccsssssssscssscscssssscssscsssscsccsccccscccscccsscsccsssscssscsscsssccsccccssccscssscssssscssssscsssssscssccssssssscscssccssssssscsscscccsssccsssssscsssssscssssscssccsscssscscsccsccscsssssssssscssscssccssscsccscssssccscssccssssssscsscccsccsscccc" />
    <rect
       style="fill:none;fill-opacity:1;stroke:#000000;stroke-width:83.3643;stroke-linejoin:miter;stroke-dasharray:none;stroke-opacity:1;paint-order:stroke fill markers"
       id="rect2"
       width="1590.0137"
       height="1572.2773"
       x="59.755615"
       y="-180.66103"
       ry="268.77328" />
    <path
       d="m 956.0381,1433.5705 c -9.28687,-12.131 -14.88099,-28.1088 -13.54531,-46.7141 1.33569,-18.6052 14.91241,-37.3832 24.07364,-51.84 l 0.36138,-1.4143 c -0.32997,-1.0685 0.0943,-0.8169 -0.0787,-1.9327 -2.65569,-0.6757 -7.60557,-5.0285 -6.19132,-10.3712 1.77564,-7.2441 8.2655,-8.8312 10.55974,-8.8312 h 1.14714 l 0.40853,-1.4457 -0.0787,-1.4614 c 22.65938,-51.7457 40.9503,-80.2036 47.0945,-177.8965 -0.66,-1.1628 -1.32,-2.3257 -1.9172,-3.4885 -11.8168,0 -21.55935,0 -22.01506,-0.032 -1.53999,-0.1729 -12.58684,-6.5685 -11.61253,-16.7825 1.13137,-12.7597 12.55535,-17.3638 14.03243,-17.3638 h 10.05686 l 3.2842,-58.1413 c 0,0 -35.89046,-53.56859 -41.45317,-62.52554 -3.9913,-6.48978 -7.63689,-14.84956 -7.63689,-23.13078 0,-18.79377 14.9439,-34.09906 33.36052,-34.09906 5.32694,0 13.60814,0.0158 18.93514,0.0158 v -8.34408 c 0,-5.42128 4.2742,-9.77402 9.5698,-9.77402 h 63.9555 c 5.264,0 9.5226,4.35274 9.5226,9.77402 v 8.34408 c 5.3426,0 13.5925,-0.0158 18.9194,-0.0158 18.4324,0 33.3606,15.28957 33.3606,34.09906 0,8.24978 -3.5985,16.641 -7.637,23.13078 -5.5626,8.95695 -40.9817,61.11124 -40.9817,61.11124 l 2.8442,59.5869 h 10.2925 c 1.4772,0 12.2726,5.4842 13.4197,18.2753 0.9742,10.1826 -9.444,15.7295 -10.9682,15.9024 -0.4244,0.032 -10.1355,0.032 -22.0938,0.032 -0.1728,2.4357 -0.7386,5.1071 -1.7914,8.0299 6.5214,93.9531 27.8293,122.4268 50.0959,173.3553 l 0.047,1.0057 -0.032,1.8228 h 1.8858 c 2.2942,0 8.7997,1.6185 10.5597,8.8312 1.5399,5.7984 -4.3528,10.434 -6.8042,10.5283 l -1.2258,1.1942 c 0.1258,1.1315 0.9744,1.2571 0.9116,2.6715 10.4183,15.808 20.3807,36.1575 21.5593,54.7785 1.0371,17.348 -3.7555,31.3962 -12.1468,43.1502 z m 71.4039,-564.40728 c 8.5797,-8.78405 18.7151,-12.61823 22.7064,-8.57977 3.9285,4.08561 0.1886,14.47248 -8.3911,23.20938 -1.32,1.35139 -2.7186,2.59279 -4.0698,3.66134 5.9397,3.72418 12.9638,5.84555 20.3965,5.84555 7.3854,-0.0158 14.2839,-2.08995 20.1923,-5.62556 -1.4928,-1.16283 -2.9543,-2.43566 -4.3214,-3.89705 -8.5797,-8.78405 -12.3353,-19.12378 -8.3911,-23.19366 3.9441,-4.05418 14.111,-0.20428 22.6908,8.57977 1.4143,1.42998 2.6713,2.90706 3.8027,4.39989 3.52,-6.04985 5.5314,-13.08964 5.5314,-20.61659 0,-7.60552 -2.0586,-14.7396 -5.6727,-20.82087 -0.9744,1.27282 -2.1214,2.59278 -3.3629,3.81848 -8.5798,8.79975 -18.7308,12.61823 -22.6751,8.56403 -3.9441,-4.02274 -0.2199,-14.40959 8.3599,-23.19365 1.1785,-1.19425 2.3728,-2.29423 3.5984,-3.29992 -5.8298,-3.47275 -12.5711,-5.43699 -19.7681,-5.43699 -7.1812,0 -13.9225,1.99566 -19.7365,5.43699 1.3985,1.08427 2.797,2.3571 4.1012,3.70849 8.5641,8.79974 12.3355,19.1709 8.3756,23.20937 -3.9441,4.02275 -14.0954,0.20427 -22.6752,-8.54835 -1.3985,-1.46139 -2.6712,-2.92277 -3.8028,-4.38416 -3.6141,6.09698 -5.7198,13.27821 -5.7198,20.97801 0,7.32265 1.9329,14.25247 5.2799,20.19232 1.1,-1.3514 2.2471,-2.7185 3.5514,-4.00705 z"
       id="path11"
       style="fill:#ffffff;fill-opacity:1;stroke:none;stroke-width:64.1584;stroke-dasharray:none;stroke-opacity:1;paint-order:stroke fill markers"
       sodipodi:nodetypes="csccccscccccccscccsscsssscsscccscccccccscccccccccccccccccscccccsccsccscc" />
    <g
       class=""
       id="g12"
       transform="matrix(0.67594585,0,0,0.67594585,672.90929,1116.7834)"
       style="stroke:none;stroke-width:75.2882;stroke-dasharray:none;stroke-opacity:1;paint-order:stroke fill markers">
      <path
         d="m 459.69401,328.76212 c 0,56.16243 -48.42361,81.88971 -81.90765,81.90765 -37.33998,0 -65.55122,-16.9124 -82.34704,-30.72209 2.21493,45.68857 9.24311,65.45581 35.81302,88.87536 H 219.67056 c 27.32721,-21.90498 38.14181,-43.18679 40.35675,-88.87536 -16.79583,13.80073 -45.01603,30.74002 -82.34705,30.72209 -33.4392,0 -81.90765,-25.74522 -81.90765,-81.90765 0,-102.6491 72.3126,-74.71584 181.95622,-247.937876 C 387.38141,254.04628 459.69401,226.12199 459.69401,328.76212 Z"
         fill="#ffffff"
         fill-opacity="1"
         id="path12"
         style="stroke:none;stroke-width:75.2882;stroke-dasharray:none;stroke-opacity:1;paint-order:stroke fill markers"
         sodipodi:nodetypes="sccccccscs" />
    </g>
    <g
       class=""
       id="g2"
       transform="matrix(0.79693781,0,0,0.79693781,1029.407,1068.8536)"
       style="stroke:none">
      <path
         d="m 316.75481,100.24881 c -24.21181,0 -41.62458,12.81163 -51.68145,28.90172 -8.99424,14.38989 -12.73631,31.08079 -13.46625,45.69934 -27.44722,13.57206 -57.85277,27.25532 -82.33361,41.24437 -12.84123,7.33797 -24.03695,14.71898 -32.46445,22.65149 -8.4275,7.93071 -14.64545,16.86218 -14.64545,27.3988 0,4.48366 2.18803,8.13785 4.65404,10.81909 2.46961,2.68123 5.42883,4.76345 8.79875,6.70756 6.73896,3.88824 15.23551,7.12904 24.58127,9.93223 13.88412,4.16622 29.4335,7.26354 42.95356,8.58801 -13.44742,23.1716 -31.34355,44.45468 -47.03101,64.84729 0.68162,1.5059 0.66342,91.03723 0.66342,91.03723 l 106.33276,-0.75858 c 0,0 7.23604,-7.97464 11.13325,-15.14851 l 0.0789,-0.14348 0.0717,-0.14885 c 0,0 8.71894,-17.72843 19.12195,-35.32055 5.20105,-8.79516 10.84778,-17.55446 15.75919,-23.76165 2.45705,-3.10269 4.75628,-5.56333 6.41165,-6.95327 0.50575,-0.42326 0.73532,-0.50217 1.06173,-0.68152 0.32551,0.17935 0.55597,0.25826 1.06173,0.68152 1.65537,1.38994 3.9546,3.85058 6.41165,6.95327 4.91141,6.20719 10.55814,14.96649 15.75919,23.76165 10.40211,17.59212 19.12195,35.31965 19.12195,35.31965 l 0.0717,0.14796 0.0789,0.14348 c 3.89721,7.17387 11.30781,15.47224 11.30781,15.47224 l 83.94682,-0.14428 c 0,0 29.34009,-1.3351 55.38448,-6.47967 0,-25.10854 -14.38043,-60.41137 -32.5097,-83.98022 -15.68656,-20.39172 -33.58267,-41.6748 -47.03099,-64.84729 13.52006,-1.32538 29.06942,-4.4209 42.95354,-8.58712 9.34576,-2.8023 17.84231,-6.04399 24.58127,-9.93133 3.36992,-1.94412 6.32914,-4.02633 8.79695,-6.70757 2.46871,-2.68123 4.65584,-6.33542 4.65584,-10.81909 0,-10.53662 -6.21795,-19.46808 -14.64545,-27.3988 -8.4275,-7.9325 -19.62322,-15.31352 -32.46445,-22.65149 -24.48082,-13.98904 -54.88637,-27.6732 -82.33359,-41.24436 -0.72994,-14.61676 -4.47291,-31.30946 -13.46625,-45.69755 -10.05687,-16.09099 -27.46964,-28.90172 -51.68145,-28.90172 z"
         fill="#ffffff"
         fill-opacity="1"
         id="path2"
         style="stroke:none;stroke-width:0.896734"
         sodipodi:nodetypes="sscscscsccccccccscccccccccccccccscscsccss" />
    </g>
    <path
       style="fill:#ffffff;fill-opacity:1;stroke:#000000;stroke-width:85;stroke-dasharray:none;stroke-opacity:1"
       d="m 334.31291,1340.0013 c 3.29022,-5.2148 5.98217,-9.6333 5.98217,-9.8189 0,-0.1858 -1.44509,-1.7824 -3.2112,-3.5486 -1.76624,-1.7662 -3.21133,-4.1748 -3.21133,-5.3523 0,-3.078 4.89879,-8.4581 8.40193,-9.2274 2.63368,-0.5791 4.28676,-3.1832 13.80767,-21.7547 15.31726,-29.878 21.69142,-46.7137 27.53253,-72.7205 4.4215,-19.6861 9.04667,-53.9379 9.10951,-67.4606 l 0.0242,-4.5493 h -14.59196 -14.59148 l -4.67594,-4.676 c -4.38423,-4.3841 -4.67607,-5.0423 -4.67607,-10.5459 0,-6.766 2.63272,-11.5869 8.47951,-15.527 3.15799,-2.1282 4.95499,-2.4337 14.30507,-2.4337 h 10.69345 l -0.5791,-15.2535 c -1.3757,-36.2434 -16.81917,-71.8568 -39.57083,-91.2528 -7.91994,-6.75193 -10.50366,-10.85429 -10.62443,-16.86932 -0.0965,-5.04252 1.20162,-8.37247 4.85268,-12.40123 5.90833,-6.52 13.06074,-7.13505 23.83046,-2.04916 10.76318,5.0828 18.46139,4.92742 29.64212,-0.59839 l 8.27019,-4.0873 5.05441,3.07425 c 13.59218,8.26723 23.26076,8.33581 35.97802,0.25577 l 5.23357,-3.32533 8.04807,4.08515 c 7.15315,3.63068 8.89249,4.07742 15.63953,4.01746 6.28017,-0.0602 8.79319,-0.65631 14.54902,-3.47794 8.2188,-4.02868 13.91937,-4.38073 19.16402,-1.18352 7.1751,4.37433 10.63639,11.37501 9.25755,18.72451 -0.61288,3.26587 -2.85096,6.0857 -11.76477,14.82135 -15.50187,15.1924 -23.61499,28.2755 -30.91784,49.8583 -5.19846,15.3638 -7.19186,25.9362 -7.92151,42.0138 l -0.61892,13.6479 h 9.75809 c 9.47747,0 9.87174,0.096 13.70981,3.4697 9.66677,8.4875 10.25178,19.4876 1.43121,26.9095 -3.18466,2.6797 -3.89283,2.8035 -16.03149,2.8035 -6.98483,0 -12.91717,0.3608 -13.18296,0.8023 -0.64666,1.0738 2.09306,30.0948 4.16827,44.1546 3.44175,23.3194 9.99684,48.9717 16.99412,66.5035 5.61347,14.0647 7.7133,18.4945 17.56731,37.0597 8.21733,15.482 9.61886,17.5225 12.74416,18.554 3.57881,1.181 6.6854,5.5114 6.6854,9.3186 0,1.1124 -1.71122,3.5792 -3.80272,5.4825 l -3.80272,3.4603 2.24242,3.4017 c 3.84446,5.832 13.36812,23.1522 15.00337,30.6973 z m 82.5168,-375.68375 c -6.15202,-2.41205 -9.77306,-4.86681 -14.09394,-9.55455 -12.19767,-13.23268 -11.74547,-34.36671 1.00858,-47.12018 13.26742,-13.26727 35.68282,-13.24339 48.5854,0.0483 6.15829,6.34565 9.18757,13.22614 9.73686,22.11511 0.87949,14.23269 -6.53267,26.70083 -19.54635,32.87891 -5.36941,2.5491 -7.73887,3.03591 -14.45058,2.96847 -4.41547,-0.0483 -9.47324,-0.64667 -11.23937,-1.33964 z"
       id="path25"
       sodipodi:nodetypes="cssscssccccsssscsscssscsscscsssssccscssssssssscsccccccssccc" />
    <path
       id="rect16"
       style="fill:#ffffff;stroke-width:60;paint-order:stroke fill markers"
       d="m 580.22326,1202.0117 h 145.87897 c 25.76772,0 46.51213,20.7444 46.51213,46.5122 v 145.8789 c 0,25.7678 -17.67322,39.9412 -37.81009,39.8577 l -200.5982,-0.8316 c 0,0 -0.49495,-131.7304 -0.49495,-184.905 0,-25.7678 20.74441,-46.5122 46.51214,-46.5122 z"
       sodipodi:nodetypes="ssssscss" />
    <circle
       style="fill:#000000;fill-opacity:1;stroke:none;stroke-width:81.7139;stroke-linejoin:miter;stroke-dasharray:none;stroke-opacity:1;paint-order:stroke fill markers"
       id="path16"
       cx="589.96051"
       cy="1262.5419"
       r="25.913767" />
    <circle
       style="fill:#000000;fill-opacity:1;stroke:none;stroke-width:81.7139;stroke-linejoin:miter;stroke-dasharray:none;stroke-opacity:1;paint-order:stroke fill markers"
       id="circle16"
       cx="713.90991"
       cy="1261.8533"
       r="25.913767" />
    <circle
       style="fill:#000000;fill-opacity:1;stroke:none;stroke-width:81.7139;stroke-linejoin:miter;stroke-dasharray:none;stroke-opacity:1;paint-order:stroke fill markers"
       id="circle17"
       cx="589.96051"
       cy="1384.2279"
       r="25.913767" />
    <circle
       style="fill:#000000;fill-opacity:1;stroke:none;stroke-width:81.7139;stroke-linejoin:miter;stroke-dasharray:none;stroke-opacity:1;paint-order:stroke fill markers"
       id="circle18"
       cx="713.90991"
       cy="1383.5393"
       r="25.913767" />
    <circle
       style="fill:#000000;fill-opacity:1;stroke:none;stroke-width:81.7139;stroke-linejoin:miter;stroke-dasharray:none;stroke-opacity:1;paint-order:stroke fill markers"
       id="circle19"
       cx="651.93518"
       cy="1323.0405"
       r="25.913767" />
    <rect
       style="fill:#ffffff;fill-opacity:1;stroke:none;stroke-width:39.2801;stroke-linejoin:miter;stroke-dasharray:none;stroke-opacity:1;paint-order:stroke fill markers"
       id="rect19"
       width="156.40228"
       height="156.40228"
       x="576.21161"
       y="1054.51"
       ry="30.450001" />
    <circle
       style="fill:#000000;fill-opacity:1;stroke:none;stroke-width:53.4955;stroke-linejoin:miter;stroke-dasharray:none;stroke-opacity:1;paint-order:stroke fill markers"
       id="circle20"
       cx="613.40198"
       cy="1094.1371"
       r="16.964911" />
    <circle
       style="fill:#000000;fill-opacity:1;stroke:none;stroke-width:53.4955;stroke-linejoin:miter;stroke-dasharray:none;stroke-opacity:1;paint-order:stroke fill markers"
       id="circle21"
       cx="694.18683"
       cy="1093.6863"
       r="16.964911" />
    <circle
       style="fill:#000000;fill-opacity:1;stroke:none;stroke-width:53.4955;stroke-linejoin:miter;stroke-dasharray:none;stroke-opacity:1;paint-order:stroke fill markers"
       id="circle22"
       cx="613.40198"
       cy="1173.801"
       r="16.964911" />
    <circle
       style="fill:#000000;fill-opacity:1;stroke:none;stroke-width:53.4955;stroke-linejoin:miter;stroke-dasharray:none;stroke-opacity:1;paint-order:stroke fill markers"
       id="circle23"
       cx="694.18683"
       cy="1173.3502"
       r="16.964911" />
    <circle
       style="fill:#000000;fill-opacity:1;stroke:none;stroke-width:53.4955;stroke-linejoin:miter;stroke-dasharray:none;stroke-opacity:1;paint-order:stroke fill markers"
       id="circle24"
       cx="613.40198"
       cy="1133.969"
       r="16.964911" />
    <circle
       style="fill:#000000;fill-opacity:1;stroke:none;stroke-width:53.4955;stroke-linejoin:miter;stroke-dasharray:none;stroke-opacity:1;paint-order:stroke fill markers"
       id="circle25"
       cx="694.18683"
       cy="1133.5183"
       r="16.964911" />
    <path
       style="fill:#ffffff;fill-opacity:1;stroke:#000000;stroke-width:85;stroke-linejoin:miter;stroke-dasharray:none;stroke-opacity:1;paint-order:stroke fill markers"
       d="m 195.20246,1310.4739 c 7.05343,-49.885 10.87387,-88.9068 11.17692,-132.7154 -21.39685,-9.7515 -45.64368,-29.3501 -46.16863,-60.168 -0.59129,-34.7117 21.55593,-62.3562 60.01759,-62.1354 41.36861,0.2374 63.2799,26.4328 63.24873,63.8609 -0.0267,32.0649 -22.92636,50.0644 -43.70518,60.0812 0.50368,39.8467 2.08582,79.9923 8.60821,130.9768 5.06623,39.6019 22.69126,37.2527 37.91809,47.0542 16.7501,10.782 30.1959,14.4367 30.1959,14.4367 z"
       id="path32"
       sodipodi:nodetypes="ccssscsscc" />
    <path
       style="fill:#ffffff;fill-opacity:1;stroke:none;stroke-width:51.9752;stroke-linejoin:miter;stroke-dasharray:none;stroke-opacity:1;paint-order:stroke fill markers"
       d="m 144.9931,1374.3126 c 19.01335,-21.3958 44.20507,-20.2419 52.53743,-73.0511 7.94354,-50.3448 8.5458,-79.6944 8.84885,-123.503 -21.39685,-9.7515 -45.64368,-29.3501 -46.16863,-60.168 -0.59129,-34.7117 21.55593,-62.3562 60.01759,-62.1354 41.36861,0.2374 63.2799,26.4328 63.24873,63.8609 -0.0267,32.0649 -22.92636,50.0644 -43.70518,60.0812 0.50368,39.8467 0.46056,68.5035 7.24074,120.8742 7.17877,55.4496 44.26417,56.5539 74.99734,73.1563 12.11433,6.5443 -9.64755,60.1946 -9.64755,60.1946 -41.94098,-2.1384 -80.87832,-10.2972 -119.38698,-28.1971 -31.25701,-14.5292 -47.98234,-31.1126 -47.98234,-31.1126 z"
       id="path26"
       sodipodi:nodetypes="cscssscsscsc" />
    <path
       style="fill:#ffffff;fill-opacity:1;stroke-width:12.0475"
       d="m 312.46102,1435.5045 c -0.18739,-27.919 0.60651,-44.5825 6.50704,-69.7657 2.16772,-7.2996 7.08094,-17.0166 14.74979,-29.1718 3.28559,-5.2075 5.97377,-9.6198 5.97377,-9.8051 0,-0.1855 -1.44306,-1.7799 -3.20669,-3.5435 -1.76377,-1.7638 -3.20682,-4.169 -3.20682,-5.3449 0,-3.0737 4.89191,-8.4462 8.39013,-9.2145 2.62998,-0.5783 4.28073,-3.1787 13.78828,-21.7241 15.29576,-29.8361 21.66096,-46.6481 27.49386,-72.6185 4.41531,-19.6582 9.03396,-53.8621 9.09673,-67.3658 l 0.0241,-4.5428 h -14.57147 -14.57099 l -4.66937,-4.6695 c -4.37808,-4.3779 -4.66951,-5.0353 -4.66951,-10.531 0,-6.7566 2.62902,-11.5707 8.4676,-15.5053 3.15356,-2.1252 4.94803,-2.4303 14.28499,-2.4303 h 10.67843 l -0.57828,-15.2321 c -1.37377,-36.1925 -16.79557,-71.7559 -39.51527,-91.1246 -7.90882,-6.74246 -10.48891,-10.83906 -10.60951,-16.84571 -0.0964,-5.0354 1.19992,-8.36061 4.84587,-12.38375 5.90003,-6.51085 13.0424,-7.12503 23.79699,-2.04629 10.74806,5.07563 18.43546,4.92045 29.6005,-0.59755 l 8.25858,-4.08156 5.04731,3.06993 c 13.57309,8.25557 23.22809,8.32412 35.9275,0.25541 l 5.22622,-3.32065 8.03677,4.07941 c 7.14311,3.62558 8.87999,4.0717 15.61757,4.01182 6.27134,-0.0602 8.78083,-0.6554 14.52859,-3.47307 8.20725,-4.02302 13.89981,-4.37457 19.13711,-1.18185 7.16502,4.36819 10.62145,11.35899 9.24455,18.69822 -0.61202,3.26127 -2.84696,6.07712 -11.74826,14.80054 -15.4801,15.1711 -23.58183,28.2358 -30.87442,49.7884 -5.19115,15.3421 -7.18177,25.8997 -7.91039,41.9547 l -0.61805,13.6287 h 9.74439 c 9.46417,0 9.85788,0.096 13.69056,3.4648 9.65319,8.4756 10.23739,19.4603 1.4292,26.8717 -3.18019,2.676 -3.88736,2.7997 -16.00897,2.7997 -6.97504,0 -12.89904,0.3602 -13.16445,0.8011 -0.64576,1.0723 2.09011,30.0525 4.16241,44.0926 3.43691,23.2867 9.98282,48.903 16.97025,66.4101 5.60559,14.0449 7.70247,18.4685 17.54264,37.0077 8.20579,15.4602 9.60536,17.4979 12.72627,18.5279 3.57379,1.1794 6.67602,5.5037 6.67602,9.3056 0,1.1108 -1.70882,3.5742 -3.79738,5.4746 l -3.79738,3.4556 2.23928,3.3969 c 3.83905,5.8238 11.08999,23.9994 14.98229,30.6542 l 21.98784,72.0642 c 0,0 -94.31557,0.4195 -123.63126,0.9377 -35.8736,0.6341 -113.72496,0.9684 -113.72496,0.9684 z M 416.11878,961.4108 c -6.14339,-2.40867 -9.75934,-4.85997 -14.07415,-9.54114 -12.18054,-13.2141 -11.72898,-34.31845 1.00716,-47.05402 13.24879,-13.24864 35.63271,-13.22479 48.51718,0.0482 6.14964,6.33674 9.17466,13.20756 9.72318,22.08406 0.87826,14.2127 -6.52349,26.66332 -19.51891,32.83273 -5.36187,2.54553 -7.72799,3.03165 -14.43027,2.9643 -4.40927,-0.0482 -9.45995,-0.64575 -11.22359,-1.33775 z"
       id="path1-4"
       sodipodi:nodetypes="cssssscssccccsssscsscssscsscscsssssccscssssssssscsccscccccssccc" />
    <path
       style="fill:#ffffff;fill-opacity:1;stroke:none;stroke-width:65.5304;stroke-linejoin:miter;stroke-dasharray:none;stroke-opacity:1;paint-order:stroke fill markers"
       d="m 1390.8573,1432.3468 28.2157,-278.293 104.5584,-79.0917 104.5585,76.0497 17.7192,134.6334 c -11.1267,22.6649 -36.0991,52.6668 -83.2728,91.3561 -46.36,38.0219 -99.0755,55.8575 -171.779,55.3455 z"
       id="path27"
       sodipodi:nodetypes="cccccsc" />
    <path
       style="fill:#ffffff;fill-opacity:1;stroke:#000000;stroke-width:30;stroke-linecap:round;stroke-linejoin:miter;stroke-dasharray:none;stroke-opacity:1;paint-order:stroke fill markers"
       d="m 1469.0085,1183.3497 h 113.2907"
       id="path28" />
    <path
       style="fill:#ffffff;fill-opacity:1;stroke:#000000;stroke-width:30;stroke-linecap:round;stroke-linejoin:miter;stroke-dasharray:none;stroke-opacity:1;paint-order:stroke fill markers"
       d="m 1483.3895,1247.2994 h 84.5287"
       id="path29" />
    <path
       style="fill:#ffffff;fill-opacity:1;stroke:#000000;stroke-width:30;stroke-linecap:round;stroke-linejoin:miter;stroke-dasharray:none;stroke-opacity:1;paint-order:stroke fill markers"
       d="m 1469.0085,1311.2491 h 113.2907"
       id="path30" />
    <path
       style="fill:#ffffff;fill-opacity:1;stroke:#000000;stroke-width:30;stroke-linecap:round;stroke-linejoin:miter;stroke-dasharray:none;stroke-opacity:1;paint-order:stroke fill markers"
       d="m 1525.6539,1192.2009 v 113.2907"
       id="path31" />
  </g>
</svg>
