<svg version="1.1" viewBox="0.0 0.0 266.6666666666667 398.6115485564304" fill="none" stroke="none" stroke-linecap="square" stroke-miterlimit="10" xmlns:xlink="http://www.w3.org/1999/xlink" xmlns="http://www.w3.org/2000/svg"><clipPath id="p.0"><path d="m0 0l266.66666 0l0 398.61154l-266.66666 0l0 -398.61154z" clip-rule="nonzero"/></clipPath><g clip-path="url(#p.0)"><path fill="#000000" fill-opacity="0.0" d="m0 0l266.66666 0l0 398.61154l-266.66666 0z" fill-rule="evenodd"/><path fill="#b6d7a8" d="m131.45462 5.826381l124.62991 0l0 124.62992l-124.62991 0z" fill-rule="evenodd"/><path stroke="#b7b7b7" stroke-width="1.0" stroke-linejoin="round" stroke-linecap="butt" d="m131.45462 5.826381l124.62991 0l0 124.62992l-124.62991 0z" fill-rule="evenodd"/><path fill="#b6d7a8" d="m6.8247056 5.826381l124.62991 0l0 124.62992l-124.62991 0z" fill-rule="evenodd"/><path stroke="#b7b7b7" stroke-width="1.0" stroke-linejoin="round" stroke-linecap="butt" d="m6.8247056 5.826381l124.62991 0l0 124.62992l-124.62991 0z" fill-rule="evenodd"/><path fill="#b6d7a8" d="m6.8247056 130.4563l124.62991 0l0 124.62993l-124.62991 0z" fill-rule="evenodd"/><path stroke="#b7b7b7" stroke-width="1.0" stroke-linejoin="round" stroke-linecap="butt" d="m6.8247056 130.4563l124.62991 0l0 124.62993l-124.62991 0z" fill-rule="evenodd"/><path fill="#cfe2f3" d="m8.223161 67.71877c8.522626 -8.066933 34.765682 -22.068684 52.148525 -22.8294c17.38284 -0.7607193 38.39426 15.297024 52.148518 18.26509c13.754265 2.9680634 18.901016 2.7397232 30.377045 -0.45669174c11.476028 -3.196415 27.593414 -15.829834 38.47914 -18.721786c10.885742 -2.8919487 19.240555 0.22878647 26.835297 1.370079c7.594742 1.1412964 10.970139 5.5538063 18.733185 5.4776917c7.7630615 -0.076114655 22.8667 -7.3044624 27.845139 -5.9343834c4.9784546 1.370079 5.2321167 10.730095 2.0255432 14.154854c-3.206604 3.424759 -15.5271 5.4041977 -21.265106 6.3936996c-5.738022 0.98950195 -8.437744 0.45669556 -13.162994 -0.45668793c-4.7252655 -0.9133911 -10.125687 -4.1863556 -15.188538 -5.0236244c-5.0628357 -0.8372688 -9.619293 -1.3696404 -15.188522 0c-5.569214 1.3696404 -11.222839 5.2497826 -18.226807 8.217846c-7.0039673 2.968071 -16.53984 7.535431 -23.796997 9.590553c-7.2571564 2.0551147 -13.163971 2.4356918 -19.745956 2.740158c-6.581978 0.30445862 -13.417152 0.5328064 -19.745949 -0.9133835c-6.3287964 -1.4461975 -11.982414 -4.9479446 -18.226807 -7.7637863c-6.2444 -2.815834 -14.345528 -7.4571304 -19.239578 -9.131229c-4.894043 -1.6741028 -6.0741425 -1.5223122 -10.12471 -0.9133873c-4.050564 0.60892487 -8.693359 1.6749802 -14.178669 4.5669327c-5.4853096 2.891945 -12.151691 8.294838 -18.73319 12.784775c-6.581499 4.489937 -17.12771 16.05774 -20.755806 14.154854c-3.6280947 -1.9028854 -9.535389 -17.505249 -1.0127621 -25.572174z" fill-rule="evenodd"/><path stroke="#000000" stroke-width="1.0" stroke-linejoin="round" stroke-linecap="butt" d="m8.223161 67.71877c8.522626 -8.066933 34.765682 -22.068684 52.148525 -22.8294c17.38284 -0.7607193 38.39426 15.297024 52.148518 18.26509c13.754265 2.9680634 18.901016 2.7397232 30.377045 -0.45669174c11.476028 -3.196415 27.593414 -15.829834 38.47914 -18.721786c10.885742 -2.8919487 19.240555 0.22878647 26.835297 1.370079c7.594742 1.1412964 10.970139 5.5538063 18.733185 5.4776917c7.7630615 -0.076114655 22.8667 -7.3044624 27.845139 -5.9343834c4.9784546 1.370079 5.2321167 10.730095 2.0255432 14.154854c-3.206604 3.424759 -15.5271 5.4041977 -21.265106 6.3936996c-5.738022 0.98950195 -8.437744 0.45669556 -13.162994 -0.45668793c-4.7252655 -0.9133911 -10.125687 -4.1863556 -15.188538 -5.0236244c-5.0628357 -0.8372688 -9.619293 -1.3696404 -15.188522 0c-5.569214 1.3696404 -11.222839 5.2497826 -18.226807 8.217846c-7.0039673 2.968071 -16.53984 7.535431 -23.796997 9.590553c-7.2571564 2.0551147 -13.163971 2.4356918 -19.745956 2.740158c-6.581978 0.30445862 -13.417152 0.5328064 -19.745949 -0.9133835c-6.3287964 -1.4461975 -11.982414 -4.9479446 -18.226807 -7.7637863c-6.2444 -2.815834 -14.345528 -7.4571304 -19.239578 -9.131229c-4.894043 -1.6741028 -6.0741425 -1.5223122 -10.12471 -0.9133873c-4.050564 0.60892487 -8.693359 1.6749802 -14.178669 4.5669327c-5.4853096 2.891945 -12.151691 8.294838 -18.73319 12.784775c-6.581499 4.489937 -17.12771 16.05774 -20.755806 14.154854c-3.6280947 -1.9028854 -9.535389 -17.505249 -1.0127621 -25.572174z" fill-rule="evenodd"/><path fill="#fff2cc" d="m55.490795 9.928743l28.31496 0l0 242.92914l-28.31496 0z" fill-rule="evenodd"/><path stroke="#000000" stroke-width="1.0" stroke-linejoin="round" stroke-linecap="butt" d="m55.490795 9.928743l28.31496 0l0 242.92914l-28.31496 0z" fill-rule="evenodd"/><path fill="#000000" fill-opacity="0.0" d="m7.213157 6.065226l249.33595 0l0 124.503944l-124.5013 0l0 124.50394l-125.167984 0z" fill-rule="evenodd"/><path stroke="#000000" stroke-width="8.0" stroke-linejoin="round" stroke-linecap="butt" d="m7.213157 6.065226l249.33595 0l0 124.503944l-124.5013 0l0 124.50394l-125.167984 0z" fill-rule="evenodd"/><path fill="#b6d7a8" d="m6.8247056 264.49216l124.62991 0l0 124.62991l-124.62991 0z" fill-rule="evenodd"/><path stroke="#000000" stroke-width="8.0" stroke-linejoin="round" stroke-linecap="butt" d="m6.8247056 264.49216l124.62991 0l0 124.62991l-124.62991 0z" fill-rule="evenodd"/><path fill="#fff2cc" d="m84.194786 265.84738l0 42.34384l46.25196 0l0 24.75589l-74.590546 0l0 -69.055115z" fill-rule="evenodd"/><path stroke="#000000" stroke-width="1.0" stroke-linejoin="round" stroke-linecap="butt" d="m84.194786 265.84738l0 42.34384l46.25196 0l0 24.75589l-74.590546 0l0 -69.055115z" fill-rule="evenodd"/><path fill="#000000" fill-opacity="0.0" d="m6.8247056 264.49216l124.62991 0l0 124.62991l-124.62991 0z" fill-rule="evenodd"/><path stroke="#000000" stroke-width="8.0" stroke-linejoin="round" stroke-linecap="butt" d="m6.8247056 264.49216l124.62991 0l0 124.62991l-124.62991 0z" fill-rule="evenodd"/></g></svg>