<svg version="1.1" viewBox="0.0 0.0 502.5853018372703 503.4488188976378" fill="none" stroke="none" stroke-linecap="square" stroke-miterlimit="10" xmlns:xlink="http://www.w3.org/1999/xlink" xmlns="http://www.w3.org/2000/svg"><clipPath id="p.0"><path d="m0 0l502.5853 0l0 503.44882l-502.5853 0l0 -503.44882z" clip-rule="nonzero"/></clipPath><g clip-path="url(#p.0)"><path fill="#000000" fill-opacity="0.0" d="m0 0l502.5853 0l0 503.44882l-502.5853 0z" fill-rule="evenodd"/><path fill="#000000" fill-opacity="0.0" d="m129.51794 7.758621l61.32283 0l0 61.322838l-61.32283 0z" fill-rule="evenodd"/><path stroke="#000000" stroke-width="1.0" stroke-linejoin="round" stroke-linecap="butt" d="m129.51794 7.758621l61.32283 0l0 61.322838l-61.32283 0z" fill-rule="evenodd"/><path fill="#b7b7b7" d="m190.82864 7.758621l61.32283 0l0 61.322838l-61.32283 0z" fill-rule="evenodd"/><path stroke="#000000" stroke-width="1.0" stroke-linejoin="round" stroke-linecap="butt" d="m190.82864 7.758621l61.32283 0l0 61.322838l-61.32283 0z" fill-rule="evenodd"/><path fill="#000000" fill-opacity="0.0" d="m190.82864 69.06931l61.32283 0l0 61.322838l-61.32283 0z" fill-rule="evenodd"/><path stroke="#000000" stroke-width="1.0" stroke-linejoin="round" stroke-linecap="butt" d="m190.82864 69.06931l61.32283 0l0 61.322838l-61.32283 0z" fill-rule="evenodd"/><path fill="#b7b7b7" d="m129.51794 69.06931l61.32283 0l0 61.322838l-61.32283 0z" fill-rule="evenodd"/><path stroke="#000000" stroke-width="1.0" stroke-linejoin="round" stroke-linecap="butt" d="m129.51794 69.06931l61.32283 0l0 61.322838l-61.32283 0z" fill-rule="evenodd"/><path fill="#000000" fill-opacity="0.0" d="m6.896552 130.38l61.32283 0l0 61.322845l-61.32283 0z" fill-rule="evenodd"/><path stroke="#000000" stroke-width="1.0" stroke-linejoin="round" stroke-linecap="butt" d="m6.896552 130.38l61.32283 0l0 61.322845l-61.32283 0z" fill-rule="evenodd"/><path fill="#000000" fill-opacity="0.0" d="m68.207245 191.6907l61.32283 0l0 61.322845l-61.32283 0z" fill-rule="evenodd"/><path stroke="#000000" stroke-width="1.0" stroke-linejoin="round" stroke-linecap="butt" d="m68.207245 191.6907l61.32283 0l0 61.322845l-61.32283 0z" fill-rule="evenodd"/><path fill="#b7b7b7" d="m6.896552 191.6907l61.32283 0l0 61.322845l-61.32283 0z" fill-rule="evenodd"/><path stroke="#000000" stroke-width="1.0" stroke-linejoin="round" stroke-linecap="butt" d="m6.896552 191.6907l61.32283 0l0 61.322845l-61.32283 0z" fill-rule="evenodd"/><path fill="#000000" fill-opacity="0.0" d="m129.51794 130.38l61.32283 0l0 61.322845l-61.32283 0z" fill-rule="evenodd"/><path stroke="#000000" stroke-width="1.0" stroke-linejoin="round" stroke-linecap="butt" d="m129.51794 130.38l61.32283 0l0 61.322845l-61.32283 0z" fill-rule="evenodd"/><path fill="#b7b7b7" d="m190.82864 130.38l61.32283 0l0 61.322845l-61.32283 0z" fill-rule="evenodd"/><path stroke="#000000" stroke-width="1.0" stroke-linejoin="round" stroke-linecap="butt" d="m190.82864 130.38l61.32283 0l0 61.322845l-61.32283 0z" fill-rule="evenodd"/><path fill="#000000" fill-opacity="0.0" d="m190.82864 191.6907l61.32283 0l0 61.322845l-61.32283 0z" fill-rule="evenodd"/><path stroke="#000000" stroke-width="1.0" stroke-linejoin="round" stroke-linecap="butt" d="m190.82864 191.6907l61.32283 0l0 61.322845l-61.32283 0z" fill-rule="evenodd"/><path fill="#b7b7b7" d="m129.51794 191.6907l61.32283 0l0 61.322845l-61.32283 0z" fill-rule="evenodd"/><path stroke="#000000" stroke-width="1.0" stroke-linejoin="round" stroke-linecap="butt" d="m129.51794 191.6907l61.32283 0l0 61.322845l-61.32283 0z" fill-rule="evenodd"/><path fill="#000000" fill-opacity="0.0" d="m252.13933 7.758621l61.32283 0l0 61.322838l-61.32283 0z" fill-rule="evenodd"/><path stroke="#000000" stroke-width="1.0" stroke-linejoin="round" stroke-linecap="butt" d="m252.13933 7.758621l61.32283 0l0 61.322838l-61.32283 0z" fill-rule="evenodd"/><path fill="#b7b7b7" d="m313.45004 7.758621l61.322815 0l0 61.322838l-61.322815 0z" fill-rule="evenodd"/><path stroke="#000000" stroke-width="1.0" stroke-linejoin="round" stroke-linecap="butt" d="m313.45004 7.758621l61.322815 0l0 61.322838l-61.322815 0z" fill-rule="evenodd"/><path fill="#000000" fill-opacity="0.0" d="m313.45004 69.06931l61.322815 0l0 61.322838l-61.322815 0z" fill-rule="evenodd"/><path stroke="#000000" stroke-width="1.0" stroke-linejoin="round" stroke-linecap="butt" d="m313.45004 69.06931l61.322815 0l0 61.322838l-61.322815 0z" fill-rule="evenodd"/><path fill="#b7b7b7" d="m252.13933 69.06931l61.32283 0l0 61.322838l-61.32283 0z" fill-rule="evenodd"/><path stroke="#000000" stroke-width="1.0" stroke-linejoin="round" stroke-linecap="butt" d="m252.13933 69.06931l61.32283 0l0 61.322838l-61.32283 0z" fill-rule="evenodd"/><path fill="#000000" fill-opacity="0.0" d="m374.7607 7.758621l61.322845 0l0 61.322838l-61.322845 0z" fill-rule="evenodd"/><path stroke="#000000" stroke-width="1.0" stroke-linejoin="round" stroke-linecap="butt" d="m374.7607 7.758621l61.322845 0l0 61.322838l-61.322845 0z" fill-rule="evenodd"/><path fill="#b7b7b7" d="m436.0714 7.758621l61.322845 0l0 61.322838l-61.322845 0z" fill-rule="evenodd"/><path stroke="#000000" stroke-width="1.0" stroke-linejoin="round" stroke-linecap="butt" d="m436.0714 7.758621l61.322845 0l0 61.322838l-61.322845 0z" fill-rule="evenodd"/><path fill="#000000" fill-opacity="0.0" d="m436.0714 69.06931l61.322845 0l0 61.322838l-61.322845 0z" fill-rule="evenodd"/><path stroke="#000000" stroke-width="1.0" stroke-linejoin="round" stroke-linecap="butt" d="m436.0714 69.06931l61.322845 0l0 61.322838l-61.322845 0z" fill-rule="evenodd"/><path fill="#b7b7b7" d="m374.7607 69.06931l61.322845 0l0 61.322838l-61.322845 0z" fill-rule="evenodd"/><path stroke="#000000" stroke-width="1.0" stroke-linejoin="round" stroke-linecap="butt" d="m374.7607 69.06931l61.322845 0l0 61.322838l-61.322845 0z" fill-rule="evenodd"/><path fill="#000000" fill-opacity="0.0" d="m252.13933 130.38l61.32283 0l0 61.322845l-61.32283 0z" fill-rule="evenodd"/><path stroke="#000000" stroke-width="1.0" stroke-linejoin="round" stroke-linecap="butt" d="m252.13933 130.38l61.32283 0l0 61.322845l-61.32283 0z" fill-rule="evenodd"/><path fill="#b7b7b7" d="m313.45004 130.38l61.322815 0l0 61.322845l-61.322815 0z" fill-rule="evenodd"/><path stroke="#000000" stroke-width="1.0" stroke-linejoin="round" stroke-linecap="butt" d="m313.45004 130.38l61.322815 0l0 61.322845l-61.322815 0z" fill-rule="evenodd"/><path fill="#000000" fill-opacity="0.0" d="m313.45004 191.6907l61.322815 0l0 61.322845l-61.322815 0z" fill-rule="evenodd"/><path stroke="#000000" stroke-width="1.0" stroke-linejoin="round" stroke-linecap="butt" d="m313.45004 191.6907l61.322815 0l0 61.322845l-61.322815 0z" fill-rule="evenodd"/><path fill="#b7b7b7" d="m252.13933 191.6907l61.32283 0l0 61.322845l-61.32283 0z" fill-rule="evenodd"/><path stroke="#000000" stroke-width="1.0" stroke-linejoin="round" stroke-linecap="butt" d="m252.13933 191.6907l61.32283 0l0 61.322845l-61.32283 0z" fill-rule="evenodd"/><path fill="#000000" fill-opacity="0.0" d="m374.7607 130.38l61.322845 0l0 61.322845l-61.322845 0z" fill-rule="evenodd"/><path stroke="#000000" stroke-width="1.0" stroke-linejoin="round" stroke-linecap="butt" d="m374.7607 130.38l61.322845 0l0 61.322845l-61.322845 0z" fill-rule="evenodd"/><path fill="#b7b7b7" d="m436.0714 130.38l61.322845 0l0 61.322845l-61.322845 0z" fill-rule="evenodd"/><path stroke="#000000" stroke-width="1.0" stroke-linejoin="round" stroke-linecap="butt" d="m436.0714 130.38l61.322845 0l0 61.322845l-61.322845 0z" fill-rule="evenodd"/><path fill="#000000" fill-opacity="0.0" d="m436.0714 191.6907l61.322845 0l0 61.322845l-61.322845 0z" fill-rule="evenodd"/><path stroke="#000000" stroke-width="1.0" stroke-linejoin="round" stroke-linecap="butt" d="m436.0714 191.6907l61.322845 0l0 61.322845l-61.322845 0z" fill-rule="evenodd"/><path fill="#b7b7b7" d="m374.7607 191.6907l61.322845 0l0 61.322845l-61.322845 0z" fill-rule="evenodd"/><path stroke="#000000" stroke-width="1.0" stroke-linejoin="round" stroke-linecap="butt" d="m374.7607 191.6907l61.322845 0l0 61.322845l-61.322845 0z" fill-rule="evenodd"/><path fill="#000000" fill-opacity="0.0" d="m6.896552 253.0014l61.32283 0l0 61.322845l-61.32283 0z" fill-rule="evenodd"/><path stroke="#000000" stroke-width="1.0" stroke-linejoin="round" stroke-linecap="butt" d="m6.896552 253.0014l61.32283 0l0 61.322845l-61.32283 0z" fill-rule="evenodd"/><path fill="#b7b7b7" d="m68.207245 253.0014l61.32283 0l0 61.322845l-61.32283 0z" fill-rule="evenodd"/><path stroke="#000000" stroke-width="1.0" stroke-linejoin="round" stroke-linecap="butt" d="m68.207245 253.0014l61.32283 0l0 61.322845l-61.32283 0z" fill-rule="evenodd"/><path fill="#000000" fill-opacity="0.0" d="m68.207245 314.3121l61.32283 0l0 61.322845l-61.32283 0z" fill-rule="evenodd"/><path stroke="#000000" stroke-width="1.0" stroke-linejoin="round" stroke-linecap="butt" d="m68.207245 314.3121l61.32283 0l0 61.322845l-61.32283 0z" fill-rule="evenodd"/><path fill="#b7b7b7" d="m6.896552 314.3121l61.32283 0l0 61.322845l-61.32283 0z" fill-rule="evenodd"/><path stroke="#000000" stroke-width="1.0" stroke-linejoin="round" stroke-linecap="butt" d="m6.896552 314.3121l61.32283 0l0 61.322845l-61.32283 0z" fill-rule="evenodd"/><path fill="#000000" fill-opacity="0.0" d="m129.51794 253.0014l61.32283 0l0 61.322845l-61.32283 0z" fill-rule="evenodd"/><path stroke="#000000" stroke-width="1.0" stroke-linejoin="round" stroke-linecap="butt" d="m129.51794 253.0014l61.32283 0l0 61.322845l-61.32283 0z" fill-rule="evenodd"/><path fill="#b7b7b7" d="m190.82864 253.0014l61.32283 0l0 61.322845l-61.32283 0z" fill-rule="evenodd"/><path stroke="#000000" stroke-width="1.0" stroke-linejoin="round" stroke-linecap="butt" d="m190.82864 253.0014l61.32283 0l0 61.322845l-61.32283 0z" fill-rule="evenodd"/><path fill="#000000" fill-opacity="0.0" d="m190.82864 314.3121l61.32283 0l0 61.322845l-61.32283 0z" fill-rule="evenodd"/><path stroke="#000000" stroke-width="1.0" stroke-linejoin="round" stroke-linecap="butt" d="m190.82864 314.3121l61.32283 0l0 61.322845l-61.32283 0z" fill-rule="evenodd"/><path fill="#b7b7b7" d="m129.51794 314.3121l61.32283 0l0 61.322845l-61.32283 0z" fill-rule="evenodd"/><path stroke="#000000" stroke-width="1.0" stroke-linejoin="round" stroke-linecap="butt" d="m129.51794 314.3121l61.32283 0l0 61.322845l-61.32283 0z" fill-rule="evenodd"/><path fill="#000000" fill-opacity="0.0" d="m6.896552 375.6228l61.32283 0l0 61.322815l-61.32283 0z" fill-rule="evenodd"/><path stroke="#000000" stroke-width="1.0" stroke-linejoin="round" stroke-linecap="butt" d="m6.896552 375.6228l61.32283 0l0 61.322815l-61.32283 0z" fill-rule="evenodd"/><path fill="#b7b7b7" d="m68.207245 375.6228l61.32283 0l0 61.322815l-61.32283 0z" fill-rule="evenodd"/><path stroke="#000000" stroke-width="1.0" stroke-linejoin="round" stroke-linecap="butt" d="m68.207245 375.6228l61.32283 0l0 61.322815l-61.32283 0z" fill-rule="evenodd"/><path fill="#000000" fill-opacity="0.0" d="m68.207245 436.9335l61.32283 0l0 61.322815l-61.32283 0z" fill-rule="evenodd"/><path stroke="#000000" stroke-width="1.0" stroke-linejoin="round" stroke-linecap="butt" d="m68.207245 436.9335l61.32283 0l0 61.322815l-61.32283 0z" fill-rule="evenodd"/><path fill="#b7b7b7" d="m6.896552 436.9335l61.32283 0l0 61.322815l-61.32283 0z" fill-rule="evenodd"/><path stroke="#000000" stroke-width="1.0" stroke-linejoin="round" stroke-linecap="butt" d="m6.896552 436.9335l61.32283 0l0 61.322815l-61.32283 0z" fill-rule="evenodd"/><path fill="#000000" fill-opacity="0.0" d="m129.51794 375.6228l61.32283 0l0 61.322815l-61.32283 0z" fill-rule="evenodd"/><path stroke="#000000" stroke-width="1.0" stroke-linejoin="round" stroke-linecap="butt" d="m129.51794 375.6228l61.32283 0l0 61.322815l-61.32283 0z" fill-rule="evenodd"/><path fill="#b7b7b7" d="m190.82864 375.6228l61.32283 0l0 61.322815l-61.32283 0z" fill-rule="evenodd"/><path stroke="#000000" stroke-width="1.0" stroke-linejoin="round" stroke-linecap="butt" d="m190.82864 375.6228l61.32283 0l0 61.322815l-61.32283 0z" fill-rule="evenodd"/><path fill="#000000" fill-opacity="0.0" d="m190.82864 436.9335l61.32283 0l0 61.322815l-61.32283 0z" fill-rule="evenodd"/><path stroke="#000000" stroke-width="1.0" stroke-linejoin="round" stroke-linecap="butt" d="m190.82864 436.9335l61.32283 0l0 61.322815l-61.32283 0z" fill-rule="evenodd"/><path fill="#b7b7b7" d="m129.51794 436.9335l61.32283 0l0 61.322815l-61.32283 0z" fill-rule="evenodd"/><path stroke="#000000" stroke-width="1.0" stroke-linejoin="round" stroke-linecap="butt" d="m129.51794 436.9335l61.32283 0l0 61.322815l-61.32283 0z" fill-rule="evenodd"/><path fill="#000000" fill-opacity="0.0" d="m252.13933 253.0014l61.32283 0l0 61.322845l-61.32283 0z" fill-rule="evenodd"/><path stroke="#000000" stroke-width="1.0" stroke-linejoin="round" stroke-linecap="butt" d="m252.13933 253.0014l61.32283 0l0 61.322845l-61.32283 0z" fill-rule="evenodd"/><path fill="#b7b7b7" d="m313.45004 253.0014l61.322815 0l0 61.322845l-61.322815 0z" fill-rule="evenodd"/><path stroke="#000000" stroke-width="1.0" stroke-linejoin="round" stroke-linecap="butt" d="m313.45004 253.0014l61.322815 0l0 61.322845l-61.322815 0z" fill-rule="evenodd"/><path fill="#000000" fill-opacity="0.0" d="m313.45004 314.3121l61.322815 0l0 61.322845l-61.322815 0z" fill-rule="evenodd"/><path stroke="#000000" stroke-width="1.0" stroke-linejoin="round" stroke-linecap="butt" d="m313.45004 314.3121l61.322815 0l0 61.322845l-61.322815 0z" fill-rule="evenodd"/><path fill="#b7b7b7" d="m252.13933 314.3121l61.32283 0l0 61.322845l-61.32283 0z" fill-rule="evenodd"/><path stroke="#000000" stroke-width="1.0" stroke-linejoin="round" stroke-linecap="butt" d="m252.13933 314.3121l61.32283 0l0 61.322845l-61.32283 0z" fill-rule="evenodd"/><path fill="#000000" fill-opacity="0.0" d="m374.7607 253.0014l61.322845 0l0 61.322845l-61.322845 0z" fill-rule="evenodd"/><path stroke="#000000" stroke-width="1.0" stroke-linejoin="round" stroke-linecap="butt" d="m374.7607 253.0014l61.322845 0l0 61.322845l-61.322845 0z" fill-rule="evenodd"/><path fill="#b7b7b7" d="m436.0714 253.0014l61.322845 0l0 61.322845l-61.322845 0z" fill-rule="evenodd"/><path stroke="#000000" stroke-width="1.0" stroke-linejoin="round" stroke-linecap="butt" d="m436.0714 253.0014l61.322845 0l0 61.322845l-61.322845 0z" fill-rule="evenodd"/><path fill="#000000" fill-opacity="0.0" d="m436.0714 314.3121l61.322845 0l0 61.322845l-61.322845 0z" fill-rule="evenodd"/><path stroke="#000000" stroke-width="1.0" stroke-linejoin="round" stroke-linecap="butt" d="m436.0714 314.3121l61.322845 0l0 61.322845l-61.322845 0z" fill-rule="evenodd"/><path fill="#b7b7b7" d="m374.7607 314.3121l61.322845 0l0 61.322845l-61.322845 0z" fill-rule="evenodd"/><path stroke="#000000" stroke-width="1.0" stroke-linejoin="round" stroke-linecap="butt" d="m374.7607 314.3121l61.322845 0l0 61.322845l-61.322845 0z" fill-rule="evenodd"/><path fill="#000000" fill-opacity="0.0" d="m252.13933 375.6228l61.32283 0l0 61.322815l-61.32283 0z" fill-rule="evenodd"/><path stroke="#000000" stroke-width="1.0" stroke-linejoin="round" stroke-linecap="butt" d="m252.13933 375.6228l61.32283 0l0 61.322815l-61.32283 0z" fill-rule="evenodd"/><path fill="#b7b7b7" d="m313.45004 375.6228l61.322815 0l0 61.322815l-61.322815 0z" fill-rule="evenodd"/><path stroke="#000000" stroke-width="1.0" stroke-linejoin="round" stroke-linecap="butt" d="m313.45004 375.6228l61.322815 0l0 61.322815l-61.322815 0z" fill-rule="evenodd"/><path fill="#000000" fill-opacity="0.0" d="m313.45004 436.9335l61.322815 0l0 61.322815l-61.322815 0z" fill-rule="evenodd"/><path stroke="#000000" stroke-width="1.0" stroke-linejoin="round" stroke-linecap="butt" d="m313.45004 436.9335l61.322815 0l0 61.322815l-61.322815 0z" fill-rule="evenodd"/><path fill="#b7b7b7" d="m252.13933 436.9335l61.32283 0l0 61.322815l-61.32283 0z" fill-rule="evenodd"/><path stroke="#000000" stroke-width="1.0" stroke-linejoin="round" stroke-linecap="butt" d="m252.13933 436.9335l61.32283 0l0 61.322815l-61.32283 0z" fill-rule="evenodd"/><path fill="#000000" fill-opacity="0.0" d="m374.7607 375.6228l61.322845 0l0 61.322815l-61.322845 0z" fill-rule="evenodd"/><path stroke="#000000" stroke-width="1.0" stroke-linejoin="round" stroke-linecap="butt" d="m374.7607 375.6228l61.322845 0l0 61.322815l-61.322845 0z" fill-rule="evenodd"/><path fill="#b7b7b7" d="m436.0714 375.6228l61.322845 0l0 61.322815l-61.322845 0z" fill-rule="evenodd"/><path stroke="#000000" stroke-width="1.0" stroke-linejoin="round" stroke-linecap="butt" d="m436.0714 375.6228l61.322845 0l0 61.322815l-61.322845 0z" fill-rule="evenodd"/><path fill="#000000" fill-opacity="0.0" d="m436.0714 436.9335l61.322845 0l0 61.322815l-61.322845 0z" fill-rule="evenodd"/><path stroke="#000000" stroke-width="1.0" stroke-linejoin="round" stroke-linecap="butt" d="m436.0714 436.9335l61.322845 0l0 61.322815l-61.322845 0z" fill-rule="evenodd"/><path fill="#b7b7b7" d="m374.7607 436.9335l61.322845 0l0 61.322815l-61.322845 0z" fill-rule="evenodd"/><path stroke="#000000" stroke-width="1.0" stroke-linejoin="round" stroke-linecap="butt" d="m374.7607 436.9335l61.322845 0l0 61.322815l-61.322845 0z" fill-rule="evenodd"/><path fill="#000000" fill-opacity="0.0" d="m6.896552 7.758621l61.32283 0l0 61.322838l-61.32283 0z" fill-rule="evenodd"/><path stroke="#000000" stroke-width="1.0" stroke-linejoin="round" stroke-linecap="butt" d="m6.896552 7.758621l61.32283 0l0 61.322838l-61.32283 0z" fill-rule="evenodd"/><path fill="#b7b7b7" d="m68.208885 130.38165l61.322838 0l0 61.32283l-61.322838 0z" fill-rule="evenodd"/><path stroke="#000000" stroke-width="1.0" stroke-linejoin="round" stroke-linecap="butt" d="m68.208885 130.38165l61.322838 0l0 61.32283l-61.322838 0z" fill-rule="evenodd"/><path fill="#000000" fill-opacity="0.0" d="m68.207245 69.06931l61.32283 0l0 61.322838l-61.32283 0z" fill-rule="evenodd"/><path stroke="#ff0000" stroke-width="8.0" stroke-linejoin="round" stroke-linecap="butt" d="m68.207245 69.06931l61.32283 0l0 61.322838l-61.32283 0z" fill-rule="evenodd"/><path fill="#b7b7b7" d="m6.894912 69.06767l61.32283 0l0 61.322845l-61.32283 0z" fill-rule="evenodd"/><path stroke="#ff0000" stroke-width="8.0" stroke-linejoin="round" stroke-linecap="butt" d="m6.894912 69.06767l61.32283 0l0 61.322845l-61.32283 0z" fill-rule="evenodd"/><path fill="#b7b7b7" d="m68.207245 7.758621l61.32283 0l0 61.322838l-61.32283 0z" fill-rule="evenodd"/><path stroke="#ff0000" stroke-width="8.0" stroke-linejoin="round" stroke-linecap="butt" d="m68.207245 7.758621l61.32283 0l0 61.322838l-61.32283 0z" fill-rule="evenodd"/><path fill="#ffffff" d="m60.21389 52.725723l13.672379 14.957809l4.6141663 -4.2204704l-0.79048157 17.672108l-17.666206 -0.79021454l4.614174 -4.2204742l-13.672375 -14.957813z" fill-rule="evenodd"/><path stroke="#ff0000" stroke-width="4.0" stroke-linejoin="round" stroke-linecap="butt" d="m60.21389 52.725723l13.672379 14.957809l4.6141663 -4.2204704l-0.79048157 17.672108l-17.666206 -0.79021454l4.614174 -4.2204742l-13.672375 -14.957813z" fill-rule="evenodd"/><path fill="#ffffff" d="m43.567913 52.64802l0 20.283466l6.2519684 0l-12.503937 12.503937l-12.503939 -12.503937l6.2519684 0l0 -20.283466z" fill-rule="evenodd"/><path stroke="#ff0000" stroke-width="4.0" stroke-linejoin="round" stroke-linecap="butt" d="m43.567913 52.64802l0 20.283466l6.2519684 0l-12.503937 12.503937l-12.503939 -12.503937l6.2519684 0l0 -20.283466z" fill-rule="evenodd"/><path fill="#ffffff" d="m54.15059 32.16771l20.283463 0l0 -6.2519703l12.503937 12.503939l-12.503937 12.503937l0 -6.2519684l-20.283463 0z" fill-rule="evenodd"/><path stroke="#ff0000" stroke-width="4.0" stroke-linejoin="round" stroke-linecap="butt" d="m54.15059 32.16771l20.283463 0l0 -6.2519703l12.503937 12.503939l-12.503937 12.503937l0 -6.2519684l-20.283463 0z" fill-rule="evenodd"/></g></svg>