<svg version="1.1" viewBox="0.0 0.0 495.6902887139108 493.96587926509187" fill="none" stroke="none" stroke-linecap="square" stroke-miterlimit="10" xmlns:xlink="http://www.w3.org/1999/xlink" xmlns="http://www.w3.org/2000/svg"><clipPath id="p.0"><path d="m0 0l495.69028 0l0 493.96588l-495.69028 0l0 -493.96588z" clip-rule="nonzero"/></clipPath><g clip-path="url(#p.0)"><path fill="#000000" fill-opacity="0.0" d="m0 0l495.69028 0l0 493.96588l-495.69028 0z" fill-rule="evenodd"/><path fill="#000000" fill-opacity="0.0" d="m1.724138 1.724138l61.322838 0l0 61.322838l-61.322838 0z" fill-rule="evenodd"/><path stroke="#000000" stroke-width="1.0" stroke-linejoin="round" stroke-linecap="butt" d="m1.724138 1.724138l61.322838 0l0 61.322838l-61.322838 0z" fill-rule="evenodd"/><path fill="#b7b7b7" d="m63.034832 1.724138l61.322834 0l0 61.322838l-61.322834 0z" fill-rule="evenodd"/><path stroke="#000000" stroke-width="1.0" stroke-linejoin="round" stroke-linecap="butt" d="m63.034832 1.724138l61.322834 0l0 61.322838l-61.322834 0z" fill-rule="evenodd"/><path fill="#000000" fill-opacity="0.0" d="m63.034832 63.034832l61.322834 0l0 61.322834l-61.322834 0z" fill-rule="evenodd"/><path stroke="#000000" stroke-width="1.0" stroke-linejoin="round" stroke-linecap="butt" d="m63.034832 63.034832l61.322834 0l0 61.322834l-61.322834 0z" fill-rule="evenodd"/><path fill="#b7b7b7" d="m1.724138 63.034832l61.322838 0l0 61.322834l-61.322838 0z" fill-rule="evenodd"/><path stroke="#000000" stroke-width="1.0" stroke-linejoin="round" stroke-linecap="butt" d="m1.724138 63.034832l61.322838 0l0 61.322834l-61.322838 0z" fill-rule="evenodd"/><path fill="#000000" fill-opacity="0.0" d="m124.34553 1.724138l61.322838 0l0 61.322838l-61.322838 0z" fill-rule="evenodd"/><path stroke="#000000" stroke-width="1.0" stroke-linejoin="round" stroke-linecap="butt" d="m124.34553 1.724138l61.322838 0l0 61.322838l-61.322838 0z" fill-rule="evenodd"/><path fill="#b7b7b7" d="m185.65622 1.724138l61.322845 0l0 61.322838l-61.322845 0z" fill-rule="evenodd"/><path stroke="#000000" stroke-width="1.0" stroke-linejoin="round" stroke-linecap="butt" d="m185.65622 1.724138l61.322845 0l0 61.322838l-61.322845 0z" fill-rule="evenodd"/><path fill="#000000" fill-opacity="0.0" d="m185.65622 63.034832l61.322845 0l0 61.322834l-61.322845 0z" fill-rule="evenodd"/><path stroke="#000000" stroke-width="1.0" stroke-linejoin="round" stroke-linecap="butt" d="m185.65622 63.034832l61.322845 0l0 61.322834l-61.322845 0z" fill-rule="evenodd"/><path fill="#b7b7b7" d="m124.34553 63.034832l61.322838 0l0 61.322834l-61.322838 0z" fill-rule="evenodd"/><path stroke="#000000" stroke-width="1.0" stroke-linejoin="round" stroke-linecap="butt" d="m124.34553 63.034832l61.322838 0l0 61.322834l-61.322838 0z" fill-rule="evenodd"/><path fill="#000000" fill-opacity="0.0" d="m1.724138 124.34553l61.322838 0l0 61.322838l-61.322838 0z" fill-rule="evenodd"/><path stroke="#000000" stroke-width="1.0" stroke-linejoin="round" stroke-linecap="butt" d="m1.724138 124.34553l61.322838 0l0 61.322838l-61.322838 0z" fill-rule="evenodd"/><path fill="#b7b7b7" d="m63.034832 124.34553l61.322834 0l0 61.322838l-61.322834 0z" fill-rule="evenodd"/><path stroke="#000000" stroke-width="1.0" stroke-linejoin="round" stroke-linecap="butt" d="m63.034832 124.34553l61.322834 0l0 61.322838l-61.322834 0z" fill-rule="evenodd"/><path fill="#000000" fill-opacity="0.0" d="m63.034832 185.65622l61.322834 0l0 61.322845l-61.322834 0z" fill-rule="evenodd"/><path stroke="#000000" stroke-width="1.0" stroke-linejoin="round" stroke-linecap="butt" d="m63.034832 185.65622l61.322834 0l0 61.322845l-61.322834 0z" fill-rule="evenodd"/><path fill="#b7b7b7" d="m1.724138 185.65622l61.322838 0l0 61.322845l-61.322838 0z" fill-rule="evenodd"/><path stroke="#000000" stroke-width="1.0" stroke-linejoin="round" stroke-linecap="butt" d="m1.724138 185.65622l61.322838 0l0 61.322845l-61.322838 0z" fill-rule="evenodd"/><path fill="#000000" fill-opacity="0.0" d="m124.34553 124.34553l61.322838 0l0 61.322838l-61.322838 0z" fill-rule="evenodd"/><path stroke="#000000" stroke-width="1.0" stroke-linejoin="round" stroke-linecap="butt" d="m124.34553 124.34553l61.322838 0l0 61.322838l-61.322838 0z" fill-rule="evenodd"/><path fill="#b7b7b7" d="m185.65622 124.34553l61.322845 0l0 61.322838l-61.322845 0z" fill-rule="evenodd"/><path stroke="#000000" stroke-width="1.0" stroke-linejoin="round" stroke-linecap="butt" d="m185.65622 124.34553l61.322845 0l0 61.322838l-61.322845 0z" fill-rule="evenodd"/><path fill="#000000" fill-opacity="0.0" d="m185.65622 185.65622l61.322845 0l0 61.322845l-61.322845 0z" fill-rule="evenodd"/><path stroke="#000000" stroke-width="1.0" stroke-linejoin="round" stroke-linecap="butt" d="m185.65622 185.65622l61.322845 0l0 61.322845l-61.322845 0z" fill-rule="evenodd"/><path fill="#b7b7b7" d="m124.34553 185.65622l61.322838 0l0 61.322845l-61.322838 0z" fill-rule="evenodd"/><path stroke="#000000" stroke-width="1.0" stroke-linejoin="round" stroke-linecap="butt" d="m124.34553 185.65622l61.322838 0l0 61.322845l-61.322838 0z" fill-rule="evenodd"/><path fill="#000000" fill-opacity="0.0" d="m246.96692 1.724138l61.322845 0l0 61.322838l-61.322845 0z" fill-rule="evenodd"/><path stroke="#000000" stroke-width="1.0" stroke-linejoin="round" stroke-linecap="butt" d="m246.96692 1.724138l61.322845 0l0 61.322838l-61.322845 0z" fill-rule="evenodd"/><path fill="#b7b7b7" d="m308.27762 1.724138l61.322845 0l0 61.322838l-61.322845 0z" fill-rule="evenodd"/><path stroke="#000000" stroke-width="1.0" stroke-linejoin="round" stroke-linecap="butt" d="m308.27762 1.724138l61.322845 0l0 61.322838l-61.322845 0z" fill-rule="evenodd"/><path fill="#000000" fill-opacity="0.0" d="m308.27762 63.034832l61.322845 0l0 61.322834l-61.322845 0z" fill-rule="evenodd"/><path stroke="#000000" stroke-width="1.0" stroke-linejoin="round" stroke-linecap="butt" d="m308.27762 63.034832l61.322845 0l0 61.322834l-61.322845 0z" fill-rule="evenodd"/><path fill="#b7b7b7" d="m246.96692 63.034832l61.322845 0l0 61.322834l-61.322845 0z" fill-rule="evenodd"/><path stroke="#000000" stroke-width="1.0" stroke-linejoin="round" stroke-linecap="butt" d="m246.96692 63.034832l61.322845 0l0 61.322834l-61.322845 0z" fill-rule="evenodd"/><path fill="#000000" fill-opacity="0.0" d="m369.58832 1.724138l61.322815 0l0 61.322838l-61.322815 0z" fill-rule="evenodd"/><path stroke="#000000" stroke-width="1.0" stroke-linejoin="round" stroke-linecap="butt" d="m369.58832 1.724138l61.322815 0l0 61.322838l-61.322815 0z" fill-rule="evenodd"/><path fill="#b7b7b7" d="m430.89902 1.724138l61.322815 0l0 61.322838l-61.322815 0z" fill-rule="evenodd"/><path stroke="#000000" stroke-width="1.0" stroke-linejoin="round" stroke-linecap="butt" d="m430.89902 1.724138l61.322815 0l0 61.322838l-61.322815 0z" fill-rule="evenodd"/><path fill="#000000" fill-opacity="0.0" d="m430.89902 63.034832l61.322815 0l0 61.322834l-61.322815 0z" fill-rule="evenodd"/><path stroke="#000000" stroke-width="1.0" stroke-linejoin="round" stroke-linecap="butt" d="m430.89902 63.034832l61.322815 0l0 61.322834l-61.322815 0z" fill-rule="evenodd"/><path fill="#b7b7b7" d="m369.58832 63.034832l61.322815 0l0 61.322834l-61.322815 0z" fill-rule="evenodd"/><path stroke="#000000" stroke-width="1.0" stroke-linejoin="round" stroke-linecap="butt" d="m369.58832 63.034832l61.322815 0l0 61.322834l-61.322815 0z" fill-rule="evenodd"/><path fill="#000000" fill-opacity="0.0" d="m246.96692 124.34553l61.322845 0l0 61.322838l-61.322845 0z" fill-rule="evenodd"/><path stroke="#000000" stroke-width="1.0" stroke-linejoin="round" stroke-linecap="butt" d="m246.96692 124.34553l61.322845 0l0 61.322838l-61.322845 0z" fill-rule="evenodd"/><path fill="#b7b7b7" d="m308.27762 124.34553l61.322845 0l0 61.322838l-61.322845 0z" fill-rule="evenodd"/><path stroke="#000000" stroke-width="1.0" stroke-linejoin="round" stroke-linecap="butt" d="m308.27762 124.34553l61.322845 0l0 61.322838l-61.322845 0z" fill-rule="evenodd"/><path fill="#000000" fill-opacity="0.0" d="m308.27762 185.65622l61.322845 0l0 61.322845l-61.322845 0z" fill-rule="evenodd"/><path stroke="#000000" stroke-width="1.0" stroke-linejoin="round" stroke-linecap="butt" d="m308.27762 185.65622l61.322845 0l0 61.322845l-61.322845 0z" fill-rule="evenodd"/><path fill="#b7b7b7" d="m246.96692 185.65622l61.322845 0l0 61.322845l-61.322845 0z" fill-rule="evenodd"/><path stroke="#000000" stroke-width="1.0" stroke-linejoin="round" stroke-linecap="butt" d="m246.96692 185.65622l61.322845 0l0 61.322845l-61.322845 0z" fill-rule="evenodd"/><path fill="#000000" fill-opacity="0.0" d="m369.58832 124.34553l61.322815 0l0 61.322838l-61.322815 0z" fill-rule="evenodd"/><path stroke="#000000" stroke-width="1.0" stroke-linejoin="round" stroke-linecap="butt" d="m369.58832 124.34553l61.322815 0l0 61.322838l-61.322815 0z" fill-rule="evenodd"/><path fill="#b7b7b7" d="m430.89902 124.34553l61.322815 0l0 61.322838l-61.322815 0z" fill-rule="evenodd"/><path stroke="#000000" stroke-width="1.0" stroke-linejoin="round" stroke-linecap="butt" d="m430.89902 124.34553l61.322815 0l0 61.322838l-61.322815 0z" fill-rule="evenodd"/><path fill="#000000" fill-opacity="0.0" d="m430.89902 185.65622l61.322815 0l0 61.322845l-61.322815 0z" fill-rule="evenodd"/><path stroke="#000000" stroke-width="1.0" stroke-linejoin="round" stroke-linecap="butt" d="m430.89902 185.65622l61.322815 0l0 61.322845l-61.322815 0z" fill-rule="evenodd"/><path fill="#b7b7b7" d="m369.58832 185.65622l61.322815 0l0 61.322845l-61.322815 0z" fill-rule="evenodd"/><path stroke="#000000" stroke-width="1.0" stroke-linejoin="round" stroke-linecap="butt" d="m369.58832 185.65622l61.322815 0l0 61.322845l-61.322815 0z" fill-rule="evenodd"/><path fill="#000000" fill-opacity="0.0" d="m1.724138 246.96692l61.322838 0l0 61.322845l-61.322838 0z" fill-rule="evenodd"/><path stroke="#000000" stroke-width="1.0" stroke-linejoin="round" stroke-linecap="butt" d="m1.724138 246.96692l61.322838 0l0 61.322845l-61.322838 0z" fill-rule="evenodd"/><path fill="#b7b7b7" d="m63.034832 246.96692l61.322834 0l0 61.322845l-61.322834 0z" fill-rule="evenodd"/><path stroke="#000000" stroke-width="1.0" stroke-linejoin="round" stroke-linecap="butt" d="m63.034832 246.96692l61.322834 0l0 61.322845l-61.322834 0z" fill-rule="evenodd"/><path fill="#000000" fill-opacity="0.0" d="m63.034832 308.27762l61.322834 0l0 61.322845l-61.322834 0z" fill-rule="evenodd"/><path stroke="#000000" stroke-width="1.0" stroke-linejoin="round" stroke-linecap="butt" d="m63.034832 308.27762l61.322834 0l0 61.322845l-61.322834 0z" fill-rule="evenodd"/><path fill="#b7b7b7" d="m1.724138 308.27762l61.322838 0l0 61.322845l-61.322838 0z" fill-rule="evenodd"/><path stroke="#000000" stroke-width="1.0" stroke-linejoin="round" stroke-linecap="butt" d="m1.724138 308.27762l61.322838 0l0 61.322845l-61.322838 0z" fill-rule="evenodd"/><path fill="#000000" fill-opacity="0.0" d="m124.34553 246.96692l61.322838 0l0 61.322845l-61.322838 0z" fill-rule="evenodd"/><path stroke="#000000" stroke-width="1.0" stroke-linejoin="round" stroke-linecap="butt" d="m124.34553 246.96692l61.322838 0l0 61.322845l-61.322838 0z" fill-rule="evenodd"/><path fill="#b7b7b7" d="m185.65622 246.96692l61.322845 0l0 61.322845l-61.322845 0z" fill-rule="evenodd"/><path stroke="#000000" stroke-width="1.0" stroke-linejoin="round" stroke-linecap="butt" d="m185.65622 246.96692l61.322845 0l0 61.322845l-61.322845 0z" fill-rule="evenodd"/><path fill="#000000" fill-opacity="0.0" d="m185.65622 308.27762l61.322845 0l0 61.322845l-61.322845 0z" fill-rule="evenodd"/><path stroke="#000000" stroke-width="1.0" stroke-linejoin="round" stroke-linecap="butt" d="m185.65622 308.27762l61.322845 0l0 61.322845l-61.322845 0z" fill-rule="evenodd"/><path fill="#b7b7b7" d="m124.34553 308.27762l61.322838 0l0 61.322845l-61.322838 0z" fill-rule="evenodd"/><path stroke="#000000" stroke-width="1.0" stroke-linejoin="round" stroke-linecap="butt" d="m124.34553 308.27762l61.322838 0l0 61.322845l-61.322838 0z" fill-rule="evenodd"/><path fill="#000000" fill-opacity="0.0" d="m1.724138 369.58832l61.322838 0l0 61.322815l-61.322838 0z" fill-rule="evenodd"/><path stroke="#000000" stroke-width="1.0" stroke-linejoin="round" stroke-linecap="butt" d="m1.724138 369.58832l61.322838 0l0 61.322815l-61.322838 0z" fill-rule="evenodd"/><path fill="#b7b7b7" d="m63.034832 369.58832l61.322834 0l0 61.322815l-61.322834 0z" fill-rule="evenodd"/><path stroke="#000000" stroke-width="1.0" stroke-linejoin="round" stroke-linecap="butt" d="m63.034832 369.58832l61.322834 0l0 61.322815l-61.322834 0z" fill-rule="evenodd"/><path fill="#000000" fill-opacity="0.0" d="m63.034832 430.89902l61.322834 0l0 61.322815l-61.322834 0z" fill-rule="evenodd"/><path stroke="#000000" stroke-width="1.0" stroke-linejoin="round" stroke-linecap="butt" d="m63.034832 430.89902l61.322834 0l0 61.322815l-61.322834 0z" fill-rule="evenodd"/><path fill="#b7b7b7" d="m1.724138 430.89902l61.322838 0l0 61.322815l-61.322838 0z" fill-rule="evenodd"/><path stroke="#000000" stroke-width="1.0" stroke-linejoin="round" stroke-linecap="butt" d="m1.724138 430.89902l61.322838 0l0 61.322815l-61.322838 0z" fill-rule="evenodd"/><path fill="#000000" fill-opacity="0.0" d="m124.34553 369.58832l61.322838 0l0 61.322815l-61.322838 0z" fill-rule="evenodd"/><path stroke="#000000" stroke-width="1.0" stroke-linejoin="round" stroke-linecap="butt" d="m124.34553 369.58832l61.322838 0l0 61.322815l-61.322838 0z" fill-rule="evenodd"/><path fill="#b7b7b7" d="m185.65622 369.58832l61.322845 0l0 61.322815l-61.322845 0z" fill-rule="evenodd"/><path stroke="#000000" stroke-width="1.0" stroke-linejoin="round" stroke-linecap="butt" d="m185.65622 369.58832l61.322845 0l0 61.322815l-61.322845 0z" fill-rule="evenodd"/><path fill="#000000" fill-opacity="0.0" d="m185.65622 430.89902l61.322845 0l0 61.322815l-61.322845 0z" fill-rule="evenodd"/><path stroke="#000000" stroke-width="1.0" stroke-linejoin="round" stroke-linecap="butt" d="m185.65622 430.89902l61.322845 0l0 61.322815l-61.322845 0z" fill-rule="evenodd"/><path fill="#b7b7b7" d="m124.34553 430.89902l61.322838 0l0 61.322815l-61.322838 0z" fill-rule="evenodd"/><path stroke="#000000" stroke-width="1.0" stroke-linejoin="round" stroke-linecap="butt" d="m124.34553 430.89902l61.322838 0l0 61.322815l-61.322838 0z" fill-rule="evenodd"/><path fill="#000000" fill-opacity="0.0" d="m246.96692 246.96692l61.322845 0l0 61.322845l-61.322845 0z" fill-rule="evenodd"/><path stroke="#000000" stroke-width="1.0" stroke-linejoin="round" stroke-linecap="butt" d="m246.96692 246.96692l61.322845 0l0 61.322845l-61.322845 0z" fill-rule="evenodd"/><path fill="#b7b7b7" d="m308.27762 246.96692l61.322845 0l0 61.322845l-61.322845 0z" fill-rule="evenodd"/><path stroke="#000000" stroke-width="1.0" stroke-linejoin="round" stroke-linecap="butt" d="m308.27762 246.96692l61.322845 0l0 61.322845l-61.322845 0z" fill-rule="evenodd"/><path fill="#000000" fill-opacity="0.0" d="m308.27762 308.27762l61.322845 0l0 61.322845l-61.322845 0z" fill-rule="evenodd"/><path stroke="#000000" stroke-width="1.0" stroke-linejoin="round" stroke-linecap="butt" d="m308.27762 308.27762l61.322845 0l0 61.322845l-61.322845 0z" fill-rule="evenodd"/><path fill="#b7b7b7" d="m246.96692 308.27762l61.322845 0l0 61.322845l-61.322845 0z" fill-rule="evenodd"/><path stroke="#000000" stroke-width="1.0" stroke-linejoin="round" stroke-linecap="butt" d="m246.96692 308.27762l61.322845 0l0 61.322845l-61.322845 0z" fill-rule="evenodd"/><path fill="#000000" fill-opacity="0.0" d="m369.58832 246.96692l61.322815 0l0 61.322845l-61.322815 0z" fill-rule="evenodd"/><path stroke="#000000" stroke-width="1.0" stroke-linejoin="round" stroke-linecap="butt" d="m369.58832 246.96692l61.322815 0l0 61.322845l-61.322815 0z" fill-rule="evenodd"/><path fill="#b7b7b7" d="m430.89902 246.96692l61.322815 0l0 61.322845l-61.322815 0z" fill-rule="evenodd"/><path stroke="#000000" stroke-width="1.0" stroke-linejoin="round" stroke-linecap="butt" d="m430.89902 246.96692l61.322815 0l0 61.322845l-61.322815 0z" fill-rule="evenodd"/><path fill="#000000" fill-opacity="0.0" d="m430.89902 308.27762l61.322815 0l0 61.322845l-61.322815 0z" fill-rule="evenodd"/><path stroke="#000000" stroke-width="1.0" stroke-linejoin="round" stroke-linecap="butt" d="m430.89902 308.27762l61.322815 0l0 61.322845l-61.322815 0z" fill-rule="evenodd"/><path fill="#b7b7b7" d="m369.58832 308.27762l61.322815 0l0 61.322845l-61.322815 0z" fill-rule="evenodd"/><path stroke="#000000" stroke-width="1.0" stroke-linejoin="round" stroke-linecap="butt" d="m369.58832 308.27762l61.322815 0l0 61.322845l-61.322815 0z" fill-rule="evenodd"/><path fill="#000000" fill-opacity="0.0" d="m246.96692 369.58832l61.322845 0l0 61.322815l-61.322845 0z" fill-rule="evenodd"/><path stroke="#000000" stroke-width="1.0" stroke-linejoin="round" stroke-linecap="butt" d="m246.96692 369.58832l61.322845 0l0 61.322815l-61.322845 0z" fill-rule="evenodd"/><path fill="#b7b7b7" d="m308.27762 369.58832l61.322845 0l0 61.322815l-61.322845 0z" fill-rule="evenodd"/><path stroke="#000000" stroke-width="1.0" stroke-linejoin="round" stroke-linecap="butt" d="m308.27762 369.58832l61.322845 0l0 61.322815l-61.322845 0z" fill-rule="evenodd"/><path fill="#000000" fill-opacity="0.0" d="m308.27762 430.89902l61.322845 0l0 61.322815l-61.322845 0z" fill-rule="evenodd"/><path stroke="#000000" stroke-width="1.0" stroke-linejoin="round" stroke-linecap="butt" d="m308.27762 430.89902l61.322845 0l0 61.322815l-61.322845 0z" fill-rule="evenodd"/><path fill="#b7b7b7" d="m246.96692 430.89902l61.322845 0l0 61.322815l-61.322845 0z" fill-rule="evenodd"/><path stroke="#000000" stroke-width="1.0" stroke-linejoin="round" stroke-linecap="butt" d="m246.96692 430.89902l61.322845 0l0 61.322815l-61.322845 0z" fill-rule="evenodd"/><path fill="#000000" fill-opacity="0.0" d="m369.58832 369.58832l61.322815 0l0 61.322815l-61.322815 0z" fill-rule="evenodd"/><path stroke="#000000" stroke-width="1.0" stroke-linejoin="round" stroke-linecap="butt" d="m369.58832 369.58832l61.322815 0l0 61.322815l-61.322815 0z" fill-rule="evenodd"/><path fill="#b7b7b7" d="m430.89902 369.58832l61.322815 0l0 61.322815l-61.322815 0z" fill-rule="evenodd"/><path stroke="#000000" stroke-width="1.0" stroke-linejoin="round" stroke-linecap="butt" d="m430.89902 369.58832l61.322815 0l0 61.322815l-61.322815 0z" fill-rule="evenodd"/><path fill="#000000" fill-opacity="0.0" d="m430.89902 430.89902l61.322815 0l0 61.322815l-61.322815 0z" fill-rule="evenodd"/><path stroke="#000000" stroke-width="1.0" stroke-linejoin="round" stroke-linecap="butt" d="m430.89902 430.89902l61.322815 0l0 61.322815l-61.322815 0z" fill-rule="evenodd"/><path fill="#b7b7b7" d="m369.58832 430.89902l61.322815 0l0 61.322815l-61.322815 0z" fill-rule="evenodd"/><path stroke="#000000" stroke-width="1.0" stroke-linejoin="round" stroke-linecap="butt" d="m369.58832 430.89902l61.322815 0l0 61.322815l-61.322815 0z" fill-rule="evenodd"/></g></svg>