<svg version="1.1" viewBox="0.0 0.0 1111.3412073490813 400.0" fill="none" stroke="none" stroke-linecap="square" stroke-miterlimit="10" xmlns:xlink="http://www.w3.org/1999/xlink" xmlns="http://www.w3.org/2000/svg"><clipPath id="p.0"><path d="m0 0l1111.3412 0l0 400.0l-1111.3412 0l0 -400.0z" clip-rule="nonzero"/></clipPath><g clip-path="url(#p.0)"><path fill="#000000" fill-opacity="0.0" d="m0 0l1111.3412 0l0 400.0l-1111.3412 0z" fill-rule="evenodd"/><path fill="#ffffff" d="m197.67717 92.58601l100.62993 0l0 100.62991l-100.62993 0z" fill-rule="evenodd"/><path stroke="#000000" stroke-width="1.0" stroke-linejoin="round" stroke-linecap="butt" d="m197.67717 92.58601l100.62993 0l0 100.62991l-100.62993 0z" fill-rule="evenodd"/><path fill="#ffffff" d="m298.3071 92.58601l100.62991 0l0 100.62991l-100.62991 0z" fill-rule="evenodd"/><path stroke="#000000" stroke-width="1.0" stroke-linejoin="round" stroke-linecap="butt" d="m298.3071 92.58601l100.62991 0l0 100.62991l-100.62991 0z" fill-rule="evenodd"/><path fill="#ffffff" d="m398.937 92.58601l100.62991 0l0 100.62991l-100.62991 0z" fill-rule="evenodd"/><path stroke="#000000" stroke-width="1.0" stroke-linejoin="round" stroke-linecap="butt" d="m398.937 92.58601l100.62991 0l0 100.62991l-100.62991 0z" fill-rule="evenodd"/><path fill="#ffffff" d="m182.62993 121.829l343.66925 -0.21030426l0 -8.307091l16.614197 16.604012l-16.614197 16.624344l0 -8.307098l-343.66925 0.21031189z" fill-rule="evenodd"/><path stroke="#ff0000" stroke-width="4.0" stroke-linejoin="round" stroke-linecap="butt" d="m182.62993 121.829l343.66925 -0.21030426l0 -8.307091l16.614197 16.604012l-16.614197 16.624344l0 -8.307098l-343.66925 0.21031189z" fill-rule="evenodd"/><path fill="#ffffff" d="m147.3625 193.21593l100.62993 0l0 100.62993l-100.62993 0z" fill-rule="evenodd"/><path stroke="#000000" stroke-width="1.0" stroke-linejoin="round" stroke-linecap="butt" d="m147.3625 193.21593l100.62993 0l0 100.62993l-100.62993 0z" fill-rule="evenodd"/><path fill="#ffffff" d="m247.99274 193.21593l100.62991 0l0 100.62993l-100.62991 0z" fill-rule="evenodd"/><path stroke="#000000" stroke-width="1.0" stroke-linejoin="round" stroke-linecap="butt" d="m247.99274 193.21593l100.62991 0l0 100.62993l-100.62991 0z" fill-rule="evenodd"/><path fill="#ffffff" d="m348.62265 193.21593l100.62991 0l0 100.62993l-100.62991 0z" fill-rule="evenodd"/><path stroke="#000000" stroke-width="1.0" stroke-linejoin="round" stroke-linecap="butt" d="m348.62265 193.21593l100.62991 0l0 100.62993l-100.62991 0z" fill-rule="evenodd"/><path fill="#ffffff" d="m123.86089 227.86444l343.66928 -0.21031189l0 -8.307083l16.614166 16.604004l-16.614166 16.624344l0 -8.307083l-343.66928 0.21029663z" fill-rule="evenodd"/><path stroke="#ff0000" stroke-width="4.0" stroke-linejoin="round" stroke-linecap="butt" d="m123.86089 227.86444l343.66928 -0.21031189l0 -8.307083l16.614166 16.604004l-16.614166 16.624344l0 -8.307083l-343.66928 0.21029663z" fill-rule="evenodd"/><path fill="#000000" fill-opacity="0.0" d="m20.756124 211.83667l112.62992 0l0 59.08661l-112.62992 0z" fill-rule="evenodd"/><path fill="#000000" d="m41.637 245.15666l0 -18.125l7.703125 0q2.90625 0 4.21875 0.484375q1.3125 0.484375 2.109375 1.734375q0.796875 1.25 0.796875 2.859375q0 2.046875 -1.203125 3.375q-1.203125 1.328125 -3.59375 1.671875q1.1875 0.6875 1.953125 1.515625q0.78125 0.828125 2.09375 2.953125l2.21875 3.53125l-4.375 0l-2.65625 -3.9375q-1.40625 -2.125 -1.921875 -2.671875q-0.515625 -0.546875 -1.109375 -0.75q-0.578125 -0.203125 -1.828125 -0.203125l-0.75 0l0 7.5625l-3.65625 0zm3.65625 -10.46875l2.703125 0q2.640625 0 3.296875 -0.21875q0.65625 -0.21875 1.015625 -0.765625q0.375 -0.546875 0.375 -1.359375q0 -0.921875 -0.484375 -1.484375q-0.484375 -0.5625 -1.375 -0.703125q-0.453125 -0.0625 -2.671875 -0.0625l-2.859375 0l0 4.59375zm13.791168 3.71875q0 -1.734375 0.84375 -3.34375q0.859375 -1.625 2.421875 -2.484375q1.5625 -0.859375 3.5 -0.859375q2.984375 0 4.875 1.9375q1.90625 1.9375 1.90625 4.890625q0 2.984375 -1.921875 4.953125q-1.921875 1.953125 -4.84375 1.953125q-1.796875 0 -3.4375 -0.8125q-1.640625 -0.8125 -2.5 -2.390625q-0.84375 -1.578125 -0.84375 -3.84375zm3.5625 0.1875q0 1.953125 0.921875 3.0q0.9375 1.03125 2.296875 1.03125q1.359375 0 2.28125 -1.03125q0.921875 -1.046875 0.921875 -3.03125q0 -1.921875 -0.921875 -2.953125q-0.921875 -1.046875 -2.28125 -1.046875q-1.359375 0 -2.296875 1.046875q-0.921875 1.03125 -0.921875 2.984375zm15.158936 6.5625l-4.15625 -13.140625l3.375 0l2.46875 8.609375l2.265625 -8.609375l3.34375 0l2.1875 8.609375l2.515625 -8.609375l3.421875 0l-4.21875 13.140625l-3.34375 0l-2.25 -8.453125l-2.234375 8.453125l-3.375 0zm35.28488 -3.234375l0 3.234375l-12.1875 0q0.203125 -1.828125 1.1875 -3.46875q1.0 -1.640625 3.90625 -4.34375q2.359375 -2.1875 2.890625 -2.96875q0.71875 -1.078125 0.71875 -2.125q0 -1.171875 -0.625 -1.796875q-0.625 -0.625 -1.734375 -0.625q-1.078125 0 -1.734375 0.65625q-0.640625 0.65625 -0.734375 2.1875l-3.46875 -0.359375q0.3125 -2.859375 1.9375 -4.109375q1.640625 -1.25 4.09375 -1.25q2.6875 0 4.21875 1.453125q1.53125 1.4375 1.53125 3.59375q0 1.21875 -0.4375 2.328125q-0.4375 1.109375 -1.390625 2.3125q-0.640625 0.8125 -2.28125 2.328125q-1.640625 1.5 -2.078125 2.0q-0.4375 0.484375 -0.71875 0.953125l6.90625 0z" fill-rule="nonzero"/><path fill="#ffffff" d="m97.04785 293.84586l100.62991 0l0 100.62991l-100.62991 0z" fill-rule="evenodd"/><path stroke="#000000" stroke-width="1.0" stroke-linejoin="round" stroke-linecap="butt" d="m97.04785 293.84586l100.62991 0l0 100.62991l-100.62991 0z" fill-rule="evenodd"/><path fill="#ffffff" d="m197.67776 293.84586l100.62991 0l0 100.62991l-100.62991 0z" fill-rule="evenodd"/><path stroke="#000000" stroke-width="1.0" stroke-linejoin="round" stroke-linecap="butt" d="m197.67776 293.84586l100.62991 0l0 100.62991l-100.62991 0z" fill-rule="evenodd"/><path fill="#ffffff" d="m298.30768 293.84586l100.629944 0l0 100.62991l-100.629944 0z" fill-rule="evenodd"/><path stroke="#000000" stroke-width="1.0" stroke-linejoin="round" stroke-linecap="butt" d="m298.30768 293.84586l100.629944 0l0 100.62991l-100.629944 0z" fill-rule="evenodd"/><path fill="#000000" fill-opacity="0.0" d="m79.525154 105.80123l112.62992 0l0 59.086617l-112.62992 0z" fill-rule="evenodd"/><path fill="#000000" d="m100.40603 139.12123l0 -18.125l7.703125 0q2.90625 0 4.21875 0.484375q1.3125 0.484375 2.109375 1.734375q0.796875 1.25 0.796875 2.859375q0 2.046875 -1.203125 3.375q-1.203125 1.328125 -3.59375 1.671875q1.1875 0.6875 1.953125 1.515625q0.78125 0.828125 2.09375 2.953125l2.21875 3.53125l-4.375 0l-2.65625 -3.9375q-1.40625 -2.125 -1.921875 -2.671875q-0.515625 -0.546875 -1.109375 -0.75q-0.578125 -0.203125 -1.828125 -0.203125l-0.75 0l0 7.5625l-3.65625 0zm3.65625 -10.46875l2.703125 0q2.640625 0 3.296875 -0.21875q0.65625 -0.21875 1.015625 -0.765625q0.375 -0.546875 0.375 -1.359375q0 -0.921875 -0.484375 -1.484375q-0.484375 -0.5625 -1.375 -0.703125q-0.453125 -0.0625 -2.671875 -0.0625l-2.859375 0l0 4.59375zm13.791168 3.71875q0 -1.734375 0.84375 -3.34375q0.859375 -1.625 2.421875 -2.484375q1.5625 -0.859375 3.5 -0.859375q2.984375 0 4.8750076 1.9375q1.90625 1.9375 1.90625 4.890625q0 2.984375 -1.921875 4.953125q-1.9218826 1.953125 -4.8437576 1.953125q-1.796875 0 -3.4375 -0.8125q-1.640625 -0.8125 -2.5 -2.390625q-0.84375 -1.578125 -0.84375 -3.84375zm3.5625 0.1875q0 1.953125 0.921875 3.0q0.9375 1.03125 2.296875 1.03125q1.359375 0 2.28125 -1.03125q0.921875 -1.046875 0.921875 -3.03125q0 -1.921875 -0.921875 -2.953125q-0.921875 -1.046875 -2.28125 -1.046875q-1.359375 0 -2.296875 1.046875q-0.921875 1.03125 -0.921875 2.984375zm15.158943 6.5625l-4.15625 -13.140625l3.375 0l2.46875 8.609375l2.265625 -8.609375l3.3437347 0l2.1875 8.609375l2.515625 -8.609375l3.421875 0l-4.21875 13.140625l-3.34375 0l-2.2499847 -8.453125l-2.234375 8.453125l-3.375 0zm32.441116 0l-3.46875 0l0 -13.09375q-1.90625 1.78125 -4.5 2.625l0 -3.140625q1.359375 -0.453125 2.953125 -1.6875q1.59375 -1.25 2.1875 -2.90625l2.828125 0l0 18.203125z" fill-rule="nonzero"/><path fill="#ffffff" d="m394.37277 157.28926l68.944885 -119.40158l36.125977 20.850391l-68.944885 119.40157z" fill-rule="evenodd"/><path fill="#000000" d="m429.7952 149.23463l2.7557678 -2.5227509q2.157135 2.2011566 2.4624634 4.5783386q0.29962158 2.3558502 -1.1536255 4.8726654q-1.8126831 3.1392517 -5.1150208 3.921341q-3.2945251 0.7685547 -7.0025024 -1.3715363q-3.9244995 -2.2650604 -4.925598 -5.530899q-0.9932556 -3.2793732 0.9131775 -6.5809937q1.6642151 -2.8821564 4.4085083 -3.6976776q1.6186523 -0.4909973 3.8044128 0.06695557l-1.0548096 3.5766296q-1.3742065 -0.432312 -2.5935974 0.054595947q-1.2250977 0.46557617 -1.9517212 1.7239838q-1.007904 1.7455292 -0.38223267 3.5679321q0.6199646 1.8010712 3.434784 3.4256592q2.9772034 1.7183228 4.8665466 1.3835449q1.8757629 -0.34257507 2.868042 -2.0610504q0.73446655 -1.2719421 0.45950317 -2.6393433q-0.28848267 -1.3752289 -1.7940979 -2.767395zm2.8672485 -5.1218567q-1.5021362 -0.8669586 -2.4740906 -2.4021301q-0.97769165 -1.5565186 -0.9406738 -3.3392181q0.037017822 -1.7827148 1.0058594 -3.4605865q1.4923401 -2.5844574 4.1157837 -3.2532349q2.6312866 -0.682312 5.188965 0.7938843q2.5847778 1.4918213 3.328888 4.1402893q0.7305603 2.6406555 -0.73049927 5.1710052q-0.89852905 1.5560913 -2.4226074 2.5707245q-1.5241089 1.0146332 -3.3206482 0.96998596q-1.7887268 -0.058181763 -3.7509766 -1.1907196zm1.9438171 -2.991394q1.6915894 0.97631836 3.0592651 0.70129395q1.361969 -0.29638672 2.0417175 -1.4736023q0.67974854 -1.1772156 0.2475586 -2.4910583q-0.44570923 -1.3216553 -2.1643677 -2.3135834q-1.6645508 -0.9607086 -3.0186768 -0.67785645q-1.3676758 0.27503967 -2.0474243 1.4522552q-0.67974854 1.1772156 -0.2418518 2.5124054q0.43218994 1.3138275 2.1237793 2.2901459zm12.037231 -7.7227936l-15.697998 -9.060226l1.7423401 -3.0174637l15.698029 9.060234l-1.7423706 3.017456zm7.8473206 -13.590309l-1.7051086 -0.98413086q0.5472717 1.1457443 0.4890747 2.4651947q-0.05822754 1.319458 -0.7067261 2.4425507q-0.66412354 1.1501541 -1.6882935 1.7677612q-1.0242004 0.6175995 -2.1653137 0.5002289q-1.154602 -0.1251831 -2.7650146 -1.0546341l-7.1994324 -4.1552124l1.7345276 -3.0039368l5.2371826 3.0226822q2.3952942 1.3824692 3.030365 1.5325165q0.6428833 0.13651276 1.2177124 -0.10903168q0.5612488 -0.25335693 0.9519348 -0.9299164q0.44534302 -0.7712784 0.3774109 -1.6223145q-0.073638916 -0.8723755 -0.5711365 -1.4481583q-0.50320435 -0.5971298 -2.9391174 -2.0030289l-4.804138 -2.7727432l1.7345581 -3.0039368l11.3810425 6.568672l-1.6095276 2.7874374zm-8.098145 -12.25412l1.6016846 -2.773903l1.5562744 0.89821625q-0.95391846 -2.5350494 0.2336731 -4.5918045q0.62506104 -1.0824966 1.5461426 -1.6152802q0.91537476 -0.5541229 2.118988 -0.5450058q-0.46914673 -1.2810593 -0.41571045 -2.4048004q0.03994751 -1.1315613 0.61032104 -2.119339q0.71881104 -1.244873 1.7330933 -1.8140717q1.0142822 -0.5691986 2.238678 -0.43984222q0.9104614 0.11054993 2.547943 1.0556259l7.26709 4.1942673l-1.7345276 3.0039291l-6.4957275 -3.7490616q-1.7051392 -0.98412323 -2.3720093 -0.9540863q-0.8782654 0.052368164 -1.3782959 0.9183731q-0.36721802 0.63596344 -0.2951355 1.4172516q0.05859375 0.77347565 0.65444946 1.4601517q0.6036682 0.6731415 2.200531 1.5947876l5.467224 3.1554565l-1.7345276 3.0039368l-6.238617 -3.6006622q-1.651001 -0.9528885 -2.2319336 -1.0716934q-0.5809326 -0.11880493 -1.0063171 0.08670044q-0.42538452 0.20549774 -0.75354004 0.77381134q-0.40628052 0.70362854 -0.3477173 1.4771042q0.045043945 0.76566315 0.6081238 1.4153748q0.5630493 0.6497116 2.2140503 1.6025925l5.5213623 3.1867065l-1.7345276 3.0039368l-11.3810425 -6.568672zm28.744568 -23.50219l-1.7345276 3.0039291l-5.8055725 -3.3507233q-1.8404541 -1.062233 -2.4989624 -1.1716843q-0.6506958 -0.12298584 -1.1984253 0.1381836q-0.54776 0.2611618 -0.899353 0.8700714q-0.45315552 0.7848129 -0.3795166 1.6571884q0.06011963 0.864563 0.63098145 1.50074q0.57089233 0.63617706 2.479004 1.7374649l5.156006 2.9758224l-1.7345581 3.0039291l-11.3810425 -6.5686646l1.6095276 -2.7874374l1.6780396 0.96850586q-1.0757141 -2.605339 0.22909546 -4.865059q0.5781555 -1.0013123 1.420166 -1.6158295q0.8284607 -0.6223297 1.6390381 -0.7137604q0.7970581 -0.099235535 1.5945129 0.14453888q0.80526733 0.23023987 2.1315002 0.99567413l7.064087 4.0771103zm0.68029785 -10.8022995l1.3280029 -3.1122894q1.1956177 0.49162292 2.1426697 0.2263794q0.9335022 -0.2730484 1.4335327 -1.1390533q0.53912354 -0.9336548 0.20263672 -1.975769q-0.33648682 -1.0421143 -1.5408936 -1.7372589q-1.1367493 -0.65608215 -2.1514587 -0.4298935q-1.0147095 0.22618866 -1.5225525 1.1057205q-0.33596802 0.5818405 -0.56689453 1.5129623l-2.2619019 -1.7384567q0.7302246 -1.2021942 0.54260254 -2.15839q-0.19332886 -0.9775429 -1.1270752 -1.5164719q-0.7984619 -0.46082306 -1.5320129 -0.25278854q-0.73931885 0.1866951 -1.1924744 0.971508q-0.44534302 0.7712784 -0.22439575 1.638485q0.215271 0.8458557 1.1812439 1.5477066l-2.075348 2.500534q-1.2568665 -1.1042633 -1.773468 -2.1781693q-0.51660156 -1.073906 -0.40216064 -2.3969955q0.12225342 -1.3366127 0.86450195 -2.6220818q1.2813721 -2.21912 3.4622803 -2.746418q1.8045044 -0.43785477 3.2660522 0.40568542q2.0569763 1.1872025 1.9836426 4.1576805q1.0712585 -1.1677628 2.5414734 -1.4016533q1.4702148 -0.23389435 2.9046936 0.59402084q2.0569763 1.1872063 2.6434326 3.5462456q0.5942688 2.3455048 -0.7105408 4.605217q-1.2266846 2.124405 -3.2572021 2.8287048q-2.0362244 0.6829605 -4.158386 -0.23516083z" fill-rule="nonzero"/><path fill="#ffffff" d="m292.72968 156.79335l69.63779 -120.62992l38.04724 21.952759l-69.63779 120.62992z" fill-rule="evenodd"/><path fill="#000000" d="m328.50415 148.12386l2.7555542 -2.5230713q2.1573792 2.2008667 2.4629822 4.5779877q0.29986572 2.3557892 -1.1531372 4.872757q-1.8123474 3.1394196 -5.1146545 3.9219055q-3.294464 0.7689514 -7.002716 -1.3706665q-3.9248047 -2.264557 -4.926239 -5.5302277q-0.99365234 -3.2792206 0.91244507 -6.5810394q1.6639099 -2.8823242 4.408142 -3.698166q1.6186523 -0.49118042 3.8045044 0.0664978l-1.0544434 3.5767212q-1.3742981 -0.43215942 -2.593628 0.054901123q-1.2250671 0.4657135 -1.9515686 1.7241974q-1.007721 1.745636 -0.38183594 3.5679474q0.6201477 1.8009644 3.4351807 3.4252014q2.9774475 1.7179413 4.8667603 1.3829346q1.8757629 -0.34280396 2.867859 -2.0613708q0.73431396 -1.2720184 0.45922852 -2.639389q-0.28863525 -1.3751678 -1.7944336 -2.7671204zm2.8667297 -5.1221466q-1.5022278 -0.8667755 -2.4743958 -2.401825q-0.97784424 -1.556366 -0.9410095 -3.3390656q0.0368042 -1.7826843 1.0054932 -3.4606476q1.4920349 -2.5846252 4.1154785 -3.253708q2.6312256 -0.6826172 5.1891174 0.7932434q2.5849304 1.4914856 3.3293457 4.1398315q0.7308655 2.6405487 -0.72994995 5.171036q-0.89837646 1.5561829 -2.4223633 2.570984q-1.5239868 1.0148163 -3.3205566 0.9703827q-1.7887573 -0.05795288 -3.7511597 -1.1902313zm1.943512 -2.9916077q1.6917114 0.97610474 3.0593872 0.7009125q1.3619385 -0.2965393 2.041565 -1.4738312q0.67962646 -1.1772919 0.24728394 -2.4910583q-0.44586182 -1.321579 -2.1646423 -2.3132935q-1.6646423 -0.960495 -3.0187683 -0.677475q-1.3676758 0.27519226 -2.0473022 1.4524841q-0.67962646 1.1772766 -0.24157715 2.5123901q0.43234253 1.3137817 2.124054 2.2898712zm12.03656 -7.724167l-15.699188 -9.058212l1.7420349 -3.0176468l15.699188 9.05822l-1.7420349 3.0176392zm7.8459167 -13.59111l-1.7052307 -0.9839096q0.5473938 1.1456604 0.48934937 2.4651108q-0.05807495 1.3194427 -0.7064514 2.442604q-0.664032 1.1502228 -1.6881714 1.7679443q-1.0241394 0.6177139 -2.1652527 0.5004883q-1.1546631 -0.12503815 -2.7651672 -1.0542908l-7.1999817 -4.1542816l1.7342224 -3.0041122l5.2375793 3.0220108q2.3954773 1.3821564 3.0305786 1.5321274q0.6429138 0.13643646 1.2176819 -0.109176636q0.5612793 -0.2534256 0.9518738 -0.9300232q0.44525146 -0.7713318 0.3772583 -1.622345q-0.07376099 -0.8723526 -0.5713196 -1.4480743q-0.5032654 -0.5970535 -2.9393616 -2.0026398l-4.8045044 -2.7721329l1.7342529 -3.0041046l11.381897 6.5672073l-1.6092529 2.7875977zm-8.099579 -12.252991l1.6014099 -2.774063l1.5563965 0.89801025q-0.95422363 -2.5349045 0.23318481 -4.591774q0.62493896 -1.0825577 1.54599 -1.615448q0.9153137 -0.55423737 2.118927 -0.54525757q-0.46929932 -1.2809906 -0.4159546 -2.4047318q0.03982544 -1.131546 0.6100769 -2.1193848q0.71868896 -1.2449493 1.7329407 -1.8142624q1.0142212 -0.56931305 2.2386475 -0.44010162q0.91049194 0.110435486 2.5480652 1.0552979l7.267639 4.1933365l-1.7342224 3.0041122l-6.496216 -3.74823q-1.7052612 -0.9839096 -2.3721313 -0.95378876q-0.8782654 0.052474976 -1.3782043 0.9185257q-0.36715698 0.6360016 -0.2949829 1.4172745q0.058654785 0.7734604 0.65460205 1.4600525q0.60372925 0.67305756 2.2007446 1.5944977l5.467621 3.1547623l-1.7342224 3.0041122l-6.2390747 -3.5998611q-1.651123 -0.95267487 -2.2320557 -1.0714111q-0.58096313 -0.11872864 -1.0063477 0.08682251q-0.425354 0.20555115 -0.7534485 0.77389526q-0.40621948 0.7036667 -0.3475647 1.4771271q0.045135498 0.7656479 0.60827637 1.4152832q0.56314087 0.6496353 2.214264 1.6023102l5.521759 3.185997l-1.7342224 3.0041046l-11.381897 -6.5672073zm28.74237 -23.505417l-1.7342224 3.0041122l-5.8059998 -3.3499832q-1.8405762 -1.0619965 -2.499115 -1.1713715q-0.6507263 -0.12290192 -1.1984558 0.13832855q-0.547699 0.26123047 -0.89923096 0.8701782q-0.45309448 0.7848511 -0.379364 1.6572113q0.06021118 0.8645477 0.63116455 1.5006485q0.57095337 0.63610077 2.4792175 1.7371445l5.156372 2.9751587l-1.7342224 3.0041122l-11.3819275 -6.567215l1.6092529 -2.7875977l1.6781921 0.96829224q-1.0760498 -2.6051788 0.22854614 -4.8650284q0.57806396 -1.0013733 1.4200134 -1.6159897q0.82839966 -0.62242126 1.638977 -0.7139435q0.7970581 -0.09933472 1.5945435 0.14434052q0.80532837 0.23014069 2.1316223 0.9953995l7.064636 4.0762024zm7.9752197 -20.284378l2.8015137 1.6164246l-6.093231 10.554985q-1.4819031 -1.0895462 -2.410797 -2.7619934q-0.92111206 -1.6859741 -1.8094482 -5.553856q-0.7151489 -3.13657 -1.1262207 -3.9870987q-0.5744934 -1.1612816 -1.4812622 -1.6844711q-1.0150146 -0.585659 -1.8688354 -0.3567314q-0.8538513 0.22892761 -1.4084778 1.1897011q-0.539032 0.933712 -0.29870605 1.8300285q0.24813843 0.8827858 1.5275879 1.7292366l-2.0455017 2.8245087q-2.320465 -1.6996536 -2.5907288 -3.7316895q-0.26245117 -2.0455666 0.96398926 -4.1700974q1.3436584 -2.327507 3.367859 -2.9274292q2.0106506 -0.60772705 3.8783264 0.4698906q1.0556335 0.6090851 1.7977905 1.542408q0.742157 0.9333229 1.3077393 2.360054q0.3834839 0.96087265 0.8760071 3.1391907q0.4790039 2.1705093 0.6933594 2.799286q0.20080566 0.6209717 0.46621704 1.0988083l3.4528198 -5.9811554z" fill-rule="nonzero"/><path fill="#ffffff" d="m187.09456 155.22644l67.55907 -117.03937l37.637787 21.73228l-67.55905 117.03937z" fill-rule="evenodd"/><path fill="#000000" d="m221.82697 148.36032l2.7552338 -2.5228271q2.156952 2.2016907 2.462387 4.579254q0.29971313 2.3562164 -1.153183 4.87323q-1.8122253 3.1394958 -5.1140594 3.921341q-3.2940369 0.7683258 -7.0016174 -1.3724518q-3.9240723 -2.2657928 -4.9252014 -5.532196q-0.99331665 -3.2799377 0.91264343 -6.581833q1.6638184 -2.8823853 4.407669 -3.6977386q1.6184082 -0.4908905 3.803894 0.06736755l-1.0544586 3.5770416q-1.374054 -0.4325409 -2.5932312 0.05432129q-1.224884 0.46549988 -1.9513397 1.7240143q-1.0076599 1.7456665 -0.38197327 3.5684052q0.61997986 1.8013916 3.434494 3.4264984q2.9768982 1.7188873 4.8659363 1.3842468q1.8755035 -0.34243774 2.8675385 -2.0610352q0.7342682 -1.272049 0.4592743 -2.639679q-0.28851318 -1.3754578 -1.7940063 -2.7679596zm2.8665466 -5.122284q-1.5019684 -0.86724854 -2.4738922 -2.4027405q-0.9776306 -1.556839 -0.9407196 -3.3397827q0.03691101 -1.782959 1.0055084 -3.460968q1.4919586 -2.584671 4.1150208 -3.2532654q2.6308594 -0.6821289 5.188278 0.7945404q2.584488 1.4923096 3.3286438 4.14122q0.73062134 2.6411133 -0.73010254 5.1716614q-0.8983002 1.5562134 -2.4221191 2.5708313q-1.523819 1.0146179 -3.3200989 0.96977234q-1.7884674 -0.05836487 -3.7505188 -1.1912689zm1.9433594 -2.9916077q1.6914215 0.97662354 3.0588837 0.7016907q1.3617401 -0.29626465 2.041336 -1.473587q0.6795807 -1.1773071 0.24737549 -2.4913788q-0.4457245 -1.3218842 -2.1641998 -2.314148q-1.6643524 -0.96099854 -3.0182953 -0.6782532q-1.3674622 0.27493286 -2.0470428 1.45224q-0.67959595 1.1773224 -0.2416687 2.5127258q0.43218994 1.3140717 2.1236115 2.2907104zm12.035095 -7.7226257l-15.696335 -9.063156l1.7419281 -3.0177078l15.696335 9.0631485l-1.7419281 3.0177155zm7.8454285 -13.591415l-1.704956 -0.98444366q0.547287 1.145958 0.489151 2.4655914q-0.058120728 1.3196335 -0.7064667 2.4428177q-0.6639557 1.1502533 -1.687973 1.7678299q-1.0240173 0.6175842 -2.1649628 0.5000839q-1.1544647 -0.12532043 -2.7646942 -1.0550766l-7.198654 -4.1565475l1.7341156 -3.004181l5.236618 3.0236588q2.3950348 1.3829117 3.0300293 1.5330429q0.64279175 0.13660431 1.217514 -0.10891724q0.56118774 -0.25333405 0.9517517 -0.9299469q0.4452362 -0.77134705 0.37727356 -1.6225052q-0.07366943 -0.8725052 -0.5711365 -1.4484253q-0.5031738 -0.5972595 -2.9388123 -2.0036163l-4.8036194 -2.7736359l1.7341003 -3.0041733l11.379852 6.5707855l-1.6091309 2.7876587zm-8.097748 -12.256691l1.6013184 -2.7741318l1.5561066 0.89850616q-0.95396423 -2.5355072 0.23336792 -4.5924225q0.6248932 -1.0825882 1.5458374 -1.6153488q0.9152069 -0.55410767 2.118637 -0.54486084q-0.469162 -1.2812881 -0.41577148 -2.4051895q0.039855957 -1.1317139 0.6100769 -2.1195755q0.7186432 -1.2449722 1.7327576 -1.8141403q1.0141144 -0.5691757 2.238327 -0.43966675q0.9103546 0.11065674 2.5476532 1.0560379l7.266327 4.1956177l-1.7341309 3.0041733l-6.4950256 -3.750267q-1.704956 -0.98444366 -2.3717346 -0.9544754q-0.87812805 0.05229187 -1.3780518 0.91835785q-0.36712646 0.6360245 -0.2949829 1.4174271q0.05860901 0.7735901 0.65441895 1.4604263q0.60362244 0.67329407 2.2003174 1.5952377l5.4666443 3.156479l-1.7341003 3.0041733l-6.2379456 -3.601822q-1.6508179 -0.95319366 -2.2316895 -1.0720749q-0.5808563 -0.118881226 -1.0061798 0.08660889q-0.42530823 0.20548248 -0.75338745 0.77384186q-0.40618896 0.70368195 -0.3475647 1.477272q0.045074463 0.7657776 0.60809326 1.4156418q0.56303406 0.64985657 2.213852 1.6030502l5.5207825 3.187729l-1.7341156 3.004181l-11.379837 -6.5707855zm28.739166 -23.50251l-1.7341309 3.004181l-5.8049316 -3.3518066q-1.840271 -1.0625763 -2.4986877 -1.1721115q-0.65060425 -0.12306976 -1.1982574 0.13807678q-0.5476532 0.26114655 -0.89915466 0.8701019q-0.45306396 0.78487396 -0.37937927 1.6573792q0.060150146 0.8646927 0.63098145 1.5010223q0.57084656 0.63632965 2.4787445 1.7379684l5.1554565 2.9767761l-1.7341309 3.004181l-11.379837 -6.5707855l1.6091309 -2.7876587l1.677887 0.96881866q-1.0757294 -2.6058273 0.22875977 -4.8657227q0.57803345 -1.0013962 1.4198761 -1.6159134q0.82829285 -0.6223297 1.6387634 -0.7136841q0.79693604 -0.09916687 1.5942993 0.14472198q0.8051758 0.23036194 2.131256 0.99604034l7.0633545 4.078415zm9.35434 -16.205475l-1.7341309 3.0041733l-11.339233 -6.547348q0.5895996 2.5416336 0.023590088 5.2099075l-2.7197876 -1.570427q0.2871704 -1.4038925 0.014953613 -3.4014206q-0.28573608 -2.0053444 -1.4232483 -3.3477554l1.4138489 -2.4493523l15.764008 9.102222z" fill-rule="nonzero"/><path fill="#ffffff" d="m87.103676 330.64395l343.6693 -0.21029663l0 -8.307098l16.614166 16.604034l-16.614166 16.624329l0 -8.307098l-343.6693 0.21032715z" fill-rule="evenodd"/><path stroke="#ff0000" stroke-width="4.0" stroke-linejoin="round" stroke-linecap="butt" d="m87.103676 330.64395l343.6693 -0.21029663l0 -8.307098l16.614166 16.604034l-16.614166 16.624329l0 -8.307098l-343.6693 0.21032715z" fill-rule="evenodd"/><path fill="#000000" fill-opacity="0.0" d="m-16.001093 314.61618l112.62992 0l0 59.08664l-112.62992 0z" fill-rule="evenodd"/><path fill="#000000" d="m4.879785 347.9362l0 -18.125l7.7031245 0q2.90625 0 4.218751 0.484375q1.3125 0.484375 2.109375 1.734375q0.796875 1.25 0.796875 2.859375q0 2.046875 -1.203125 3.375q-1.203125 1.328125 -3.593751 1.671875q1.187501 0.6875 1.953126 1.515625q0.78125 0.828125 2.09375 2.953125l2.21875 3.53125l-4.375 0l-2.656251 -3.9375q-1.40625 -2.125 -1.921875 -2.671875q-0.515625 -0.546875 -1.109375 -0.75q-0.578125 -0.203125 -1.828125 -0.203125l-0.75 0l0 7.5625l-3.6562495 0zm3.6562495 -10.46875l2.703125 0q2.640625 0 3.296875 -0.21875q0.65625 -0.21875 1.015625 -0.765625q0.375 -0.546875 0.375 -1.359375q0 -0.921875 -0.484375 -1.484375q-0.484375 -0.5625 -1.375 -0.703125q-0.453125 -0.0625 -2.671875 -0.0625l-2.859375 0l0 4.59375zm13.791169 3.71875q0 -1.734375 0.84375 -3.34375q0.859375 -1.625 2.421875 -2.484375q1.5625 -0.859375 3.5 -0.859375q2.984373 0 4.874998 1.9375q1.90625 1.9375 1.90625 4.890625q0 2.984375 -1.921875 4.953125q-1.921875 1.953125 -4.843748 1.953125q-1.796875 0 -3.4375 -0.8125q-1.640625 -0.8125 -2.5 -2.390625q-0.84375 -1.578125 -0.84375 -3.84375zm3.5625 0.1875q0 1.953125 0.921875 3.0q0.9375 1.03125 2.296875 1.03125q1.359375 0 2.28125 -1.03125q0.9218731 -1.046875 0.9218731 -3.03125q0 -1.921875 -0.9218731 -2.953125q-0.921875 -1.046875 -2.28125 -1.046875q-1.359375 0 -2.296875 1.046875q-0.921875 1.03125 -0.921875 2.984375zm15.158934 6.5625l-4.15625 -13.140625l3.375 0l2.46875 8.609375l2.265625 -8.609375l3.3437462 0l2.1875 8.609375l2.515625 -8.609375l3.421875 0l-4.21875 13.140625l-3.34375 0l-2.2499962 -8.453125l-2.234375 8.453125l-3.375 0zm23.425507 -4.8125l3.359375 -0.40625q0.171875 1.28125 0.875 1.96875q0.703125 0.671875 1.703125 0.671875q1.078125 0 1.8125 -0.8125q0.734375 -0.8125 0.734375 -2.203125q0 -1.3125 -0.703125 -2.078125q-0.703125 -0.765625 -1.71875 -0.765625q-0.671875 0 -1.59375 0.265625l0.375 -2.828125q1.40625 0.03125 2.140625 -0.609375q0.75 -0.65625 0.75 -1.734375q0 -0.921875 -0.546875 -1.453125q-0.53125 -0.546875 -1.4375 -0.546875q-0.890625 0 -1.53125 0.625q-0.625 0.609375 -0.75 1.796875l-3.203125 -0.546875q0.328125 -1.640625 1.0 -2.625q0.671875 -0.984375 1.875 -1.546875q1.21875 -0.5625 2.703125 -0.5625q2.5625 0 4.109375 1.625q1.28125 1.34375 1.28125 3.03125q0 2.375 -2.609375 3.796875q1.546875 0.34375 2.484375 1.5q0.9375 1.15625 0.9375 2.8125q0 2.375 -1.75 4.0625q-1.734375 1.6875 -4.34375 1.6875q-2.453125 0 -4.078125 -1.40625q-1.609375 -1.421875 -1.875 -3.71875z" fill-rule="nonzero"/><path fill="#ffffff" d="m295.71652 88.7436l-161.56865 282.026l7.204727 4.13385l-22.667572 6.1472473l-6.151329 -22.682678l7.2047195 4.1338806l161.56865 -282.026z" fill-rule="evenodd"/><path stroke="#ff0000" stroke-width="4.0" stroke-linejoin="round" stroke-linecap="butt" d="m295.71652 88.7436l-161.56865 282.026l7.204727 4.13385l-22.667572 6.1472473l-6.151329 -22.682678l7.2047195 4.1338806l161.56865 -282.026z" fill-rule="evenodd"/><path fill="#ffffff" d="m401.87143 88.7435l-161.56866 282.026l7.204727 4.13385l-22.667572 6.1472473l-6.1513214 -22.682678l7.204727 4.13385l161.56865 -282.026z" fill-rule="evenodd"/><path stroke="#ff0000" stroke-width="4.0" stroke-linejoin="round" stroke-linecap="butt" d="m401.87143 88.7435l-161.56866 282.026l7.204727 4.13385l-22.667572 6.1472473l-6.1513214 -22.682678l7.204727 4.13385l161.56865 -282.026z" fill-rule="evenodd"/><path fill="#ffffff" d="m501.25458 88.743546l-161.66364 282.21466l7.204712 4.13385l-22.667053 6.147522l-6.151825 -22.682953l7.204712 4.1338806l161.66364 -282.2147z" fill-rule="evenodd"/><path stroke="#ff0000" stroke-width="4.0" stroke-linejoin="round" stroke-linecap="butt" d="m501.25458 88.743546l-161.66364 282.21466l7.204712 4.13385l-22.667053 6.147522l-6.151825 -22.682953l7.204712 4.1338806l161.66364 -282.2147z" fill-rule="evenodd"/><path fill="#ffffff" d="m20.755148 4.489895l209.85828 0l0 59.086613l-209.85828 0z" fill-rule="evenodd"/><path stroke="#0000ff" stroke-width="1.0" stroke-linejoin="round" stroke-linecap="butt" d="m20.755148 4.489895l209.85828 0l0 59.086613l-209.85828 0z" fill-rule="evenodd"/><path fill="#0000ff" d="m44.831894 29.54427q-0.625 -0.375 -1.3125 -0.5625q-0.671875 -0.203125 -1.40625 -0.203125q-1.484375 0 -2.34375 0.484375q-0.390625 0.21875 -0.390625 0.453125q0 0.296875 0.53125 0.5625q0.390625 0.203125 1.765625 0.390625q2.515625 0.34375 3.515625 0.6875q1.296875 0.453125 2.0 1.359375q0.703125 0.90625 0.703125 1.90625q0 1.359375 -1.203125 2.265625q-1.71875 1.328125 -4.46875 1.328125q-1.09375 0 -2.03125 -0.1875q-0.921875 -0.1875 -1.703125 -0.5625q-0.1875 0.15625 -0.40625 0.25q-0.203125 0.078125 -0.421875 0.078125q-0.59375 0 -0.953125 -0.390625q-0.34375 -0.390625 -0.34375 -1.296875l0 -0.859375q0 -0.90625 0.34375 -1.296875q0.359375 -0.390625 0.921875 -0.390625q0.453125 0 0.765625 0.25q0.3125 0.25 0.484375 0.875q0.578125 0.484375 1.390625 0.75q0.828125 0.25 1.890625 0.25q1.734375 0 2.703125 -0.546875q0.453125 -0.265625 0.453125 -0.5625q0 -0.5 -0.65625 -0.828125q-0.65625 -0.3125 -2.703125 -0.53125q-3.046875 -0.328125 -4.078125 -1.25q-1.03125 -0.890625 -1.03125 -2.21875q0 -1.359375 1.15625 -2.265625q1.5625 -1.234375 4.078125 -1.234375q0.875 0 1.6875 0.171875q0.8125 0.15625 1.546875 0.5q0.234375 -0.171875 0.4375 -0.25q0.21875 -0.09375 0.390625 -0.09375q0.515625 0 0.859375 0.390625q0.34375 0.390625 0.34375 1.3125l0 0.609375q0 0.828125 -0.1875 1.125q-0.40625 0.578125 -1.078125 0.578125q-0.46875 0 -0.8125 -0.28125q-0.34375 -0.296875 -0.4375 -0.765625zm11.824356 -0.421875l0 5.078125q0 0.8125 0.34375 1.078125q0.515625 0.40625 1.859375 0.40625q1.9375 0 3.578125 -0.828125q0.625 -0.328125 0.984375 -0.328125q0.5 0 0.859375 0.375q0.375 0.375 0.375 0.90625q0 0.484375 -0.40625 0.84375q-0.59375 0.59375 -2.390625 1.078125q-1.78125 0.484375 -3.0 0.484375q-2.375 0 -3.5625 -1.015625q-1.171875 -1.015625 -1.171875 -2.5l0 -5.578125l-0.90625 0q-0.921875 0 -1.3125 -0.359375q-0.390625 -0.359375 -0.390625 -0.921875q0 -0.5625 0.390625 -0.90625q0.390625 -0.359375 1.3125 -0.359375l0.90625 0l0 -2.28125q0 -0.921875 0.34375 -1.3125q0.359375 -0.390625 0.9375 -0.390625q0.546875 0 0.890625 0.390625q0.359375 0.390625 0.359375 1.3125l0 2.28125l4.6875 0q0.921875 0 1.3125 0.359375q0.390625 0.34375 0.390625 0.921875q0 0.546875 -0.390625 0.90625q-0.390625 0.359375 -1.3125 0.359375l-4.6875 0zm14.418106 8.59375l-4.390625 -8.59375q-0.625 -0.078125 -0.953125 -0.421875q-0.3125 -0.359375 -0.3125 -0.84375q0 -0.578125 0.390625 -0.921875q0.390625 -0.359375 1.296875 -0.359375l2.3125 0q0.921875 0 1.3125 0.359375q0.390625 0.34375 0.390625 0.921875q0 0.546875 -0.390625 0.90625q-0.390625 0.359375 -1.234375 0.359375l3.0 5.8125l2.96875 -5.8125q-0.828125 0 -1.21875 -0.359375q-0.375 -0.359375 -0.375 -0.921875q0 -0.5625 0.375 -0.90625q0.390625 -0.359375 1.3125 -0.359375l2.390625 0q0.90625 0 1.28125 0.359375q0.390625 0.34375 0.390625 0.921875q0 0.5 -0.328125 0.859375q-0.328125 0.34375 -0.984375 0.40625l-5.8125 11.453125q0.953125 0 1.25 0.171875q0.59375 0.390625 0.59375 1.09375q0 0.5625 -0.390625 0.90625q-0.390625 0.359375 -1.3125 0.359375l-5.53125 0q-0.90625 0 -1.296875 -0.359375q-0.390625 -0.34375 -0.390625 -0.90625q0 -0.5625 0.390625 -0.921875q0.390625 -0.34375 1.296875 -0.34375l2.53125 0l1.4375 -2.859375zm17.886856 -15.953125l0 13.515625l3.03125 0q0.921875 0 1.3125 0.359375q0.390625 0.34375 0.390625 0.90625q0 0.5625 -0.390625 0.921875q-0.390625 0.34375 -1.3125 0.34375l-8.609375 0q-0.921875 0 -1.3125 -0.34375q-0.390625 -0.359375 -0.390625 -0.9375q0 -0.546875 0.390625 -0.890625q0.390625 -0.359375 1.3125 -0.359375l3.03125 0l0 -10.96875l-2.03125 0q-0.90625 0 -1.3125 -0.34375q-0.390625 -0.359375 -0.390625 -0.9375q0 -0.546875 0.390625 -0.90625q0.390625 -0.359375 1.3125 -0.359375l4.578125 0zm20.293106 11.71875l-10.40625 0q0.390625 0.984375 1.390625 1.59375q1.015625 0.609375 2.734375 0.609375q1.421875 0 3.75 -0.609375q0.96875 -0.25 1.34375 -0.25q0.5 0 0.84375 0.359375q0.34375 0.359375 0.34375 0.90625q0 0.5 -0.359375 0.84375q-0.5 0.453125 -2.421875 0.875q-1.90625 0.40625 -3.6875 0.40625q-3.03125 0 -4.859375 -1.71875q-1.828125 -1.71875 -1.828125 -4.234375q0 -2.671875 1.96875 -4.34375q1.984375 -1.671875 4.546875 -1.671875q1.546875 0 2.84375 0.546875q1.296875 0.546875 1.921875 1.171875q0.890625 0.921875 1.46875 2.265625q0.40625 0.9375 0.40625 2.171875l0 1.078125zm-2.8125 -2.53125q-0.578125 -1.09375 -1.53125 -1.625q-0.9375 -0.546875 -2.234375 -0.546875q-1.28125 0 -2.21875 0.546875q-0.9375 0.53125 -1.53125 1.625l7.515625 0zm13.558731 -2.671875q0 0.71875 -0.515625 1.203125q-0.5 0.46875 -1.390625 0.46875q-0.890625 0 -1.40625 -0.46875q-0.5 -0.484375 -0.5 -1.203125q0 -0.71875 0.5 -1.203125q0.515625 -0.484375 1.40625 -0.484375q0.890625 0 1.390625 0.484375q0.515625 0.484375 0.515625 1.203125zm0.015625 8.296875q0 0.71875 -0.515625 1.203125q-0.5 0.46875 -1.390625 0.46875q-0.890625 0 -1.40625 -0.46875q-0.5 -0.484375 -0.5 -1.203125q0 -0.71875 0.5 -1.203125q0.515625 -0.484375 1.40625 -0.484375q0.890625 0 1.390625 0.484375q0.515625 0.484375 0.515625 1.203125zm24.133087 -14.0625l3.265625 0l-0.8125 6.0625q-0.046875 0.46875 -0.265625 0.65625q-0.203125 0.1875 -0.515625 0.1875q-0.34375 0 -0.546875 -0.1875q-0.1875 -0.1875 -0.25 -0.640625l-0.875 -6.078125zm5.2812347 0l3.265625 0l-0.8125 6.0625q-0.0625 0.46875 -0.265625 0.65625q-0.1875 0.1875 -0.515625 0.1875q-0.34375 0 -0.546875 -0.1875q-0.1875 -0.1875 -0.25 -0.640625l-0.875 -6.078125zm11.636871 -0.75l0 5.40625q0.796875 -0.46875 1.59375 -0.6875q0.8125 -0.234375 1.640625 -0.234375q1.3125 0 2.34375 0.453125q1.03125 0.4375 1.703125 1.40625q0.671875 0.953125 0.671875 2.40625l0 4.765625q0.96875 0 1.265625 0.1875q0.59375 0.375 0.59375 1.078125q0 0.5625 -0.390625 0.921875q-0.375 0.34375 -1.296875 0.34375l-2.890625 0q-0.90625 0 -1.296875 -0.34375q-0.390625 -0.359375 -0.390625 -0.9375q0 -0.6875 0.59375 -1.0625q0.3125 -0.203125 1.265625 -0.1875l0 -4.59375q0 -0.96875 -0.453125 -1.375q-0.578125 -0.53125 -1.71875 -0.53125q-0.828125 0 -1.484375 0.328125q-0.65625 0.328125 -1.75 1.421875l0 4.75q0.984375 0 1.265625 0.1875q0.59375 0.375 0.59375 1.078125q0 0.5625 -0.390625 0.921875q-0.375 0.34375 -1.296875 0.34375l-2.875 0q-0.921875 0 -1.3125 -0.34375q-0.390625 -0.359375 -0.390625 -0.9375q0 -0.6875 0.609375 -1.0625q0.296875 -0.203125 1.265625 -0.1875l0 -10.96875l-0.4375 0q-0.921875 0 -1.3125 -0.34375q-0.375 -0.359375 -0.375 -0.9375q0 -0.546875 0.375 -0.90625q0.390625 -0.359375 1.3125 -0.359375l2.96875 0zm24.183716 11.71875l-10.40625 0q0.390625 0.984375 1.390625 1.59375q1.015625 0.609375 2.734375 0.609375q1.421875 0 3.75 -0.609375q0.96875 -0.25 1.34375 -0.25q0.5 0 0.84375 0.359375q0.34375 0.359375 0.34375 0.90625q0 0.5 -0.359375 0.84375q-0.5 0.453125 -2.421875 0.875q-1.90625 0.40625 -3.6875 0.40625q-3.03125 0 -4.859375 -1.71875q-1.828125 -1.71875 -1.828125 -4.234375q0 -2.671875 1.96875 -4.34375q1.984375 -1.671875 4.546875 -1.671875q1.546875 0 2.84375 0.546875q1.296875 0.546875 1.921875 1.171875q0.890625 0.921875 1.46875 2.265625q0.40625 0.9375 0.40625 2.171875l0 1.078125zm-2.8125 -2.53125q-0.578125 -1.09375 -1.53125 -1.625q-0.9375 -0.546875 -2.234375 -0.546875q-1.28125 0 -2.21875 0.546875q-0.9375 0.53125 -1.53125 1.625l7.515625 0zm13.543121 1.015625l3.84375 3.3125q0.6875 0.03125 1.03125 0.390625q0.359375 0.34375 0.359375 0.875q0 0.5625 -0.390625 0.921875q-0.390625 0.34375 -1.3125 0.34375l-2.875 0q-0.921875 0 -1.3125 -0.34375q-0.390625 -0.359375 -0.390625 -0.9375q0 -0.453125 0.28125 -0.78125q0.28125 -0.34375 0.765625 -0.46875l-1.890625 -1.640625l-1.9375 1.640625q0.59375 0.140625 0.84375 0.453125q0.25 0.3125 0.25 0.796875q0 0.578125 -0.390625 0.9375q-0.375 0.34375 -1.296875 0.34375l-2.859375 0q-0.90625 0 -1.296875 -0.34375q-0.390625 -0.359375 -0.390625 -0.9375q0 -0.515625 0.34375 -0.859375q0.34375 -0.359375 1.046875 -0.390625l3.75 -3.3125l-3.328125 -2.84375q-0.65625 -0.0625 -1.0 -0.40625q-0.328125 -0.359375 -0.328125 -0.875q0 -0.5625 0.390625 -0.90625q0.390625 -0.359375 1.296875 -0.359375l2.375 0q0.921875 0 1.3125 0.359375q0.390625 0.34375 0.390625 0.890625q0 0.734375 -0.703125 1.1875l1.546875 1.28125l1.5 -1.296875q-0.671875 -0.484375 -0.671875 -1.125q0 -0.59375 0.375 -0.9375q0.390625 -0.359375 1.3125 -0.359375l2.34375 0q0.921875 0 1.3125 0.359375q0.390625 0.34375 0.390625 0.921875q0 0.5 -0.34375 0.859375q-0.34375 0.34375 -1.0 0.40625l-3.34375 2.84375zm8.964966 -9.453125l3.265625 0l-0.8125 6.0625q-0.046875 0.46875 -0.265625 0.65625q-0.203125 0.1875 -0.515625 0.1875q-0.34375 0 -0.546875 -0.1875q-0.1875 -0.1875 -0.25 -0.640625l-0.875 -6.078125zm5.28125 0l3.265625 0l-0.8125 6.0625q-0.0625 0.46875 -0.265625 0.65625q-0.1875 0.1875 -0.515625 0.1875q-0.34375 0 -0.546875 -0.1875q-0.1875 -0.1875 -0.25 -0.640625l-0.875 -6.078125z" fill-rule="nonzero"/><path fill="#ffffff" d="m763.5591 92.58601l100.62988 0l0 100.62991l-100.62988 0z" fill-rule="evenodd"/><path stroke="#000000" stroke-width="1.0" stroke-linejoin="round" stroke-linecap="butt" d="m763.5591 92.58601l100.62988 0l0 100.62991l-100.62988 0z" fill-rule="evenodd"/><path fill="#ffffff" d="m864.18896 92.58601l100.629944 0l0 100.62991l-100.629944 0z" fill-rule="evenodd"/><path stroke="#000000" stroke-width="1.0" stroke-linejoin="round" stroke-linecap="butt" d="m864.18896 92.58601l100.629944 0l0 100.62991l-100.629944 0z" fill-rule="evenodd"/><path fill="#ffffff" d="m662.92914 92.58601l100.629944 0l0 100.62991l-100.629944 0z" fill-rule="evenodd"/><path stroke="#000000" stroke-width="1.0" stroke-linejoin="round" stroke-linecap="butt" d="m662.92914 92.58601l100.629944 0l0 100.62991l-100.629944 0z" fill-rule="evenodd"/><path fill="#ffffff" d="m646.0184 121.829l343.6693 -0.21030426l0 -8.307091l16.614136 16.604012l-16.614136 16.624344l0 -8.307098l-343.6693 0.21031189z" fill-rule="evenodd"/><path stroke="#ff0000" stroke-width="4.0" stroke-linejoin="round" stroke-linecap="butt" d="m646.0184 121.829l343.6693 -0.21030426l0 -8.307091l16.614136 16.604012l-16.614136 16.624344l0 -8.307098l-343.6693 0.21031189z" fill-rule="evenodd"/><path fill="#ffffff" d="m713.2444 193.21593l100.629944 0l0 100.62993l-100.629944 0z" fill-rule="evenodd"/><path stroke="#000000" stroke-width="1.0" stroke-linejoin="round" stroke-linecap="butt" d="m713.2444 193.21593l100.629944 0l0 100.62993l-100.629944 0z" fill-rule="evenodd"/><path fill="#ffffff" d="m813.87463 193.21593l100.62988 0l0 100.62993l-100.62988 0z" fill-rule="evenodd"/><path stroke="#000000" stroke-width="1.0" stroke-linejoin="round" stroke-linecap="butt" d="m813.87463 193.21593l100.62988 0l0 100.62993l-100.62988 0z" fill-rule="evenodd"/><path fill="#ffffff" d="m914.5045 193.21593l100.629944 0l0 100.62993l-100.629944 0z" fill-rule="evenodd"/><path stroke="#000000" stroke-width="1.0" stroke-linejoin="round" stroke-linecap="butt" d="m914.5045 193.21593l100.629944 0l0 100.62993l-100.629944 0z" fill-rule="evenodd"/><path fill="#ffffff" d="m689.7428 227.86444l343.6693 -0.21031189l0 -8.307083l16.614136 16.604004l-16.614136 16.624344l0 -8.307083l-343.6693 0.21029663z" fill-rule="evenodd"/><path stroke="#ff0000" stroke-width="4.0" stroke-linejoin="round" stroke-linecap="butt" d="m689.7428 227.86444l343.6693 -0.21031189l0 -8.307083l16.614136 16.604004l-16.614136 16.624344l0 -8.307083l-343.6693 0.21029663z" fill-rule="evenodd"/><path fill="#000000" fill-opacity="0.0" d="m586.638 211.83667l112.629944 0l0 59.08661l-112.629944 0z" fill-rule="evenodd"/><path fill="#000000" d="m607.5189 245.15666l0 -18.125l7.703125 0q2.90625 0 4.21875 0.484375q1.3125 0.484375 2.109375 1.734375q0.796875 1.25 0.796875 2.859375q0 2.046875 -1.203125 3.375q-1.203125 1.328125 -3.59375 1.671875q1.1875 0.6875 1.953125 1.515625q0.78125 0.828125 2.09375 2.953125l2.21875 3.53125l-4.375 0l-2.65625 -3.9375q-1.40625 -2.125 -1.921875 -2.671875q-0.515625 -0.546875 -1.109375 -0.75q-0.578125 -0.203125 -1.828125 -0.203125l-0.75 0l0 7.5625l-3.65625 0zm3.65625 -10.46875l2.703125 0q2.640625 0 3.296875 -0.21875q0.65625 -0.21875 1.015625 -0.765625q0.375 -0.546875 0.375 -1.359375q0 -0.921875 -0.484375 -1.484375q-0.484375 -0.5625 -1.375 -0.703125q-0.453125 -0.0625 -2.671875 -0.0625l-2.859375 0l0 4.59375zm13.791138 3.71875q0 -1.734375 0.84375 -3.34375q0.859375 -1.625 2.421875 -2.484375q1.5625 -0.859375 3.5 -0.859375q2.984375 0 4.875 1.9375q1.90625 1.9375 1.90625 4.890625q0 2.984375 -1.921875 4.953125q-1.921875 1.953125 -4.84375 1.953125q-1.796875 0 -3.4375 -0.8125q-1.640625 -0.8125 -2.5 -2.390625q-0.84375 -1.578125 -0.84375 -3.84375zm3.5625 0.1875q0 1.953125 0.921875 3.0q0.9375 1.03125 2.296875 1.03125q1.359375 0 2.28125 -1.03125q0.921875 -1.046875 0.921875 -3.03125q0 -1.921875 -0.921875 -2.953125q-0.921875 -1.046875 -2.28125 -1.046875q-1.359375 0 -2.296875 1.046875q-0.921875 1.03125 -0.921875 2.984375zm15.158936 6.5625l-4.15625 -13.140625l3.375 0l2.46875 8.609375l2.265625 -8.609375l3.34375 0l2.1875 8.609375l2.515625 -8.609375l3.421875 0l-4.21875 13.140625l-3.34375 0l-2.25 -8.453125l-2.234375 8.453125l-3.375 0zm35.28485 -3.234375l0 3.234375l-12.1875 0q0.203125 -1.828125 1.1875 -3.46875q1.0 -1.640625 3.90625 -4.34375q2.359375 -2.1875 2.890625 -2.96875q0.71875 -1.078125 0.71875 -2.125q0 -1.171875 -0.625 -1.796875q-0.625 -0.625 -1.734375 -0.625q-1.078125 0 -1.734375 0.65625q-0.640625 0.65625 -0.734375 2.1875l-3.46875 -0.359375q0.3125 -2.859375 1.9375 -4.109375q1.640625 -1.25 4.09375 -1.25q2.6875 0 4.21875 1.453125q1.53125 1.4375 1.53125 3.59375q0 1.21875 -0.4375 2.328125q-0.4375 1.109375 -1.390625 2.3125q-0.640625 0.8125 -2.28125 2.328125q-1.640625 1.5 -2.078125 2.0q-0.4375 0.484375 -0.71875 0.953125l6.90625 0z" fill-rule="nonzero"/><path fill="#ffffff" d="m965.2368 293.84586l100.62988 0l0 100.62991l-100.62988 0z" fill-rule="evenodd"/><path stroke="#000000" stroke-width="1.0" stroke-linejoin="round" stroke-linecap="butt" d="m965.2368 293.84586l100.62988 0l0 100.62991l-100.62988 0z" fill-rule="evenodd"/><path fill="#ffffff" d="m763.55963 293.84586l100.629944 0l0 100.62991l-100.629944 0z" fill-rule="evenodd"/><path stroke="#000000" stroke-width="1.0" stroke-linejoin="round" stroke-linecap="butt" d="m763.55963 293.84586l100.629944 0l0 100.62991l-100.629944 0z" fill-rule="evenodd"/><path fill="#ffffff" d="m864.1896 293.84586l100.629944 0l0 100.62991l-100.629944 0z" fill-rule="evenodd"/><path stroke="#000000" stroke-width="1.0" stroke-linejoin="round" stroke-linecap="butt" d="m864.1896 293.84586l100.629944 0l0 100.62991l-100.629944 0z" fill-rule="evenodd"/><path fill="#000000" fill-opacity="0.0" d="m542.9136 105.80123l112.629944 0l0 59.086617l-112.629944 0z" fill-rule="evenodd"/><path fill="#000000" d="m563.7945 139.12123l0 -18.125l7.703125 0q2.90625 0 4.21875 0.484375q1.3125 0.484375 2.109375 1.734375q0.796875 1.25 0.796875 2.859375q0 2.046875 -1.203125 3.375q-1.203125 1.328125 -3.59375 1.671875q1.1875 0.6875 1.953125 1.515625q0.78125 0.828125 2.09375 2.953125l2.21875 3.53125l-4.375 0l-2.65625 -3.9375q-1.40625 -2.125 -1.921875 -2.671875q-0.515625 -0.546875 -1.109375 -0.75q-0.578125 -0.203125 -1.828125 -0.203125l-0.75 0l0 7.5625l-3.65625 0zm3.65625 -10.46875l2.703125 0q2.640625 0 3.296875 -0.21875q0.65625 -0.21875 1.015625 -0.765625q0.375 -0.546875 0.375 -1.359375q0 -0.921875 -0.484375 -1.484375q-0.484375 -0.5625 -1.375 -0.703125q-0.453125 -0.0625 -2.671875 -0.0625l-2.859375 0l0 4.59375zm13.791138 3.71875q0 -1.734375 0.84375 -3.34375q0.859375 -1.625 2.421875 -2.484375q1.5625 -0.859375 3.5 -0.859375q2.984375 0 4.875 1.9375q1.90625 1.9375 1.90625 4.890625q0 2.984375 -1.921875 4.953125q-1.921875 1.953125 -4.84375 1.953125q-1.796875 0 -3.4375 -0.8125q-1.640625 -0.8125 -2.5 -2.390625q-0.84375 -1.578125 -0.84375 -3.84375zm3.5625 0.1875q0 1.953125 0.921875 3.0q0.9375 1.03125 2.296875 1.03125q1.359375 0 2.28125 -1.03125q0.921875 -1.046875 0.921875 -3.03125q0 -1.921875 -0.921875 -2.953125q-0.921875 -1.046875 -2.28125 -1.046875q-1.359375 0 -2.296875 1.046875q-0.921875 1.03125 -0.921875 2.984375zm15.158936 6.5625l-4.15625 -13.140625l3.375 0l2.46875 8.609375l2.265625 -8.609375l3.34375 0l2.1875 8.609375l2.515625 -8.609375l3.421875 0l-4.21875 13.140625l-3.34375 0l-2.25 -8.453125l-2.234375 8.453125l-3.375 0zm32.441162 0l-3.46875 0l0 -13.09375q-1.90625 1.78125 -4.5 2.625l0 -3.140625q1.359375 -0.453125 2.953125 -1.6875q1.59375 -1.25 2.1875 -2.90625l2.828125 0l0 18.203125z" fill-rule="nonzero"/><path fill="#ffffff" d="m907.2681 49.87481l69.763794 120.97637l-36.125977 20.850403l-69.763794 -120.97638z" fill-rule="evenodd"/><path fill="#000000" d="m896.9618 85.34589l0.80529785 3.6484833q-2.9849243 0.7666168 -5.1957397 -0.15834808q-2.1895142 -0.91924286 -3.6413574 -3.4368668q-1.8109131 -3.1402588 -0.8357544 -6.391136q0.9829712 -3.2373352 4.690918 -5.377426q3.9244995 -2.2650604 7.2528076 -1.4979401q3.3360596 0.7806549 5.2406616 4.0833435q1.6625977 2.8830872 0.99560547 5.6674576q-0.38476562 1.6472931 -1.9614258 3.260849l-2.5687256 -2.7028732q1.0618286 -0.97366333 1.2503662 -2.2731628q0.20983887 -1.2937698 -0.51605225 -2.5525894q-1.006958 -1.7460938 -2.897766 -2.1160965q-1.8694458 -0.3642807 -4.684265 1.260315q-2.9771729 1.7183228 -3.6326294 3.5218277q-0.64190674 1.7956924 0.34942627 3.514717q0.7337036 1.2723465 2.0551147 1.7184143q1.3349609 0.43824768 3.293518 -0.1689682zm2.9996948 5.045395q1.5021362 -0.86696625 3.317505 -0.94052887q1.836731 -0.067840576 3.3616333 0.85614014q1.5248413 0.9239807 2.4927368 2.6024017q1.4909058 2.5852966 0.7572632 5.19162q-0.72576904 2.6198502 -3.2834473 4.0960464q-2.5847778 1.4918137 -5.25 0.81105804q-2.6516724 -0.6885605 -4.111328 -3.219719q-0.89764404 -1.5565948 -1.0135498 -3.3839874q-0.11584473 -1.827385 0.8216553 -3.3607101q0.9453125 -1.5197906 2.9075317 -2.6523209zm1.6173096 3.1798477q-1.6915894 0.97631836 -2.1377563 2.2982254q-0.42486572 1.3276367 0.25427246 2.5052338q0.67907715 1.177597 2.0327759 1.460701q1.3671875 0.27529907 3.0858765 -0.7166443q1.6645508 -0.96069336 2.097168 -2.274788q0.446167 -1.3219147 -0.23291016 -2.4995117q-0.67907715 -1.177597 -2.0541382 -1.4664307q-1.3536987 -0.28310394 -3.045288 0.6932144zm0.6635132 14.287216l15.698059 -9.060234l1.7406616 3.0184402l-15.698059 9.060234l-1.7406616 -3.0184402zm7.8397217 13.594711l1.7051392 -0.98412323q-1.2657471 -0.09933472 -2.3789673 -0.8098984q-1.1131592 -0.71055603 -1.7610474 -1.8340149q-0.6635132 -1.150528 -0.68573 -2.346405q-0.022277832 -1.1958771 0.65026855 -2.1252518q0.68603516 -0.93717957 2.2964478 -1.8666382l7.199402 -4.1552124l1.7328491 3.0049057l-5.2371826 3.0226822q-2.3952637 1.3824692 -2.8428955 1.8573151q-0.43988037 0.48838806 -0.5148926 1.1089783q-0.061462402 0.61278534 0.3287964 1.289566q0.4449463 0.77153015 1.2156982 1.138504q0.79211426 0.37270355 1.5395508 0.2299881q0.7687378 -0.13699341 3.2045898 -1.5428925l4.804138 -2.7727432l1.7328491 3.0049057l-11.3810425 6.568672l-1.6079712 -2.7883377zm14.660767 -0.8813858l1.6001587 2.7748032l-1.5562744 0.89821625q2.671997 0.4422989 3.8584595 2.4997177q0.6244507 1.0828476 0.6248779 2.1470108q0.021728516 1.0698853 -0.5883179 2.107544q1.343811 0.23468018 2.289917 0.84321594q0.9597168 0.60072327 1.529541 1.5888214q0.7180786 1.2452698 0.7034302 2.4083557q-0.014709473 1.1630859 -0.73931885 2.1585846q-0.5512085 0.733078 -2.1886597 1.6781616l-7.267151 4.1942596l-1.7328491 -3.004898l6.4957886 -3.7490692q1.7050781 -0.98413086 2.0127563 -1.5766296q0.39404297 -0.7866974 -0.10546875 -1.6529694q-0.36688232 -0.6361847 -1.0793457 -0.9646301q-0.6989746 -0.3362732 -1.5916138 -0.16386414q-0.8847656 0.1859436 -2.4816284 1.1075745l-5.467285 3.1554718l-1.7327881 -3.0049133l6.2385864 -3.6006622q1.651001 -0.95288086 2.0444946 -1.3964844q0.39349365 -0.44361877 0.4284668 -0.91477966q0.03491211 -0.47117615 -0.29296875 -1.0396729q-0.4058838 -0.7038498 -1.1047974 -1.0401154q-0.6854248 -0.34407043 -1.5296631 -0.18156433q-0.84417725 0.1625061 -2.4951782 1.1153946l-5.5213623 3.186699l-1.7328491 -3.0049057l11.3810425 -6.568672zm5.965576 36.64926l-1.7328491 -3.004898l5.805603 -3.3507233q1.8404541 -1.0622406 2.2646484 -1.5776978q0.43206787 -0.5019226 0.47998047 -1.1068878q0.047973633 -0.60498047 -0.3032837 -1.2140808q-0.4527588 -0.7850647 -1.244873 -1.1577606q-0.77856445 -0.38050842 -1.6149292 -0.20446777q-0.8364258 0.17604065 -2.7445679 1.2773285l-5.155945 2.9758148l-1.7328491 -3.004898l11.3810425 -6.56868l1.6079712 2.7883453l-1.6781006 0.96850586q2.7938232 0.37200928 4.097351 2.6324615q0.5776367 1.0016327 0.6884155 2.0381927q0.12426758 1.0287476 -0.20214844 1.7763824q-0.3128662 0.73983765 -0.9229126 1.3084106q-0.6022339 0.5821228 -1.9284058 1.3475494l-7.064148 4.0771027zm9.01178 5.9937286l2.0300903 2.707077q-1.0238037 0.7893524 -1.2680054 1.7421265q-0.23065186 0.9449463 0.26885986 1.8112335q0.53863525 0.93395996 1.6091919 1.1639862q1.0705566 0.23002625 2.2749634 -0.4651184q1.1367798 -0.65608215 1.4486084 -1.6479034q0.31188965 -0.9918213 -0.1954956 -1.8716278q-0.33563232 -0.5820465 -1.0262451 -1.2478638l2.6367798 -1.0888519q0.67541504 1.2338257 1.597168 1.5497742q0.9430542 0.32165527 1.87677 -0.2172699q0.7984619 -0.46081543 0.98535156 -1.200119q0.20825195 -0.73358154 -0.2444458 -1.5186462q-0.4449463 -0.77153015 -1.3062744 -1.0140686q-0.84002686 -0.2368164 -1.9309082 0.24850464l-1.1265259 -3.048172q1.5848389 -0.53585815 2.7730713 -0.44589233q1.1881714 0.08996582 2.2764282 0.85102844q1.0960083 0.77459717 1.8375244 2.0604858q1.2801514 2.2198334 0.6455078 4.372162q-0.5238037 1.7816162 -1.9853516 2.6251678q-2.0569458 1.1871948 -4.59198 -0.3624878q0.47503662 1.5118561 -0.058044434 2.9019775q-0.53308105 1.3901062 -1.9675903 2.2180328q-2.0569458 1.1871948 -4.3927 0.51475525q-2.328003 -0.6589203 -3.6315308 -2.9193726q-1.2254639 -2.1250916 -0.81933594 -4.235733q0.42755127 -2.1049347 2.2841187 -3.4831848z" fill-rule="nonzero"/><path fill="#ffffff" d="m744.7137 330.64395l343.66925 -0.21029663l0 -8.307098l16.614136 16.604034l-16.614136 16.624329l0 -8.307098l-343.66925 0.21032715z" fill-rule="evenodd"/><path stroke="#ff0000" stroke-width="4.0" stroke-linejoin="round" stroke-linecap="butt" d="m744.7137 330.64395l343.66925 -0.21029663l0 -8.307098l16.614136 16.604034l-16.614136 16.624329l0 -8.307098l-343.66925 0.21032715z" fill-rule="evenodd"/><path fill="#000000" fill-opacity="0.0" d="m641.6089 314.61618l112.629944 0l0 59.08664l-112.629944 0z" fill-rule="evenodd"/><path fill="#000000" d="m662.48975 347.9362l0 -18.125l7.703125 0q2.90625 0 4.21875 0.484375q1.3125 0.484375 2.109375 1.734375q0.796875 1.25 0.796875 2.859375q0 2.046875 -1.203125 3.375q-1.203125 1.328125 -3.59375 1.671875q1.1875 0.6875 1.953125 1.515625q0.78125 0.828125 2.09375 2.953125l2.21875 3.53125l-4.375 0l-2.65625 -3.9375q-1.40625 -2.125 -1.921875 -2.671875q-0.515625 -0.546875 -1.109375 -0.75q-0.578125 -0.203125 -1.828125 -0.203125l-0.75 0l0 7.5625l-3.65625 0zm3.65625 -10.46875l2.703125 0q2.640625 0 3.296875 -0.21875q0.65625 -0.21875 1.015625 -0.765625q0.375 -0.546875 0.375 -1.359375q0 -0.921875 -0.484375 -1.484375q-0.484375 -0.5625 -1.375 -0.703125q-0.453125 -0.0625 -2.671875 -0.0625l-2.859375 0l0 4.59375zm13.791199 3.71875q0 -1.734375 0.84375 -3.34375q0.859375 -1.625 2.421875 -2.484375q1.5625 -0.859375 3.5 -0.859375q2.984375 0 4.875 1.9375q1.90625 1.9375 1.90625 4.890625q0 2.984375 -1.921875 4.953125q-1.921875 1.953125 -4.84375 1.953125q-1.796875 0 -3.4375 -0.8125q-1.640625 -0.8125 -2.5 -2.390625q-0.84375 -1.578125 -0.84375 -3.84375zm3.5625 0.1875q0 1.953125 0.921875 3.0q0.9375 1.03125 2.296875 1.03125q1.359375 0 2.28125 -1.03125q0.921875 -1.046875 0.921875 -3.03125q0 -1.921875 -0.921875 -2.953125q-0.921875 -1.046875 -2.28125 -1.046875q-1.359375 0 -2.296875 1.046875q-0.921875 1.03125 -0.921875 2.984375zm15.158936 6.5625l-4.15625 -13.140625l3.375 0l2.46875 8.609375l2.265625 -8.609375l3.34375 0l2.1875 8.609375l2.515625 -8.609375l3.421875 0l-4.21875 13.140625l-3.34375 0l-2.25 -8.453125l-2.234375 8.453125l-3.375 0zm23.425476 -4.8125l3.359375 -0.40625q0.171875 1.28125 0.875 1.96875q0.703125 0.671875 1.703125 0.671875q1.078125 0 1.8125 -0.8125q0.734375 -0.8125 0.734375 -2.203125q0 -1.3125 -0.703125 -2.078125q-0.703125 -0.765625 -1.71875 -0.765625q-0.671875 0 -1.59375 0.265625l0.375 -2.828125q1.40625 0.03125 2.140625 -0.609375q0.75 -0.65625 0.75 -1.734375q0 -0.921875 -0.546875 -1.453125q-0.53125 -0.546875 -1.4375 -0.546875q-0.890625 0 -1.53125 0.625q-0.625 0.609375 -0.75 1.796875l-3.203125 -0.546875q0.328125 -1.640625 1.0 -2.625q0.671875 -0.984375 1.875 -1.546875q1.21875 -0.5625 2.703125 -0.5625q2.5625 0 4.109375 1.625q1.28125 1.34375 1.28125 3.03125q0 2.375 -2.609375 3.796875q1.546875 0.34375 2.484375 1.5q0.9375 1.15625 0.9375 2.8125q0 2.375 -1.75 4.0625q-1.734375 1.6875 -4.34375 1.6875q-2.453125 0 -4.078125 -1.40625q-1.609375 -1.421875 -1.875 -3.71875z" fill-rule="nonzero"/><path fill="#ffffff" d="m876.8354 80.80165l162.80121 281.55353l7.1968994 -4.149597l-6.076782 22.682709l-22.710632 -6.0842896l7.1968384 -4.149597l-162.80121 -281.55353z" fill-rule="evenodd"/><path stroke="#ff0000" stroke-width="4.0" stroke-linejoin="round" stroke-linecap="butt" d="m876.8354 80.80165l162.80121 281.55353l7.1968994 -4.149597l-6.076782 22.682709l-22.710632 -6.0842896l7.1968384 -4.149597l-162.80121 -281.55353z" fill-rule="evenodd"/><path fill="#ffffff" d="m813.25275 49.565098l69.763794 120.97638l-36.125977 20.850388l-69.763794 -120.97637z" fill-rule="evenodd"/><path fill="#000000" d="m802.9464 85.03618l0.80529785 3.6484756q-2.9849243 0.7666168 -5.1957397 -0.15834808q-2.1895142 -0.9192352 -3.6413574 -3.4368591q-1.8109131 -3.1402664 -0.8357544 -6.391136q0.98291016 -3.2373428 4.690918 -5.377426q3.9244995 -2.2650604 7.2528076 -1.4979401q3.3360596 0.7806549 5.2406616 4.0833435q1.6625977 2.8830872 0.99560547 5.66745q-0.38482666 1.6472931 -1.9614258 3.260849l-2.5687256 -2.7028732q1.0618286 -0.9736557 1.2503662 -2.2731552q0.20983887 -1.2937775 -0.51605225 -2.5525894q-1.006958 -1.7460938 -2.897766 -2.1160965q-1.8694458 -0.3642807 -4.684265 1.260315q-2.977234 1.7183151 -3.6326294 3.52182q-0.64190674 1.7957001 0.34936523 3.5147247q0.73376465 1.2723465 2.0551758 1.7184067q1.3349609 0.4382553 3.293518 -0.16896057zm2.9996948 5.045395q1.5021362 -0.8669739 3.317505 -0.9405365q1.836731 -0.06783295 3.3615723 0.85614777q1.5249023 0.9239807 2.4927979 2.602394q1.4908447 2.5853043 0.7572632 5.19162q-0.72576904 2.6198578 -3.2834473 4.0960464q-2.5847778 1.4918137 -5.25 0.8110657q-2.6516724 -0.6885605 -4.111328 -3.2197266q-0.89764404 -1.5565948 -1.0135498 -3.3839798q-0.11584473 -1.8273926 0.8216553 -3.3607178q0.9453125 -1.519783 2.9075317 -2.6523132zm1.6173096 3.1798477q-1.6915894 0.97631836 -2.1377563 2.2982254q-0.42486572 1.3276291 0.25421143 2.5052338q0.6791382 1.177597 2.032837 1.460701q1.3671875 0.27529144 3.0858765 -0.7166443q1.6645508 -0.960701 2.097168 -2.2747955q0.446167 -1.321907 -0.23291016 -2.499504q-0.6791382 -1.1776047 -2.0541382 -1.4664307q-1.3536987 -0.28310394 -3.045288 0.6932144zm0.6635132 14.287209l15.698059 -9.060234l1.7406006 3.0184402l-15.697998 9.060242l-1.7406616 -3.0184479zm7.8397217 13.594719l1.7051392 -0.98413086q-1.2657471 -0.09933472 -2.3789673 -0.80989075q-1.1132202 -0.71056366 -1.7610474 -1.8340149q-0.6635132 -1.150528 -0.685791 -2.346405q-0.022216797 -1.1958771 0.65026855 -2.1252518q0.6860962 -0.9371872 2.2965088 -1.8666382l7.199402 -4.1552124l1.7328491 3.0049057l-5.2371826 3.0226822q-2.3952637 1.3824692 -2.8429565 1.8573151q-0.43981934 0.48838806 -0.51483154 1.1089783q-0.061462402 0.61278534 0.3287964 1.289566q0.4449463 0.77153015 1.2156982 1.138504q0.79211426 0.37269592 1.5394897 0.22998047q0.7687378 -0.13698578 3.2046509 -1.5428848l4.804138 -2.7727432l1.7328491 3.0049057l-11.3810425 6.568672l-1.6079712 -2.7883377zm14.660767 -0.8813858l1.6001587 2.7748032l-1.5562744 0.8982086q2.671997 0.44230652 3.8584595 2.4997177q0.6244507 1.0828552 0.6248779 2.1470184q0.021728516 1.0698853 -0.5883179 2.107544q1.343811 0.23468018 2.289917 0.84321594q0.9597168 0.60072327 1.52948 1.5888214q0.71813965 1.2452698 0.7034302 2.4083557q-0.0146484375 1.1630859 -0.7392578 2.1585846q-0.5512085 0.733078 -2.1887207 1.6781616l-7.26709 4.1942596l-1.7328491 -3.0049133l6.4957275 -3.749054q1.7051392 -0.98413086 2.0128174 -1.5766296q0.39404297 -0.7866974 -0.105529785 -1.6529846q-0.3668213 -0.63616943 -1.0793457 -0.9646301q-0.6989136 -0.33625793 -1.5915527 -0.16384888q-0.8847656 0.18592834 -2.4816284 1.1075745l-5.467285 3.1554718l-1.7328491 -3.0049133l6.2386475 -3.6006622q1.651001 -0.95288086 2.0444946 -1.3964996q0.39349365 -0.44360352 0.42840576 -0.91477203q0.03491211 -0.47116852 -0.2929077 -1.0396652q-0.4058838 -0.7038498 -1.1048584 -1.0401154q-0.68536377 -0.34407806 -1.529602 -0.18157196q-0.84417725 0.1625061 -2.4951782 1.1153946l-5.5213623 3.1867065l-1.7328491 -3.0049057l11.3810425 -6.568672zm5.965576 36.64926l-1.7328491 -3.004898l5.805603 -3.3507385q1.8404541 -1.0622253 2.2646484 -1.5776825q0.43206787 -0.5019226 0.47998047 -1.1068878q0.047912598 -0.60498047 -0.3032837 -1.2140808q-0.4527588 -0.7850647 -1.244873 -1.1577606q-0.77856445 -0.38052368 -1.6149902 -0.20446777q-0.83636475 0.17604065 -2.7445068 1.2773285l-5.155945 2.9758148l-1.7328491 -3.0049133l11.3810425 -6.5686646l1.6079712 2.78833l-1.6781006 0.9685211q2.7938232 0.37200928 4.097351 2.6324463q0.5776367 1.001648 0.6883545 2.0381927q0.12432861 1.0287476 -0.2020874 1.7763977q-0.3128662 0.73983765 -0.9229126 1.3084106q-0.6022339 0.58210754 -1.9284058 1.3475494l-7.064148 4.0771027zm13.569458 17.056122l-2.8012695 1.6167755l-6.088379 -10.557785q1.6847534 -0.73786926 3.5974731 -0.7052307q1.9205322 0.046173096 5.713501 1.2125702q3.0732422 0.95040894 4.015259 1.0200958q1.2928467 0.08370972 2.199524 -0.4396057q1.0149536 -0.5857849 1.2440796 -1.4396362q0.22906494 -0.8538513 -0.32513428 -1.8148651q-0.5385742 -0.93395996 -1.4348145 -1.1744232q-0.8883667 -0.22691345 -2.2614136 0.4573059l-1.4216309 -3.184555q2.6326294 -1.1586151 4.5270386 -0.37574768q1.9022217 0.7963867 3.1276855 2.9214783q1.3425903 2.3281403 0.848999 4.381012q-0.48010254 2.0450592 -2.3475952 3.1229095q-1.055603 0.6092224 -2.2349854 0.7847748q-1.1793823 0.17555237 -2.6975098 -0.048706055q-1.0237427 -0.14881897 -3.1560059 -0.81243896q-2.1187744 -0.67141724 -2.7703857 -0.8004761q-0.6380615 -0.13687134 -1.1845093 -0.14619446l3.4500732 5.9827423z" fill-rule="nonzero"/><path fill="#ffffff" d="m782.82 80.491936l162.80121 281.5535l7.1968384 -4.149597l-6.076782 22.682709l-22.710632 -6.0842896l7.1968994 -4.149597l-162.80121 -281.55353z" fill-rule="evenodd"/><path stroke="#ff0000" stroke-width="4.0" stroke-linejoin="round" stroke-linecap="butt" d="m782.82 80.491936l162.80121 281.5535l7.1968384 -4.149597l-6.076782 22.682709l-22.710632 -6.0842896l7.1968994 -4.149597l-162.80121 -281.55353z" fill-rule="evenodd"/><path fill="#ffffff" d="m714.1461 49.87481l69.763794 120.97637l-36.126038 20.850403l-69.76373 -120.97638z" fill-rule="evenodd"/><path fill="#000000" d="m703.8397 85.34589l0.8053589 3.6484833q-2.9849243 0.7666168 -5.195801 -0.15834808q-2.1894531 -0.91924286 -3.6413574 -3.4368668q-1.810852 -3.1402588 -0.8357544 -6.391136q0.9829712 -3.2373352 4.690918 -5.377426q3.9245605 -2.2650604 7.2528076 -1.4979401q3.3361206 0.7806549 5.2406616 4.0833435q1.6625977 2.8830872 0.99560547 5.6674576q-0.38476562 1.6472931 -1.9614258 3.260849l-2.5687256 -2.7028732q1.0618286 -0.97366333 1.2503662 -2.2731628q0.2098999 -1.2937698 -0.51605225 -2.5525894q-1.006897 -1.7460938 -2.897705 -2.1160965q-1.8694458 -0.3642807 -4.684265 1.260315q-2.977234 1.7183228 -3.6326904 3.5218277q-0.64190674 1.7956924 0.34942627 3.514717q0.7337036 1.2723465 2.0551147 1.7184143q1.3349609 0.43824768 3.293518 -0.1689682zm2.9997559 5.045395q1.5021362 -0.86696625 3.317505 -0.94052887q1.836731 -0.067840576 3.3615723 0.85614014q1.5248413 0.9239807 2.4927368 2.6024017q1.4909058 2.5852966 0.7573242 5.19162q-0.72576904 2.6198502 -3.2835083 4.0960464q-2.5847168 1.4918137 -5.249939 0.81105804q-2.6517334 -0.6885605 -4.111328 -3.219719q-0.89764404 -1.5565948 -1.0135498 -3.3839874q-0.11590576 -1.827385 0.82159424 -3.3607101q0.9453125 -1.5197906 2.9075928 -2.6523209zm1.6172485 3.1798477q-1.6915894 0.97631836 -2.1377563 2.2982254q-0.4248047 1.3276367 0.25427246 2.5052338q0.67907715 1.177597 2.0327759 1.460701q1.3672485 0.27529907 3.0858765 -0.7166443q1.6645508 -0.96069336 2.097168 -2.274788q0.446167 -1.3219147 -0.23291016 -2.4995117q-0.67907715 -1.177597 -2.0541382 -1.4664307q-1.3536987 -0.28310394 -3.045288 0.6932144zm0.6635742 14.287216l15.697998 -9.060234l1.7406616 3.0184402l-15.697998 9.060234l-1.7406616 -3.0184402zm7.8397217 13.594711l1.7050781 -0.98412323q-1.2657471 -0.09933472 -2.3789062 -0.8098984q-1.1132202 -0.71055603 -1.7611084 -1.8340149q-0.66345215 -1.150528 -0.68573 -2.346405q-0.022277832 -1.1958771 0.65026855 -2.1252518q0.68603516 -0.93717957 2.2964478 -1.8666382l7.199463 -4.1552124l1.7328491 3.0049057l-5.2371826 3.0226822q-2.3953247 1.3824692 -2.8429565 1.8573151q-0.43981934 0.48838806 -0.51483154 1.1089783q-0.061523438 0.61278534 0.3287964 1.289566q0.44488525 0.77153015 1.2156982 1.138504q0.79211426 0.37270355 1.5394897 0.2299881q0.7687378 -0.13699341 3.2046509 -1.5428925l4.804138 -2.7727432l1.7328491 3.0049057l-11.3811035 6.568672l-1.6079102 -2.7883377zm14.660767 -0.8813858l1.6000977 2.7748032l-1.5562744 0.89821625q2.672058 0.4422989 3.8585205 2.4997177q0.6244507 1.0828476 0.6248169 2.1470108q0.02178955 1.0698853 -0.5883179 2.107544q1.343811 0.23468018 2.289978 0.84321594q0.95965576 0.60072327 1.52948 1.5888214q0.71813965 1.2452698 0.7034302 2.4083557q-0.014709473 1.1630859 -0.7392578 2.1585846q-0.55126953 0.733078 -2.1887207 1.6781616l-7.26709 4.1942596l-1.7328491 -3.004898l6.4957275 -3.7490692q1.7051392 -0.98413086 2.0127563 -1.5766296q0.394104 -0.7866974 -0.10546875 -1.6529694q-0.36688232 -0.6361847 -1.0793457 -0.9646301q-0.6989746 -0.3362732 -1.5915527 -0.16386414q-0.88482666 0.1859436 -2.4816895 1.1075745l-5.467224 3.1554718l-1.7328491 -3.0049133l6.2385864 -3.6006622q1.651001 -0.95288086 2.0445557 -1.3964844q0.39349365 -0.44361877 0.42840576 -0.91477966q0.03491211 -0.47117615 -0.2929077 -1.0396729q-0.4058838 -0.7038498 -1.1048584 -1.0401154q-0.6854248 -0.34407043 -1.529602 -0.18156433q-0.8442383 0.1625061 -2.4952393 1.1153946l-5.5213623 3.186699l-1.7328491 -3.0049057l11.3811035 -6.568672zm5.965576 36.64926l-1.7328491 -3.004898l5.805542 -3.3507233q1.8404541 -1.0622406 2.2647095 -1.5776978q0.43200684 -0.5019226 0.47998047 -1.1068878q0.047912598 -0.60498047 -0.30334473 -1.2140808q-0.45269775 -0.7850647 -1.244812 -1.1577606q-0.77856445 -0.38050842 -1.6149902 -0.20446777q-0.8364258 0.17604065 -2.7445068 1.2773285l-5.156006 2.9758148l-1.7328491 -3.004898l11.3810425 -6.56868l1.6079712 2.7883453l-1.6780396 0.96850586q2.7938232 0.37200928 4.097351 2.6324615q0.5775757 1.0016327 0.6883545 2.0381927q0.12426758 1.0287476 -0.2020874 1.7763824q-0.3128662 0.73983765 -0.9229126 1.3084106q-0.6022339 0.5821228 -1.9284668 1.3475494l-7.064087 4.0771027zm9.347534 16.209427l-1.7328491 -3.0049133l11.340454 -6.5452423q-2.4950562 -0.76094055 -4.5215454 -2.5860748l2.7200928 -1.569931q1.0715332 0.9510956 2.9368286 1.7146912q1.8787842 0.75579834 3.6098633 0.44223022l1.4128418 2.4499512l-15.765686 9.099289z" fill-rule="nonzero"/><path fill="#ffffff" d="m683.7133 80.80165l162.80127 281.55353l7.1968384 -4.149597l-6.0768433 22.682709l-22.710571 -6.0842896l7.1968384 -4.149597l-162.80121 -281.55353z" fill-rule="evenodd"/><path stroke="#ff0000" stroke-width="4.0" stroke-linejoin="round" stroke-linecap="butt" d="m683.7133 80.80165l162.80127 281.55353l7.1968384 -4.149597l-6.0768433 22.682709l-22.710571 -6.0842896l7.1968384 -4.149597l-162.80121 -281.55353z" fill-rule="evenodd"/><path fill="#ffffff" d="m608.2467 4.4881887l347.1181 0l0 59.086613l-347.1181 0z" fill-rule="evenodd"/><path stroke="#0000ff" stroke-width="1.0" stroke-linejoin="round" stroke-linecap="butt" d="m608.2467 4.4881887l347.1181 0l0 59.086613l-347.1181 0z" fill-rule="evenodd"/><path fill="#0000ff" d="m640.15594 29.542564q-0.625 -0.375 -1.3125 -0.5625q-0.671875 -0.203125 -1.40625 -0.203125q-1.484375 0 -2.34375 0.484375q-0.390625 0.21875 -0.390625 0.453125q0 0.296875 0.53125 0.5625q0.390625 0.203125 1.765625 0.390625q2.515625 0.34375 3.515625 0.6875q1.296875 0.453125 2.0 1.359375q0.703125 0.90625 0.703125 1.90625q0 1.359375 -1.203125 2.265625q-1.71875 1.328125 -4.46875 1.328125q-1.09375 0 -2.03125 -0.1875q-0.921875 -0.1875 -1.703125 -0.5625q-0.1875 0.15625 -0.40625 0.25q-0.203125 0.078125 -0.421875 0.078125q-0.59375 0 -0.953125 -0.390625q-0.34375 -0.390625 -0.34375 -1.296875l0 -0.859375q0 -0.90625 0.34375 -1.296875q0.359375 -0.390625 0.921875 -0.390625q0.453125 0 0.765625 0.25q0.3125 0.25 0.484375 0.875q0.578125 0.484375 1.390625 0.75q0.828125 0.25 1.890625 0.25q1.734375 0 2.703125 -0.546875q0.453125 -0.265625 0.453125 -0.5625q0 -0.5 -0.65625 -0.828125q-0.65625 -0.3125 -2.703125 -0.53125q-3.046875 -0.328125 -4.078125 -1.25q-1.03125 -0.890625 -1.03125 -2.21875q0 -1.359375 1.15625 -2.265625q1.5625 -1.234375 4.078125 -1.234375q0.875 0 1.6875 0.171875q0.8125 0.15625 1.546875 0.5q0.234375 -0.171875 0.4375 -0.25q0.21875 -0.09375 0.390625 -0.09375q0.515625 0 0.859375 0.390625q0.34375 0.390625 0.34375 1.3125l0 0.609375q0 0.828125 -0.1875 1.125q-0.40625 0.578125 -1.078125 0.578125q-0.46875 0 -0.8125 -0.28125q-0.34375 -0.296875 -0.4375 -0.765625zm11.824402 -0.421875l0 5.078125q0 0.8125 0.34375 1.078125q0.515625 0.40625 1.859375 0.40625q1.9375 0 3.578125 -0.828125q0.625 -0.328125 0.984375 -0.328125q0.5 0 0.859375 0.375q0.375 0.375 0.375 0.90625q0 0.484375 -0.40625 0.84375q-0.59375 0.59375 -2.390625 1.078125q-1.78125 0.484375 -3.0 0.484375q-2.375 0 -3.5625 -1.015625q-1.171875 -1.015625 -1.171875 -2.5l0 -5.578125l-0.90625 0q-0.921875 0 -1.3125 -0.359375q-0.390625 -0.359375 -0.390625 -0.921875q0 -0.5625 0.390625 -0.90625q0.390625 -0.359375 1.3125 -0.359375l0.90625 0l0 -2.28125q0 -0.921875 0.34375 -1.3125q0.359375 -0.390625 0.9375 -0.390625q0.546875 0 0.890625 0.390625q0.359375 0.390625 0.359375 1.3125l0 2.28125l4.6875 0q0.921875 0 1.3125 0.359375q0.390625 0.34375 0.390625 0.921875q0 0.546875 -0.390625 0.90625q-0.390625 0.359375 -1.3125 0.359375l-4.6875 0zm14.418091 8.59375l-4.390625 -8.59375q-0.625 -0.078125 -0.953125 -0.421875q-0.3125 -0.359375 -0.3125 -0.84375q0 -0.578125 0.390625 -0.921875q0.390625 -0.359375 1.296875 -0.359375l2.3125 0q0.921875 0 1.3125 0.359375q0.390625 0.34375 0.390625 0.921875q0 0.546875 -0.390625 0.90625q-0.390625 0.359375 -1.234375 0.359375l3.0 5.8125l2.96875 -5.8125q-0.828125 0 -1.21875 -0.359375q-0.375 -0.359375 -0.375 -0.921875q0 -0.5625 0.375 -0.90625q0.390625 -0.359375 1.3125 -0.359375l2.390625 0q0.90625 0 1.28125 0.359375q0.390625 0.34375 0.390625 0.921875q0 0.5 -0.328125 0.859375q-0.328125 0.34375 -0.984375 0.40625l-5.8125 11.453125q0.953125 0 1.25 0.171875q0.59375 0.390625 0.59375 1.09375q0 0.5625 -0.390625 0.90625q-0.390625 0.359375 -1.3125 0.359375l-5.53125 0q-0.90625 0 -1.296875 -0.359375q-0.390625 -0.34375 -0.390625 -0.90625q0 -0.5625 0.390625 -0.921875q0.390625 -0.34375 1.296875 -0.34375l2.53125 0l1.4375 -2.859375zm17.88684 -15.953125l0 13.515625l3.03125 0q0.921875 0 1.3125 0.359375q0.390625 0.34375 0.390625 0.90625q0 0.5625 -0.390625 0.921875q-0.390625 0.34375 -1.3125 0.34375l-8.609375 0q-0.921875 0 -1.3125 -0.34375q-0.390625 -0.359375 -0.390625 -0.9375q0 -0.546875 0.390625 -0.890625q0.390625 -0.359375 1.3125 -0.359375l3.03125 0l0 -10.96875l-2.03125 0q-0.90625 0 -1.3125 -0.34375q-0.390625 -0.359375 -0.390625 -0.9375q0 -0.546875 0.390625 -0.90625q0.390625 -0.359375 1.3125 -0.359375l4.578125 0zm20.29309 11.71875l-10.40625 0q0.390625 0.984375 1.390625 1.59375q1.015625 0.609375 2.734375 0.609375q1.421875 0 3.75 -0.609375q0.96875 -0.25 1.34375 -0.25q0.5 0 0.84375 0.359375q0.34375 0.359375 0.34375 0.90625q0 0.5 -0.359375 0.84375q-0.5 0.453125 -2.421875 0.875q-1.90625 0.40625 -3.6875 0.40625q-3.03125 0 -4.859375 -1.71875q-1.828125 -1.71875 -1.828125 -4.234375q0 -2.671875 1.96875 -4.34375q1.984375 -1.671875 4.546875 -1.671875q1.546875 0 2.84375 0.546875q1.296875 0.546875 1.921875 1.171875q0.890625 0.921875 1.46875 2.265625q0.40625 0.9375 0.40625 2.171875l0 1.078125zm-2.8125 -2.53125q-0.578125 -1.09375 -1.53125 -1.625q-0.9375 -0.546875 -2.234375 -0.546875q-1.28125 0 -2.21875 0.546875q-0.9375 0.53125 -1.53125 1.625l7.515625 0zm13.558777 -2.671875q0 0.71875 -0.515625 1.203125q-0.5 0.46875 -1.390625 0.46875q-0.890625 0 -1.40625 -0.46875q-0.5 -0.484375 -0.5 -1.203125q0 -0.71875 0.5 -1.203125q0.515625 -0.484375 1.40625 -0.484375q0.890625 0 1.390625 0.484375q0.515625 0.484375 0.515625 1.203125zm0.015625 8.296875q0 0.71875 -0.515625 1.203125q-0.5 0.46875 -1.390625 0.46875q-0.890625 0 -1.40625 -0.46875q-0.5 -0.484375 -0.5 -1.203125q0 -0.71875 0.5 -1.203125q0.515625 -0.484375 1.40625 -0.484375q0.890625 0 1.390625 0.484375q0.515625 0.484375 0.515625 1.203125zm24.133057 -14.0625l3.265625 0l-0.8125 6.0625q-0.046875 0.46875 -0.265625 0.65625q-0.203125 0.1875 -0.515625 0.1875q-0.34375 0 -0.546875 -0.1875q-0.1875 -0.1875 -0.25 -0.640625l-0.875 -6.078125zm5.28125 0l3.265625 0l-0.8125 6.0625q-0.0625 0.46875 -0.265625 0.65625q-0.1875 0.1875 -0.515625 0.1875q-0.34375 0 -0.546875 -0.1875q-0.1875 -0.1875 -0.25 -0.640625l-0.875 -6.078125zm11.636841 -0.75l0 5.40625q0.796875 -0.46875 1.59375 -0.6875q0.8125 -0.234375 1.640625 -0.234375q1.3125 0 2.34375 0.453125q1.03125 0.4375 1.703125 1.40625q0.671875 0.953125 0.671875 2.40625l0 4.765625q0.96875 0 1.265625 0.1875q0.59375 0.375 0.59375 1.078125q0 0.5625 -0.390625 0.921875q-0.375 0.34375 -1.296875 0.34375l-2.890625 0q-0.90625 0 -1.296875 -0.34375q-0.390625 -0.359375 -0.390625 -0.9375q0 -0.6875 0.59375 -1.0625q0.3125 -0.203125 1.265625 -0.1875l0 -4.59375q0 -0.96875 -0.453125 -1.375q-0.578125 -0.53125 -1.71875 -0.53125q-0.828125 0 -1.484375 0.328125q-0.65625 0.328125 -1.75 1.421875l0 4.75q0.984375 0 1.265625 0.1875q0.59375 0.375 0.59375 1.078125q0 0.5625 -0.390625 0.921875q-0.375 0.34375 -1.296875 0.34375l-2.875 0q-0.921875 0 -1.3125 -0.34375q-0.390625 -0.359375 -0.390625 -0.9375q0 -0.6875 0.609375 -1.0625q0.296875 -0.203125 1.265625 -0.1875l0 -10.96875l-0.4375 0q-0.921875 0 -1.3125 -0.34375q-0.375 -0.359375 -0.375 -0.9375q0 -0.546875 0.375 -0.90625q0.390625 -0.359375 1.3125 -0.359375l2.96875 0zm24.183777 11.71875l-10.40625 0q0.390625 0.984375 1.390625 1.59375q1.015625 0.609375 2.734375 0.609375q1.421875 0 3.75 -0.609375q0.96875 -0.25 1.34375 -0.25q0.5 0 0.84375 0.359375q0.34375 0.359375 0.34375 0.90625q0 0.5 -0.359375 0.84375q-0.5 0.453125 -2.421875 0.875q-1.90625 0.40625 -3.6875 0.40625q-3.03125 0 -4.859375 -1.71875q-1.828125 -1.71875 -1.828125 -4.234375q0 -2.671875 1.96875 -4.34375q1.984375 -1.671875 4.546875 -1.671875q1.546875 0 2.84375 0.546875q1.296875 0.546875 1.921875 1.171875q0.890625 0.921875 1.46875 2.265625q0.40625 0.9375 0.40625 2.171875l0 1.078125zm-2.8125 -2.53125q-0.578125 -1.09375 -1.53125 -1.625q-0.9375 -0.546875 -2.234375 -0.546875q-1.28125 0 -2.21875 0.546875q-0.9375 0.53125 -1.53125 1.625l7.515625 0zm13.543091 1.015625l3.84375 3.3125q0.6875 0.03125 1.03125 0.390625q0.359375 0.34375 0.359375 0.875q0 0.5625 -0.390625 0.921875q-0.390625 0.34375 -1.3125 0.34375l-2.875 0q-0.921875 0 -1.3125 -0.34375q-0.390625 -0.359375 -0.390625 -0.9375q0 -0.453125 0.28125 -0.78125q0.28125 -0.34375 0.765625 -0.46875l-1.890625 -1.640625l-1.9375 1.640625q0.59375 0.140625 0.84375 0.453125q0.25 0.3125 0.25 0.796875q0 0.578125 -0.390625 0.9375q-0.375 0.34375 -1.296875 0.34375l-2.859375 0q-0.90625 0 -1.296875 -0.34375q-0.390625 -0.359375 -0.390625 -0.9375q0 -0.515625 0.34375 -0.859375q0.34375 -0.359375 1.046875 -0.390625l3.75 -3.3125l-3.328125 -2.84375q-0.65625 -0.0625 -1.0 -0.40625q-0.328125 -0.359375 -0.328125 -0.875q0 -0.5625 0.390625 -0.90625q0.390625 -0.359375 1.296875 -0.359375l2.375 0q0.921875 0 1.3125 0.359375q0.390625 0.34375 0.390625 0.890625q0 0.734375 -0.703125 1.1875l1.546875 1.28125l1.5 -1.296875q-0.671875 -0.484375 -0.671875 -1.125q0 -0.59375 0.375 -0.9375q0.390625 -0.359375 1.3125 -0.359375l2.34375 0q0.921875 0 1.3125 0.359375q0.390625 0.34375 0.390625 0.921875q0 0.5 -0.34375 0.859375q-0.34375 0.34375 -1.0 0.40625l-3.34375 2.84375zm18.60559 -0.1875l-10.578125 0l0 -2.3125l10.578125 0l0 2.3125zm10.808716 -10.015625l0 2.6875l-3.03125 0l0 -2.6875l3.03125 0zm0.34375 4.8125l0 8.703125l3.03125 0q0.921875 0 1.3125 0.359375q0.390625 0.34375 0.390625 0.90625q0 0.5625 -0.390625 0.921875q-0.390625 0.34375 -1.3125 0.34375l-8.609375 0q-0.921875 0 -1.3125 -0.34375q-0.390625 -0.359375 -0.390625 -0.9375q0 -0.546875 0.390625 -0.890625q0.390625 -0.359375 1.3125 -0.359375l3.03125 0l0 -6.15625l-2.03125 0q-0.90625 0 -1.3125 -0.359375q-0.390625 -0.359375 -0.390625 -0.921875q0 -0.5625 0.390625 -0.90625q0.390625 -0.359375 1.3125 -0.359375l4.578125 0zm11.371277 0l0 0.859375q0.6875 -0.59375 1.515625 -0.890625q0.84375 -0.296875 1.828125 -0.296875q2.25 0 3.5625 1.390625q1.03125 1.125 1.03125 2.921875l0 4.71875q0.8125 0 1.1875 0.359375q0.390625 0.34375 0.390625 0.90625q0 0.5625 -0.390625 0.921875q-0.390625 0.34375 -1.3125 0.34375l-2.28125 0q-0.921875 0 -1.3125 -0.34375q-0.375 -0.359375 -0.375 -0.9375q0 -0.546875 0.375 -0.890625q0.390625 -0.359375 1.1875 -0.359375l0 -4.796875q0 -0.828125 -0.4375 -1.203125q-0.59375 -0.5 -1.75 -0.5q-0.875 0 -1.546875 0.34375q-0.65625 0.34375 -1.671875 1.4375l0 4.71875q0.984375 0 1.265625 0.1875q0.609375 0.359375 0.609375 1.078125q0 0.5625 -0.390625 0.921875q-0.390625 0.34375 -1.3125 0.34375l-2.875 0q-0.921875 0 -1.3125 -0.34375q-0.390625 -0.359375 -0.390625 -0.9375q0 -0.6875 0.59375 -1.0625q0.296875 -0.1875 1.28125 -0.1875l0 -6.15625q-0.8125 0 -1.203125 -0.359375q-0.375 -0.359375 -0.375 -0.921875q0 -0.5625 0.390625 -0.90625q0.390625 -0.359375 1.3125 -0.359375l2.40625 0zm17.79309 8.15625l2.71875 -5.609375q-1.0 0 -1.296875 -0.1875q-0.609375 -0.375 -0.609375 -1.09375q0 -0.5625 0.390625 -0.90625q0.390625 -0.359375 1.296875 -0.359375l3.484375 0q0.90625 0 1.296875 0.359375q0.390625 0.34375 0.390625 0.921875q0 0.546875 -0.390625 0.90625q-0.390625 0.359375 -1.296875 0.359375l-0.421875 0l-4.25 8.6875l-2.640625 0l-4.25 -8.6875l-0.359375 0q-0.90625 0 -1.296875 -0.359375q-0.390625 -0.359375 -0.390625 -0.921875q0 -0.5625 0.390625 -0.90625q0.390625 -0.359375 1.296875 -0.359375l3.40625 0q0.90625 0 1.296875 0.359375q0.390625 0.34375 0.390625 0.921875q0 0.703125 -0.59375 1.078125q-0.296875 0.1875 -1.328125 0.1875l2.765625 5.609375zm21.54309 -1.25l-10.40625 0q0.390625 0.984375 1.390625 1.59375q1.015625 0.609375 2.734375 0.609375q1.421875 0 3.75 -0.609375q0.96875 -0.25 1.34375 -0.25q0.5 0 0.84375 0.359375q0.34375 0.359375 0.34375 0.90625q0 0.5 -0.359375 0.84375q-0.5 0.453125 -2.421875 0.875q-1.90625 0.40625 -3.6875 0.40625q-3.03125 0 -4.859375 -1.71875q-1.828125 -1.71875 -1.828125 -4.234375q0 -2.671875 1.96875 -4.34375q1.984375 -1.671875 4.546875 -1.671875q1.546875 0 2.84375 0.546875q1.296875 0.546875 1.921875 1.171875q0.890625 0.921875 1.46875 2.265625q0.40625 0.9375 0.40625 2.171875l0 1.078125zm-2.8125 -2.53125q-0.578125 -1.09375 -1.53125 -1.625q-0.9375 -0.546875 -2.234375 -0.546875q-1.28125 0 -2.21875 0.546875q-0.9375 0.53125 -1.53125 1.625l7.515625 0zm11.121216 -4.375l0 1.59375q1.59375 -1.15625 2.515625 -1.53125q0.921875 -0.390625 1.71875 -0.390625q1.234375 0 2.40625 0.921875q0.78125 0.609375 0.78125 1.25q0 0.546875 -0.375 0.921875q-0.375 0.375 -0.90625 0.375q-0.46875 0 -0.984375 -0.46875q-0.515625 -0.46875 -0.9375 -0.46875q-0.53125 0 -1.59375 0.671875q-1.046875 0.671875 -2.625 2.0l0 3.828125l3.609375 0q0.90625 0 1.296875 0.359375q0.390625 0.34375 0.390625 0.90625q0 0.5625 -0.390625 0.921875q-0.390625 0.34375 -1.296875 0.34375l-7.65625 0q-0.921875 0 -1.3125 -0.34375q-0.390625 -0.359375 -0.390625 -0.9375q0 -0.546875 0.390625 -0.890625q0.390625 -0.359375 1.3125 -0.359375l1.5 0l0 -6.15625l-0.90625 0q-0.921875 0 -1.3125 -0.359375q-0.390625 -0.359375 -0.390625 -0.921875q0 -0.5625 0.390625 -0.90625q0.390625 -0.359375 1.3125 -0.359375l3.453125 0zm18.464966 2.96875q-0.625 -0.375 -1.3125 -0.5625q-0.671875 -0.203125 -1.40625 -0.203125q-1.484375 0 -2.34375 0.484375q-0.390625 0.21875 -0.390625 0.453125q0 0.296875 0.53125 0.5625q0.390625 0.203125 1.765625 0.390625q2.515625 0.34375 3.515625 0.6875q1.296875 0.453125 2.0 1.359375q0.703125 0.90625 0.703125 1.90625q0 1.359375 -1.203125 2.265625q-1.71875 1.328125 -4.46875 1.328125q-1.09375 0 -2.03125 -0.1875q-0.921875 -0.1875 -1.703125 -0.5625q-0.1875 0.15625 -0.40625 0.25q-0.203125 0.078125 -0.421875 0.078125q-0.59375 0 -0.953125 -0.390625q-0.34375 -0.390625 -0.34375 -1.296875l0 -0.859375q0 -0.90625 0.34375 -1.296875q0.359375 -0.390625 0.921875 -0.390625q0.453125 0 0.765625 0.25q0.3125 0.25 0.484375 0.875q0.578125 0.484375 1.390625 0.75q0.828125 0.25 1.890625 0.25q1.734375 0 2.703125 -0.546875q0.453125 -0.265625 0.453125 -0.5625q0 -0.5 -0.65625 -0.828125q-0.65625 -0.3125 -2.703125 -0.53125q-3.046875 -0.328125 -4.078125 -1.25q-1.03125 -0.890625 -1.03125 -2.21875q0 -1.359375 1.15625 -2.265625q1.5625 -1.234375 4.078125 -1.234375q0.875 0 1.6875 0.171875q0.8125 0.15625 1.546875 0.5q0.234375 -0.171875 0.4375 -0.25q0.21875 -0.09375 0.390625 -0.09375q0.515625 0 0.859375 0.390625q0.34375 0.390625 0.34375 1.3125l0 0.609375q0 0.828125 -0.1875 1.125q-0.40625 0.578125 -1.078125 0.578125q-0.46875 0 -0.8125 -0.28125q-0.34375 -0.296875 -0.4375 -0.765625zm18.82434 3.9375l-10.40625 0q0.390625 0.984375 1.390625 1.59375q1.015625 0.609375 2.734375 0.609375q1.421875 0 3.75 -0.609375q0.96875 -0.25 1.34375 -0.25q0.5 0 0.84375 0.359375q0.34375 0.359375 0.34375 0.90625q0 0.5 -0.359375 0.84375q-0.5 0.453125 -2.421875 0.875q-1.90625 0.40625 -3.6875 0.40625q-3.03125 0 -4.859375 -1.71875q-1.828125 -1.71875 -1.828125 -4.234375q0 -2.671875 1.96875 -4.34375q1.984375 -1.671875 4.546875 -1.671875q1.546875 0 2.84375 0.546875q1.296875 0.546875 1.921875 1.171875q0.890625 0.921875 1.46875 2.265625q0.40625 0.9375 0.40625 2.171875l0 1.078125zm-2.8125 -2.53125q-0.578125 -1.09375 -1.53125 -1.625q-0.9375 -0.546875 -2.234375 -0.546875q-1.28125 0 -2.21875 0.546875q-0.9375 0.53125 -1.53125 1.625l7.515625 0zm7.308716 -8.4375l3.265625 0l-0.8125 6.0625q-0.046875 0.46875 -0.265625 0.65625q-0.203125 0.1875 -0.515625 0.1875q-0.34375 0 -0.546875 -0.1875q-0.1875 -0.1875 -0.25 -0.640625l-0.875 -6.078125zm5.28125 0l3.265625 0l-0.8125 6.0625q-0.0625 0.46875 -0.265625 0.65625q-0.1875 0.1875 -0.515625 0.1875q-0.34375 0 -0.546875 -0.1875q-0.1875 -0.1875 -0.25 -0.640625l-0.875 -6.078125z" fill-rule="nonzero"/></g></svg>