<svg version="1.1" viewBox="0.0 0.0 416.3070866141732 317.53805774278214" fill="none" stroke="none" stroke-linecap="square" stroke-miterlimit="10" xmlns:xlink="http://www.w3.org/1999/xlink" xmlns="http://www.w3.org/2000/svg"><clipPath id="p.0"><path d="m0 0l416.3071 0l0 317.53806l-416.3071 0l0 -317.53806z" clip-rule="nonzero"/></clipPath><g clip-path="url(#p.0)"><path fill="#000000" fill-opacity="0.0" d="m0 0l416.3071 0l0 317.53806l-416.3071 0z" fill-rule="evenodd"/><path fill="#ffffff" d="m306.62912 6.7384443l100.62991 0l0 100.62992l-100.62991 0z" fill-rule="evenodd"/><path stroke="#000000" stroke-width="1.0" stroke-linejoin="round" stroke-linecap="butt" d="m306.62912 6.7384443l100.62991 0l0 100.62992l-100.62991 0z" fill-rule="evenodd"/><path fill="#ffffff" d="m4.7399554 207.99829l100.62993 0l0 100.62991l-100.62993 0z" fill-rule="evenodd"/><path stroke="#000000" stroke-width="1.0" stroke-linejoin="round" stroke-linecap="butt" d="m4.7399554 207.99829l100.62993 0l0 100.62991l-100.62993 0z" fill-rule="evenodd"/><path fill="#ffffff" d="m105.36927 6.7384443l100.62992 0l0 100.62992l-100.62992 0z" fill-rule="evenodd"/><path stroke="#ff0000" stroke-width="8.0" stroke-linejoin="round" stroke-linecap="butt" d="m105.36927 6.7384443l100.62992 0l0 100.62992l-100.62992 0z" fill-rule="evenodd"/><path fill="#ffffff" d="m205.99919 6.7384443l100.62993 0l0 100.62992l-100.62993 0z" fill-rule="evenodd"/><path stroke="#ff0000" stroke-width="8.0" stroke-linejoin="round" stroke-linecap="butt" d="m205.99919 6.7384443l100.62993 0l0 100.62992l-100.62993 0z" fill-rule="evenodd"/><path fill="#ffffff" d="m55.054615 107.36836l100.62993 0l0 100.62993l-100.62993 0z" fill-rule="evenodd"/><path stroke="#ff0000" stroke-width="8.0" stroke-linejoin="round" stroke-linecap="butt" d="m55.054615 107.36836l100.62993 0l0 100.62993l-100.62993 0z" fill-rule="evenodd"/><path fill="#ffffff" d="m256.31476 107.36836l100.62991 0l0 100.62993l-100.62991 0z" fill-rule="evenodd"/><path stroke="#ff0000" stroke-width="8.0" stroke-linejoin="round" stroke-linecap="butt" d="m256.31476 107.36836l100.62991 0l0 100.62993l-100.62991 0z" fill-rule="evenodd"/><path fill="#ffffff" d="m105.36988 207.99829l100.62992 0l0 100.62991l-100.62992 0z" fill-rule="evenodd"/><path stroke="#ff0000" stroke-width="8.0" stroke-linejoin="round" stroke-linecap="butt" d="m105.36988 207.99829l100.62992 0l0 100.62991l-100.62992 0z" fill-rule="evenodd"/><path fill="#ffffff" d="m205.9998 207.99829l100.62993 0l0 100.62991l-100.62993 0z" fill-rule="evenodd"/><path stroke="#ff0000" stroke-width="8.0" stroke-linejoin="round" stroke-linecap="butt" d="m205.9998 207.99829l100.62993 0l0 100.62991l-100.62993 0z" fill-rule="evenodd"/><path fill="#ffffff" d="m155.68484 107.36836l100.62991 0l0 100.62993l-100.62991 0z" fill-rule="evenodd"/><path stroke="#000000" stroke-width="8.0" stroke-linejoin="round" stroke-linecap="butt" d="m155.68484 107.36836l100.62991 0l0 100.62993l-100.62991 0z" fill-rule="evenodd"/><path fill="#ffffff" d="m238.32089 149.39201l31.826782 -0.020690918l0 -8.307083l16.614166 16.603378l-16.614166 16.62497l0 -8.307083l-31.826782 0.020690918z" fill-rule="evenodd"/><path stroke="#ff0000" stroke-width="4.0" stroke-linejoin="round" stroke-linecap="butt" d="m238.32089 149.39201l31.826782 -0.020690918l0 -8.307083l16.614166 16.603378l-16.614166 16.62497l0 -8.307083l-31.826782 0.020690918z" fill-rule="evenodd"/><path fill="#ffffff" d="m198.79436 193.28368l-16.619339 28.989166l7.204727 4.1338654l-22.671997 6.144684l-6.1468964 -22.68013l7.204727 4.1338654l16.619324 -28.989166z" fill-rule="evenodd"/><path stroke="#ff0000" stroke-width="4.0" stroke-linejoin="round" stroke-linecap="butt" d="m198.79436 193.28368l-16.619339 28.989166l7.204727 4.1338654l-22.671997 6.144684l-6.1468964 -22.68013l7.204727 4.1338654l16.619324 -28.989166z" fill-rule="evenodd"/><path fill="#ffffff" d="m172.6096 165.9747l-31.826782 0.020690918l0 8.307083l-16.614166 -16.603363l16.614166 -16.624985l0 8.307098l31.826782 -0.020706177z" fill-rule="evenodd"/><path stroke="#ff0000" stroke-width="4.0" stroke-linejoin="round" stroke-linecap="butt" d="m172.6096 165.9747l-31.826782 0.020690918l0 8.307083l-16.614166 -16.603363l16.614166 -16.624985l0 8.307098l31.826782 -0.020706177z" fill-rule="evenodd"/><path fill="#ffffff" d="m228.67722 184.64426l13.863419 30.39853l7.5590515 -3.4409485l-8.225616 21.995163l-22.010605 -8.231384l7.559067 -3.4409485l-13.863419 -30.39853z" fill-rule="evenodd"/><path stroke="#ff0000" stroke-width="4.0" stroke-linejoin="round" stroke-linecap="butt" d="m228.67722 184.64426l13.863419 30.39853l7.5590515 -3.4409485l-8.225616 21.995163l-22.010605 -8.231384l7.559067 -3.4409485l-13.863419 -30.39853z" fill-rule="evenodd"/><path fill="#ffffff" d="m198.79396 117.98727l-16.574646 -28.596527l7.204727 -4.0866165l-22.71669 -6.159378l-6.1022186 22.505836l7.204727 -4.0866165l16.574661 28.596527z" fill-rule="evenodd"/><path stroke="#ff0000" stroke-width="4.0" stroke-linejoin="round" stroke-linecap="butt" d="m198.79396 117.98727l-16.574646 -28.596527l7.204727 -4.0866165l-22.71669 -6.159378l-6.1022186 22.505836l7.204727 -4.0866165l16.574661 28.596527z" fill-rule="evenodd"/><path fill="#ffffff" d="m228.67654 126.53438l13.813324 -29.953293l7.5590515 3.4015732l-8.175522 -21.857727l-22.0607 8.251427l7.5590515 3.4015808l-13.813309 29.953285z" fill-rule="evenodd"/><path stroke="#ff0000" stroke-width="4.0" stroke-linejoin="round" stroke-linecap="butt" d="m228.67654 126.53438l13.813324 -29.953293l7.5590515 3.4015732l-8.175522 -21.857727l-22.0607 8.251427l7.5590515 3.4015808l-13.813309 29.953285z" fill-rule="evenodd"/></g></svg>